<svg width="341" height="229" viewBox="0 0 341 359" fill="none" xmlns="http://www.w3.org/2000/svg">
<path d="M320.566 101.183L224.423 101.183C222.595 101.183 220.843 100.511 219.551 99.3161C218.259 98.1206 217.533 96.4993 217.533 94.8087V30.0592C217.533 28.3694 218.258 26.7489 219.55 25.554C220.841 24.3591 222.593 23.6879 224.42 23.6879L320.569 23.6879C322.396 23.6879 324.148 24.3591 325.439 25.554C326.731 26.7489 327.456 28.3694 327.456 30.0592V94.8087C327.456 96.4993 326.73 98.1206 325.438 99.3161C324.146 100.511 322.393 101.183 320.566 101.183V101.183Z" fill="white"/>
<path d="M217.245 94.8083V30.0588C217.245 28.2984 218.001 26.6101 219.346 25.3653C220.692 24.1205 222.517 23.4211 224.42 23.4211H320.569C322.472 23.4211 324.297 24.1205 325.643 25.3653C326.988 26.6101 327.744 28.2984 327.744 30.0588V94.8083C327.744 95.6804 327.558 96.5439 327.198 97.3496C326.837 98.1553 326.308 98.8873 325.642 99.504C324.975 100.121 324.184 100.61 323.313 100.943C322.442 101.277 321.509 101.449 320.566 101.449H224.423C223.48 101.449 222.547 101.277 221.676 100.943C220.805 100.61 220.014 100.121 219.347 99.504C218.681 98.8873 218.152 98.1553 217.791 97.3496C217.43 96.5439 217.245 95.6804 217.245 94.8083V94.8083ZM224.42 23.9538C222.67 23.9542 220.992 24.5976 219.755 25.7425C218.517 26.8874 217.822 28.4399 217.822 30.0588V94.8083C217.822 96.4283 218.518 97.9818 219.756 99.1273C220.994 100.273 222.674 100.916 224.425 100.916H320.566C322.317 100.916 323.996 100.273 325.235 99.1273C326.473 97.9818 327.168 96.4283 327.168 94.8083V30.0588C327.168 28.4396 326.473 26.8868 325.236 25.7419C323.998 24.597 322.319 23.9538 320.569 23.9538H224.42Z" fill="#292A2E"/>
<path d="M217.533 30.058V35.453H327.455V30.058C327.455 28.3682 326.73 26.7476 325.438 25.5528C324.147 24.3579 322.395 23.6866 320.568 23.6866H224.42C223.515 23.6866 222.62 23.8514 221.784 24.1716C220.949 24.4918 220.189 24.9611 219.55 25.5528C218.91 26.1444 218.403 26.8468 218.057 27.6198C217.711 28.3928 217.533 29.2213 217.533 30.058V30.058Z" fill="#292A2E"/>
<path d="M255.073 44.174H249.886C249.825 44.174 249.767 44.1515 249.723 44.1116C249.68 44.0716 249.656 44.0174 249.656 43.9609C249.656 43.9044 249.68 43.8502 249.723 43.8103C249.767 43.7703 249.825 43.7479 249.886 43.7479H255.073C255.134 43.7479 255.193 43.7703 255.236 43.8103C255.279 43.8502 255.304 43.9044 255.304 43.9609C255.304 44.0174 255.279 44.0716 255.236 44.1116C255.193 44.1515 255.134 44.174 255.073 44.174V44.174Z" fill="#292A2E"/>
<path d="M246.146 44.174H244.183C244.122 44.174 244.063 44.1515 244.02 44.1116C243.977 44.0716 243.953 44.0174 243.953 43.9609C243.953 43.9044 243.977 43.8502 244.02 43.8103C244.063 43.7703 244.122 43.7479 244.183 43.7479H246.146C246.207 43.7479 246.265 43.7703 246.309 43.8103C246.352 43.8502 246.376 43.9044 246.376 43.9609C246.376 44.0174 246.352 44.0716 246.309 44.1116C246.265 44.1515 246.207 44.174 246.146 44.174Z" fill="#367CFF"/>
<path d="M246.146 48.0175H244.183C244.122 48.0175 244.063 47.9951 244.02 47.9551C243.977 47.9152 243.953 47.861 243.953 47.8045C243.953 47.748 243.977 47.6938 244.02 47.6538C244.063 47.6139 244.122 47.5914 244.183 47.5914H246.146C246.207 47.5914 246.265 47.6139 246.309 47.6538C246.352 47.6938 246.376 47.748 246.376 47.8045C246.376 47.861 246.352 47.9152 246.309 47.9551C246.265 47.9951 246.207 48.0175 246.146 48.0175Z" fill="#367CFF"/>
<path d="M246.146 51.8612H244.183C244.122 51.8612 244.063 51.8387 244.02 51.7988C243.977 51.7588 243.953 51.7046 243.953 51.6481C243.953 51.5916 243.977 51.5374 244.02 51.4975C244.063 51.4575 244.122 51.4351 244.183 51.4351H246.146C246.207 51.4351 246.265 51.4575 246.309 51.4975C246.352 51.5374 246.376 51.5916 246.376 51.6481C246.376 51.7046 246.352 51.7588 246.309 51.7988C246.265 51.8387 246.207 51.8612 246.146 51.8612Z" fill="#367CFF"/>
<path d="M246.146 55.7047H244.183C244.122 55.7047 244.063 55.6823 244.02 55.6423C243.977 55.6024 243.953 55.5482 243.953 55.4917C243.953 55.4352 243.977 55.381 244.02 55.341C244.063 55.3011 244.122 55.2786 244.183 55.2786H246.146C246.207 55.2786 246.265 55.3011 246.309 55.341C246.352 55.381 246.376 55.4352 246.376 55.4917C246.376 55.5482 246.352 55.6024 246.309 55.6423C246.265 55.6823 246.207 55.7047 246.146 55.7047Z" fill="#367CFF"/>
<path d="M246.146 59.5483H244.183C244.122 59.5483 244.063 59.5259 244.02 59.4859C243.977 59.4459 243.953 59.3918 243.953 59.3353C243.953 59.2787 243.977 59.2245 244.02 59.1846C244.063 59.1446 244.122 59.1222 244.183 59.1222H246.146C246.207 59.1222 246.265 59.1446 246.309 59.1846C246.352 59.2245 246.376 59.2787 246.376 59.3353C246.376 59.3918 246.352 59.4459 246.309 59.4859C246.265 59.5259 246.207 59.5483 246.146 59.5483Z" fill="#367CFF"/>
<path d="M246.146 63.3919H244.183C244.122 63.3919 244.063 63.3695 244.02 63.3295C243.977 63.2896 243.953 63.2354 243.953 63.1789C243.953 63.1224 243.977 63.0682 244.02 63.0282C244.063 62.9883 244.122 62.9658 244.183 62.9658H246.146C246.207 62.9658 246.265 62.9883 246.309 63.0282C246.352 63.0682 246.376 63.1224 246.376 63.1789C246.376 63.2354 246.352 63.2896 246.309 63.3295C246.265 63.3695 246.207 63.3919 246.146 63.3919Z" fill="#367CFF"/>
<path d="M246.146 67.2355H244.183C244.122 67.2355 244.063 67.2131 244.02 67.1731C243.977 67.1331 243.953 67.079 243.953 67.0224C243.953 66.9659 243.977 66.9118 244.02 66.8718C244.063 66.8318 244.122 66.8094 244.183 66.8094H246.146C246.207 66.8094 246.265 66.8318 246.309 66.8718C246.352 66.9118 246.376 66.9659 246.376 67.0224C246.376 67.079 246.352 67.1331 246.309 67.1731C246.265 67.2131 246.207 67.2355 246.146 67.2355Z" fill="#367CFF"/>
<path d="M246.146 71.0791H244.183C244.122 71.0791 244.063 71.0566 244.02 71.0167C243.977 70.9767 243.953 70.9225 243.953 70.866C243.953 70.8095 243.977 70.7553 244.02 70.7154C244.063 70.6754 244.122 70.653 244.183 70.653H246.146C246.207 70.653 246.265 70.6754 246.309 70.7154C246.352 70.7553 246.376 70.8095 246.376 70.866C246.376 70.9225 246.352 70.9767 246.309 71.0167C246.265 71.0566 246.207 71.0791 246.146 71.0791Z" fill="#367CFF"/>
<path d="M246.146 74.9227H244.183C244.122 74.9227 244.063 74.9003 244.02 74.8603C243.977 74.8203 243.953 74.7661 243.953 74.7096C243.953 74.6531 243.977 74.5989 244.02 74.559C244.063 74.519 244.122 74.4966 244.183 74.4966H246.146C246.207 74.4966 246.265 74.519 246.309 74.559C246.352 74.5989 246.376 74.6531 246.376 74.7096C246.376 74.7661 246.352 74.8203 246.309 74.8603C246.265 74.9003 246.207 74.9227 246.146 74.9227Z" fill="#367CFF"/>
<path d="M246.146 78.7663H244.183C244.122 78.7663 244.063 78.7438 244.02 78.7039C243.977 78.6639 243.953 78.6097 243.953 78.5532C243.953 78.4967 243.977 78.4425 244.02 78.4026C244.063 78.3626 244.122 78.3401 244.183 78.3401H246.146C246.207 78.3401 246.265 78.3626 246.309 78.4026C246.352 78.4425 246.376 78.4967 246.376 78.5532C246.376 78.6097 246.352 78.6639 246.309 78.7039C246.265 78.7438 246.207 78.7663 246.146 78.7663Z" fill="#367CFF"/>
<path d="M246.146 82.6098H244.183C244.122 82.6098 244.063 82.5874 244.02 82.5474C243.977 82.5075 243.953 82.4533 243.953 82.3968C243.953 82.3403 243.977 82.2861 244.02 82.2461C244.063 82.2062 244.122 82.1837 244.183 82.1837H246.146C246.207 82.1837 246.265 82.2062 246.309 82.2461C246.352 82.2861 246.376 82.3403 246.376 82.3968C246.376 82.4533 246.352 82.5075 246.309 82.5474C246.265 82.5874 246.207 82.6098 246.146 82.6098Z" fill="#367CFF"/>
<path d="M246.146 86.4535H244.183C244.122 86.4535 244.063 86.431 244.02 86.3911C243.977 86.3511 243.953 86.2969 243.953 86.2404C243.953 86.1839 243.977 86.1297 244.02 86.0897C244.063 86.0498 244.122 86.0273 244.183 86.0273H246.146C246.207 86.0273 246.265 86.0498 246.309 86.0897C246.352 86.1297 246.376 86.1839 246.376 86.2404C246.376 86.2969 246.352 86.3511 246.309 86.3911C246.265 86.431 246.207 86.4535 246.146 86.4535Z" fill="#367CFF"/>
<path d="M246.146 90.297H244.183C244.122 90.297 244.063 90.2746 244.02 90.2346C243.977 90.1947 243.953 90.1405 243.953 90.084C243.953 90.0275 243.977 89.9733 244.02 89.9333C244.063 89.8934 244.122 89.8709 244.183 89.8709H246.146C246.207 89.8709 246.265 89.8934 246.309 89.9333C246.352 89.9733 246.376 90.0275 246.376 90.084C246.376 90.1405 246.352 90.1947 246.309 90.2346C246.265 90.2746 246.207 90.297 246.146 90.297Z" fill="#367CFF"/>
<path d="M246.146 94.141H244.183C244.122 94.141 244.063 94.1186 244.02 94.0786C243.977 94.0387 243.953 93.9845 243.953 93.928C243.953 93.8715 243.977 93.8173 244.02 93.7773C244.063 93.7373 244.122 93.7149 244.183 93.7149H246.146C246.207 93.7149 246.265 93.7373 246.309 93.7773C246.352 93.8173 246.376 93.8715 246.376 93.928C246.376 93.9845 246.352 94.0387 246.309 94.0786C246.265 94.1186 246.207 94.141 246.146 94.141Z" fill="#367CFF"/>
<path d="M259.219 48.0175H254.492C254.431 48.0175 254.373 47.9951 254.33 47.9551C254.286 47.9152 254.262 47.861 254.262 47.8045C254.262 47.748 254.286 47.6938 254.33 47.6538C254.373 47.6139 254.431 47.5914 254.492 47.5914H259.219C259.28 47.5914 259.338 47.6139 259.382 47.6538C259.425 47.6938 259.449 47.748 259.449 47.8045C259.449 47.861 259.425 47.9152 259.382 47.9551C259.338 47.9951 259.28 48.0175 259.219 48.0175V48.0175Z" fill="#292A2E"/>
<path d="M255.073 71.0791H249.886C249.825 71.0791 249.767 71.0566 249.723 71.0167C249.68 70.9767 249.656 70.9225 249.656 70.866C249.656 70.8095 249.68 70.7553 249.723 70.7154C249.767 70.6754 249.825 70.653 249.886 70.653H255.073C255.134 70.653 255.193 70.6754 255.236 70.7154C255.279 70.7553 255.304 70.8095 255.304 70.866C255.304 70.9225 255.279 70.9767 255.236 71.0167C255.193 71.0566 255.134 71.0791 255.073 71.0791V71.0791Z" fill="#292A2E"/>
<path d="M259.219 74.9226H254.492C254.431 74.9226 254.373 74.9002 254.33 74.8602C254.286 74.8203 254.262 74.7661 254.262 74.7096C254.262 74.6531 254.286 74.5989 254.33 74.5589C254.373 74.519 254.431 74.4965 254.492 74.4965H259.219C259.28 74.4965 259.338 74.519 259.382 74.5589C259.425 74.5989 259.449 74.6531 259.449 74.7096C259.449 74.7661 259.425 74.8203 259.382 74.8602C259.338 74.9002 259.28 74.9226 259.219 74.9226V74.9226Z" fill="#292A2E"/>
<path d="M285.934 51.8611H257.717C257.656 51.8611 257.597 51.8387 257.554 51.7987C257.511 51.7588 257.486 51.7046 257.486 51.6481C257.486 51.5915 257.511 51.5374 257.554 51.4974C257.597 51.4574 257.656 51.435 257.717 51.435H285.934C285.995 51.435 286.054 51.4574 286.097 51.4974C286.14 51.5374 286.164 51.5915 286.164 51.6481C286.164 51.7046 286.14 51.7588 286.097 51.7987C286.054 51.8387 285.995 51.8611 285.934 51.8611V51.8611Z" fill="#292A2E"/>
<path d="M310.847 51.8611H290.921C290.86 51.8611 290.801 51.8387 290.758 51.7987C290.715 51.7588 290.691 51.7046 290.691 51.6481C290.691 51.5915 290.715 51.5374 290.758 51.4974C290.801 51.4574 290.86 51.435 290.921 51.435H310.847C310.908 51.435 310.967 51.4574 311.01 51.4974C311.053 51.5374 311.077 51.5915 311.077 51.6481C311.077 51.7046 311.053 51.7588 311.01 51.7987C310.967 51.8387 310.908 51.8611 310.847 51.8611Z" fill="#0CBC8B"/>
<path d="M321.541 51.8611H315.433C315.372 51.8611 315.313 51.8387 315.27 51.7987C315.227 51.7588 315.203 51.7046 315.203 51.6481C315.203 51.5915 315.227 51.5374 315.27 51.4974C315.313 51.4574 315.372 51.435 315.433 51.435H321.541C321.602 51.435 321.66 51.4574 321.703 51.4974C321.747 51.5374 321.771 51.5915 321.771 51.6481C321.771 51.7046 321.747 51.7588 321.703 51.7987C321.66 51.8387 321.602 51.8611 321.541 51.8611Z" fill="#292A2E"/>
<path d="M299.752 59.5483H257.717C257.656 59.5483 257.597 59.5259 257.554 59.4859C257.511 59.4459 257.486 59.3918 257.486 59.3353C257.486 59.2787 257.511 59.2245 257.554 59.1846C257.597 59.1446 257.656 59.1222 257.717 59.1222H299.752C299.813 59.1222 299.872 59.1446 299.915 59.1846C299.958 59.2245 299.983 59.2787 299.983 59.3353C299.983 59.3918 299.958 59.4459 299.915 59.4859C299.872 59.5259 299.813 59.5483 299.752 59.5483V59.5483Z" fill="#292A2E"/>
<path d="M310.847 59.5483H304.739C304.678 59.5483 304.62 59.5259 304.577 59.4859C304.533 59.4459 304.509 59.3918 304.509 59.3353C304.509 59.2787 304.533 59.2245 304.577 59.1846C304.62 59.1446 304.678 59.1222 304.739 59.1222H310.847C310.908 59.1222 310.967 59.1446 311.01 59.1846C311.053 59.2245 311.077 59.2787 311.077 59.3353C311.077 59.3918 311.053 59.4459 311.01 59.4859C310.967 59.5259 310.908 59.5483 310.847 59.5483Z" fill="#367CFF"/>
<path d="M262.904 55.7047H257.717C257.656 55.7047 257.597 55.6823 257.554 55.6423C257.511 55.6024 257.486 55.5482 257.486 55.4917C257.486 55.4352 257.511 55.381 257.554 55.341C257.597 55.3011 257.656 55.2786 257.717 55.2786H262.904C262.965 55.2786 263.023 55.3011 263.066 55.341C263.11 55.381 263.134 55.4352 263.134 55.4917C263.134 55.5482 263.11 55.6024 263.066 55.6423C263.023 55.6823 262.965 55.7047 262.904 55.7047V55.7047Z" fill="#0CBC8B"/>
<path d="M297.029 55.7047H267.891C267.83 55.7047 267.771 55.6823 267.728 55.6423C267.685 55.6024 267.66 55.5482 267.66 55.4917C267.66 55.4352 267.685 55.381 267.728 55.341C267.771 55.3011 267.83 55.2786 267.891 55.2786H297.029C297.09 55.2786 297.148 55.3011 297.192 55.341C297.235 55.381 297.259 55.4352 297.259 55.4917C297.259 55.5482 297.235 55.6024 297.192 55.6423C297.148 55.6823 297.09 55.7047 297.029 55.7047Z" fill="#367CFF"/>
<path d="M321.581 55.7047H302.575C302.513 55.7047 302.455 55.6823 302.412 55.6423C302.368 55.6024 302.344 55.5482 302.344 55.4917C302.344 55.4352 302.368 55.381 302.412 55.341C302.455 55.3011 302.513 55.2786 302.575 55.2786H321.58C321.641 55.2786 321.699 55.3011 321.743 55.341C321.786 55.381 321.81 55.4352 321.81 55.4917C321.81 55.5482 321.786 55.6024 321.743 55.6423C321.699 55.6823 321.641 55.7047 321.58 55.7047H321.581Z" fill="#292A2E"/>
<path d="M285.934 63.3919H257.717C257.656 63.3919 257.597 63.3694 257.554 63.3295C257.511 63.2895 257.486 63.2353 257.486 63.1788C257.486 63.1223 257.511 63.0681 257.554 63.0282C257.597 62.9882 257.656 62.9658 257.717 62.9658H285.934C285.995 62.9658 286.054 62.9882 286.097 63.0282C286.14 63.0681 286.164 63.1223 286.164 63.1788C286.164 63.2353 286.14 63.2895 286.097 63.3295C286.054 63.3694 285.995 63.3919 285.934 63.3919V63.3919Z" fill="#292A2E"/>
<path d="M301.635 63.3919H290.921C290.86 63.3919 290.801 63.3694 290.758 63.3295C290.715 63.2895 290.691 63.2353 290.691 63.1788C290.691 63.1223 290.715 63.0681 290.758 63.0282C290.801 62.9882 290.86 62.9658 290.921 62.9658H301.635C301.696 62.9658 301.755 62.9882 301.798 63.0282C301.841 63.0681 301.865 63.1223 301.865 63.1788C301.865 63.2353 301.841 63.2895 301.798 63.3295C301.755 63.3694 301.696 63.3919 301.635 63.3919Z" fill="#0CBC8B"/>
<path d="M321.541 63.3919H306.221C306.16 63.3919 306.101 63.3694 306.058 63.3295C306.015 63.2895 305.99 63.2353 305.99 63.1788C305.99 63.1223 306.015 63.0681 306.058 63.0282C306.101 62.9882 306.16 62.9658 306.221 62.9658H321.541C321.602 62.9658 321.66 62.9882 321.703 63.0282C321.747 63.0681 321.771 63.1223 321.771 63.1788C321.771 63.2353 321.747 63.2895 321.703 63.3295C321.66 63.3694 321.602 63.3919 321.541 63.3919Z" fill="#292A2E"/>
<path d="M262.904 67.2355H257.717C257.656 67.2355 257.597 67.2131 257.554 67.1731C257.511 67.1331 257.486 67.079 257.486 67.0224C257.486 66.9659 257.511 66.9118 257.554 66.8718C257.597 66.8318 257.656 66.8094 257.717 66.8094H262.904C262.965 66.8094 263.023 66.8318 263.066 66.8718C263.11 66.9118 263.134 66.9659 263.134 67.0224C263.134 67.079 263.11 67.1331 263.066 67.1731C263.023 67.2131 262.965 67.2355 262.904 67.2355V67.2355Z" fill="#367CFF"/>
<path d="M297.029 67.2355H267.891C267.83 67.2355 267.771 67.2131 267.728 67.1731C267.685 67.1331 267.66 67.079 267.66 67.0224C267.66 66.9659 267.685 66.9118 267.728 66.8718C267.771 66.8318 267.83 66.8094 267.891 66.8094H297.029C297.09 66.8094 297.148 66.8318 297.192 66.8718C297.235 66.9118 297.259 66.9659 297.259 67.0224C297.259 67.079 297.235 67.1331 297.192 67.1731C297.148 67.2131 297.09 67.2355 297.029 67.2355Z" fill="#0CBC8B"/>
<path d="M285.013 82.6098H256.795C256.734 82.6098 256.676 82.5874 256.633 82.5474C256.589 82.5075 256.565 82.4533 256.565 82.3968C256.565 82.3403 256.589 82.2861 256.633 82.2461C256.676 82.2062 256.734 82.1837 256.795 82.1837H285.013C285.074 82.1837 285.133 82.2062 285.176 82.2461C285.219 82.2861 285.243 82.3403 285.243 82.3968C285.243 82.4533 285.219 82.5075 285.176 82.5474C285.133 82.5874 285.074 82.6098 285.013 82.6098V82.6098Z" fill="#292A2E"/>
<path d="M309.926 82.6098H290C289.939 82.6098 289.88 82.5874 289.837 82.5474C289.794 82.5075 289.77 82.4533 289.77 82.3968C289.77 82.3403 289.794 82.2861 289.837 82.2461C289.88 82.2062 289.939 82.1837 290 82.1837H309.926C309.987 82.1837 310.046 82.2062 310.089 82.2461C310.132 82.2861 310.156 82.3403 310.156 82.3968C310.156 82.4533 310.132 82.5075 310.089 82.5474C310.046 82.5874 309.987 82.6098 309.926 82.6098Z" fill="#367CFF"/>
<path d="M271.195 78.7663H256.795C256.734 78.7663 256.676 78.7438 256.633 78.7039C256.589 78.6639 256.565 78.6097 256.565 78.5532C256.565 78.4967 256.589 78.4425 256.633 78.4026C256.676 78.3626 256.734 78.3401 256.795 78.3401H271.195C271.256 78.3401 271.314 78.3626 271.357 78.4026C271.401 78.4425 271.425 78.4967 271.425 78.5532C271.425 78.6097 271.401 78.6639 271.357 78.7039C271.314 78.7438 271.256 78.7663 271.195 78.7663V78.7663Z" fill="#0CBC8B"/>
<path d="M296.108 78.7663H276.182C276.121 78.7663 276.062 78.7438 276.019 78.7039C275.976 78.6639 275.951 78.6097 275.951 78.5532C275.951 78.4967 275.976 78.4425 276.019 78.4026C276.062 78.3626 276.121 78.3401 276.182 78.3401H296.108C296.169 78.3401 296.227 78.3626 296.27 78.4026C296.314 78.4425 296.338 78.4967 296.338 78.5532C296.338 78.6097 296.314 78.6639 296.27 78.7039C296.227 78.7438 296.169 78.7663 296.108 78.7663Z" fill="#367CFF"/>
<path d="M320.659 78.7663H301.653C301.592 78.7663 301.534 78.7438 301.49 78.7039C301.447 78.6639 301.423 78.6097 301.423 78.5532C301.423 78.4967 301.447 78.4425 301.49 78.4026C301.534 78.3626 301.592 78.3401 301.653 78.3401H320.659C320.72 78.3401 320.778 78.3626 320.821 78.4026C320.865 78.4425 320.889 78.4967 320.889 78.5532C320.889 78.6097 320.865 78.6639 320.821 78.7039C320.778 78.7438 320.72 78.7663 320.659 78.7663H320.659Z" fill="#292A2E"/>
<path d="M298.831 90.2975H256.795C256.734 90.2975 256.676 90.275 256.633 90.2351C256.589 90.1951 256.565 90.1409 256.565 90.0844C256.565 90.0279 256.589 89.9737 256.633 89.9337C256.676 89.8938 256.734 89.8713 256.795 89.8713H298.831C298.892 89.8713 298.951 89.8938 298.994 89.9337C299.037 89.9737 299.061 90.0279 299.061 90.0844C299.061 90.1409 299.037 90.1951 298.994 90.2351C298.951 90.275 298.892 90.2975 298.831 90.2975V90.2975Z" fill="#367CFF"/>
<path d="M309.926 90.2975H303.818C303.757 90.2975 303.699 90.275 303.655 90.2351C303.612 90.1951 303.588 90.1409 303.588 90.0844C303.588 90.0279 303.612 89.9737 303.655 89.9337C303.699 89.8938 303.757 89.8713 303.818 89.8713H309.926C309.987 89.8713 310.046 89.8938 310.089 89.9337C310.132 89.9737 310.156 90.0279 310.156 90.0844C310.156 90.1409 310.132 90.1951 310.089 90.2351C310.046 90.275 309.987 90.2975 309.926 90.2975Z" fill="#292A2E"/>
<path d="M261.982 86.4538H256.795C256.734 86.4538 256.676 86.4314 256.633 86.3914C256.589 86.3515 256.565 86.2973 256.565 86.2408C256.565 86.1843 256.589 86.1301 256.633 86.0901C256.676 86.0502 256.734 86.0277 256.795 86.0277H261.982C262.043 86.0277 262.102 86.0502 262.145 86.0901C262.188 86.1301 262.213 86.1843 262.213 86.2408C262.213 86.2973 262.188 86.3515 262.145 86.3914C262.102 86.4314 262.043 86.4538 261.982 86.4538V86.4538Z" fill="#367CFF"/>
<path d="M296.108 86.4538H266.969C266.908 86.4538 266.85 86.4314 266.807 86.3914C266.763 86.3515 266.739 86.2973 266.739 86.2408C266.739 86.1843 266.763 86.1301 266.807 86.0901C266.85 86.0502 266.908 86.0277 266.969 86.0277H296.108C296.169 86.0277 296.227 86.0502 296.27 86.0901C296.314 86.1301 296.338 86.1843 296.338 86.2408C296.338 86.2973 296.314 86.3515 296.27 86.3914C296.227 86.4314 296.169 86.4538 296.108 86.4538Z" fill="#292A2E"/>
<path d="M320.659 86.4538H301.653C301.592 86.4538 301.534 86.4314 301.49 86.3914C301.447 86.3515 301.423 86.2973 301.423 86.2408C301.423 86.1843 301.447 86.1301 301.49 86.0901C301.534 86.0502 301.592 86.0277 301.653 86.0277H320.659C320.72 86.0277 320.778 86.0502 320.821 86.0901C320.865 86.1301 320.889 86.1843 320.889 86.2408C320.889 86.2973 320.865 86.3515 320.821 86.3914C320.778 86.4314 320.72 86.4538 320.659 86.4538H320.659Z" fill="#0CBC8B"/>
<path d="M285.013 94.141H256.795C256.734 94.141 256.676 94.1186 256.633 94.0786C256.589 94.0387 256.565 93.9845 256.565 93.928C256.565 93.8715 256.589 93.8173 256.633 93.7773C256.676 93.7373 256.734 93.7149 256.795 93.7149H285.013C285.074 93.7149 285.133 93.7373 285.176 93.7773C285.219 93.8173 285.243 93.8715 285.243 93.928C285.243 93.9845 285.219 94.0387 285.176 94.0786C285.133 94.1186 285.074 94.141 285.013 94.141V94.141Z" fill="#0CBC8B"/>
<path d="M300.714 94.141H290C289.939 94.141 289.88 94.1186 289.837 94.0786C289.794 94.0387 289.77 93.9845 289.77 93.928C289.77 93.8715 289.794 93.8173 289.837 93.7773C289.88 93.7373 289.939 93.7149 290 93.7149H300.714C300.775 93.7149 300.833 93.7373 300.877 93.7773C300.92 93.8173 300.944 93.8715 300.944 93.928C300.944 93.9845 300.92 94.0387 300.877 94.0786C300.833 94.1186 300.775 94.141 300.714 94.141Z" fill="#292A2E"/>
<path d="M320.619 94.141H305.3C305.238 94.141 305.18 94.1186 305.137 94.0786C305.093 94.0387 305.069 93.9845 305.069 93.928C305.069 93.8715 305.093 93.8173 305.137 93.7773C305.18 93.7373 305.238 93.7149 305.3 93.7149H320.619C320.68 93.7149 320.739 93.7373 320.782 93.7773C320.825 93.8173 320.85 93.8715 320.85 93.928C320.85 93.9845 320.825 94.0387 320.782 94.0786C320.739 94.1186 320.68 94.141 320.619 94.141Z" fill="#367CFF"/>
<path d="M241.996 98.2539C241.935 98.2539 241.876 98.2314 241.833 98.1915C241.79 98.1515 241.765 98.0973 241.765 98.0408V37.4643C241.765 37.4078 241.79 37.3536 241.833 37.3136C241.876 37.2737 241.935 37.2512 241.996 37.2512C242.057 37.2512 242.115 37.2737 242.158 37.3136C242.202 37.3536 242.226 37.4078 242.226 37.4643V98.0408C242.226 98.0973 242.202 98.1515 242.158 98.1915C242.115 98.2314 242.057 98.2539 241.996 98.2539Z" fill="#292A2E"/>
<path d="M319.128 33.4149C321.169 33.4149 322.823 31.8845 322.823 29.9966C322.823 28.1087 321.169 26.5782 319.128 26.5782C317.087 26.5782 315.433 28.1087 315.433 29.9966C315.433 31.8845 317.087 33.4149 319.128 33.4149Z" fill="white"/>
<path d="M231.462 40.1258H221.489C221.428 40.1258 221.369 40.1034 221.326 40.0634C221.283 40.0235 221.258 39.9693 221.258 39.9128C221.258 39.8563 221.283 39.8021 221.326 39.7621C221.369 39.7222 221.428 39.6997 221.489 39.6997H231.462C231.523 39.6997 231.582 39.7222 231.625 39.7621C231.668 39.8021 231.692 39.8563 231.692 39.9128C231.692 39.9693 231.668 40.0235 231.625 40.0634C231.582 40.1034 231.523 40.1258 231.462 40.1258Z" fill="#292A2E"/>
<path d="M228.457 44.3282H221.489C221.428 44.3282 221.369 44.3058 221.326 44.2658C221.283 44.2259 221.258 44.1717 221.258 44.1152C221.258 44.0587 221.283 44.0045 221.326 43.9645C221.369 43.9245 221.428 43.9021 221.489 43.9021H228.457C228.518 43.9021 228.577 43.9245 228.62 43.9645C228.663 44.0045 228.688 44.0587 228.688 44.1152C228.688 44.1717 228.663 44.2259 228.62 44.2658C228.577 44.3058 228.518 44.3282 228.457 44.3282V44.3282Z" fill="#292A2E"/>
<path d="M234.586 48.5306H221.489C221.428 48.5306 221.369 48.5082 221.326 48.4682C221.283 48.4283 221.258 48.3741 221.258 48.3176C221.258 48.261 221.283 48.2069 221.326 48.1669C221.369 48.1269 221.428 48.1045 221.489 48.1045H234.586C234.647 48.1045 234.705 48.1269 234.749 48.1669C234.792 48.2069 234.816 48.261 234.816 48.3176C234.816 48.3741 234.792 48.4283 234.749 48.4682C234.705 48.5082 234.647 48.5306 234.586 48.5306V48.5306Z" fill="#292A2E"/>
<path d="M237.03 52.7329H226.095C226.034 52.7329 225.975 52.7105 225.932 52.6705C225.889 52.6306 225.865 52.5764 225.865 52.5199C225.865 52.4634 225.889 52.4092 225.932 52.3692C225.975 52.3293 226.034 52.3068 226.095 52.3068H237.03C237.091 52.3068 237.149 52.3293 237.193 52.3692C237.236 52.4092 237.26 52.4634 237.26 52.5199C237.26 52.5764 237.236 52.6306 237.193 52.6705C237.149 52.7105 237.091 52.7329 237.03 52.7329Z" fill="#292A2E"/>
<path d="M231.742 56.9358H226.095C226.034 56.9358 225.975 56.9133 225.932 56.8734C225.889 56.8334 225.865 56.7792 225.865 56.7227C225.865 56.6662 225.889 56.612 225.932 56.572C225.975 56.5321 226.034 56.5096 226.095 56.5096H231.742C231.803 56.5096 231.862 56.5321 231.905 56.572C231.948 56.612 231.972 56.6662 231.972 56.7227C231.972 56.7792 231.948 56.8334 231.905 56.8734C231.862 56.9133 231.803 56.9358 231.742 56.9358Z" fill="#292A2E"/>
<path d="M236.068 61.1382H226.095C226.034 61.1382 225.975 61.1157 225.932 61.0757C225.889 61.0358 225.865 60.9816 225.865 60.9251C225.865 60.8686 225.889 60.8144 225.932 60.7744C225.975 60.7345 226.034 60.712 226.095 60.712H236.068C236.129 60.712 236.188 60.7345 236.231 60.7744C236.274 60.8144 236.298 60.8686 236.298 60.9251C236.298 60.9816 236.274 61.0358 236.231 61.0757C236.188 61.1157 236.129 61.1382 236.068 61.1382V61.1382Z" fill="#292A2E"/>
<path d="M229.179 65.3405H221.489C221.428 65.3405 221.369 65.3181 221.326 65.2781C221.283 65.2382 221.258 65.184 221.258 65.1275C221.258 65.071 221.283 65.0168 221.326 64.9768C221.369 64.9369 221.428 64.9144 221.489 64.9144H229.179C229.24 64.9144 229.298 64.9369 229.342 64.9768C229.385 65.0168 229.409 65.071 229.409 65.1275C229.409 65.184 229.385 65.2382 229.342 65.2781C229.298 65.3181 229.24 65.3405 229.179 65.3405Z" fill="#292A2E"/>
<path d="M226.535 69.5425H221.489C221.428 69.5425 221.369 69.52 221.326 69.4801C221.283 69.4401 221.258 69.3859 221.258 69.3294C221.258 69.2729 221.283 69.2187 221.326 69.1787C221.369 69.1388 221.428 69.1163 221.489 69.1163H226.535C226.596 69.1163 226.655 69.1388 226.698 69.1787C226.741 69.2187 226.766 69.2729 226.766 69.3294C226.766 69.3859 226.741 69.4401 226.698 69.4801C226.655 69.52 226.596 69.5425 226.535 69.5425V69.5425Z" fill="#292A2E"/>
<path d="M245.833 39.2242V39.3009L248.711 40.2895C248.752 40.305 248.788 40.3316 248.812 40.3657C248.837 40.3999 248.85 40.4402 248.849 40.4812V40.5537C248.85 40.5857 248.842 40.6173 248.826 40.6457C248.81 40.674 248.786 40.6981 248.757 40.7156C248.728 40.7346 248.694 40.7466 248.659 40.7503C248.623 40.754 248.587 40.7494 248.554 40.7369L245.303 39.5608C245.262 39.5458 245.227 39.52 245.203 39.4866C245.178 39.4532 245.165 39.4138 245.165 39.3733V39.156C245.164 39.1155 245.177 39.0758 245.202 39.0423C245.227 39.0088 245.262 38.983 245.303 38.9685L248.554 37.7882C248.581 37.7798 248.609 37.7755 248.637 37.7754C248.68 37.7762 248.721 37.788 248.757 37.8095C248.786 37.8279 248.81 37.8528 248.826 37.8818C248.842 37.9108 248.85 37.9431 248.849 37.9757V38.0481C248.85 38.0888 248.838 38.1287 248.813 38.1623C248.788 38.196 248.753 38.2216 248.711 38.2356L245.833 39.2242Z" fill="#367CFF"/>
<path d="M251.539 36.9189L249.816 41.7979C249.802 41.8386 249.775 41.8742 249.737 41.8994C249.7 41.9247 249.655 41.9384 249.609 41.9385C249.576 41.939 249.543 41.9319 249.513 41.9178C249.483 41.9036 249.458 41.883 249.439 41.8576C249.418 41.8324 249.404 41.8031 249.398 41.7721C249.391 41.741 249.393 41.709 249.402 41.6786L251.124 36.8038C251.139 36.7623 251.167 36.7261 251.205 36.7001C251.243 36.6742 251.289 36.6598 251.336 36.6589C251.37 36.6588 251.403 36.6661 251.432 36.6802C251.462 36.6943 251.487 36.7148 251.507 36.7399C251.527 36.7651 251.541 36.7945 251.547 36.8257C251.552 36.8569 251.55 36.8889 251.539 36.9189V36.9189Z" fill="#367CFF"/>
<path d="M255.769 39.156V39.3733C255.77 39.4133 255.757 39.4526 255.734 39.4861C255.71 39.5195 255.676 39.5455 255.636 39.5608L252.379 40.7369C252.347 40.7492 252.312 40.7538 252.277 40.7501C252.242 40.7463 252.209 40.7345 252.181 40.7156C252.152 40.6982 252.127 40.6743 252.11 40.646C252.093 40.6177 252.085 40.586 252.084 40.5536V40.4812C252.084 40.4395 252.097 40.3988 252.123 40.3645C252.149 40.3302 252.185 40.304 252.227 40.2894L255.106 39.3008V39.2241L252.227 38.2356C252.185 38.2225 252.148 38.1973 252.122 38.1636C252.097 38.1298 252.083 38.0893 252.084 38.0481V37.9756C252.084 37.9427 252.093 37.9103 252.11 37.8813C252.127 37.8524 252.151 37.8277 252.181 37.8094C252.217 37.788 252.258 37.7762 252.301 37.7753C252.328 37.7751 252.354 37.7794 252.379 37.7881L255.636 38.9685C255.676 38.9832 255.711 39.0092 255.734 39.0427C255.758 39.0763 255.77 39.1158 255.769 39.156Z" fill="#367CFF"/>
<path d="M190.646 0H28.4081V150.09H190.646V0Z" fill="#F4F4F4"/>
<path d="M28.4081 0H26.5486V150.09H28.4081V0Z" fill="#F4F4F4"/>
<path opacity="0.05" d="M28.4081 0H26.5486V150.09H28.4081V0Z" fill="#292A2E"/>
<path opacity="0.05" d="M67.711 103.424V64.1555H102.482V86.9699H156.341V127.365H179.232V150.09H156.341H151.931H36.2127V103.424H67.711Z" fill="#292A2E"/>
<path opacity="0.34" d="M98.0182 68.4193H72.698V72.683H98.0182V68.4193Z" fill="#FFFFFA"/>
<path opacity="0.34" d="M98.0182 77.2544H72.698V81.5181H98.0182V77.2544Z" fill="#FFFFFA"/>
<path opacity="0.34" d="M98.0182 86.0895H72.698V90.3533H98.0182V86.0895Z" fill="#FFFFFA"/>
<path opacity="0.34" d="M45.3691 107.562H40.7022V111.826H45.3691V107.562Z" fill="#FFFFFA"/>
<path opacity="0.34" d="M45.3691 116.398H40.7022V120.661H45.3691V116.398Z" fill="#FFFFFA"/>
<path opacity="0.34" d="M45.3691 125.233H40.7022V129.497H45.3691V125.233Z" fill="#FFFFFA"/>
<path opacity="0.34" d="M54.0028 107.562H49.3359V111.826H54.0028V107.562Z" fill="#FFFFFA"/>
<path opacity="0.34" d="M54.0028 116.398H49.3359V120.661H54.0028V116.398Z" fill="#FFFFFA"/>
<path opacity="0.34" d="M54.0028 125.233H49.3359V129.497H54.0028V125.233Z" fill="#FFFFFA"/>
<path opacity="0.34" d="M62.4034 107.562H57.7365V111.826H62.4034V107.562Z" fill="#FFFFFA"/>
<path opacity="0.34" d="M62.4034 116.398H57.7365V120.661H62.4034V116.398Z" fill="#FFFFFA"/>
<path opacity="0.34" d="M62.4034 125.233H57.7365V129.497H62.4034V125.233Z" fill="#FFFFFA"/>
<path d="M28.4081 74.203H61.0533V0H63.753V74.203H151.931V0H154.63V74.203H190.646V76.7005H154.63V150.09H151.931V76.7005H63.753V150.09H61.0533V76.7005H28.4081V74.203Z" fill="white"/>
<path d="M197.11 149.908H21.9453V154.9H197.11V149.908Z" fill="#F4F4F4"/>
<path opacity="0.1" d="M197.11 149.908H21.9453V154.9H197.11V149.908Z" fill="#292A2E"/>
<path opacity="0.1" d="M21.9453 149.908H19.4161V154.9H21.9453V149.908Z" fill="#292A2E"/>
<path opacity="0.1" d="M21.9453 149.908H19.4161V154.9H21.9453V149.908Z" fill="#292A2E"/>
<path d="M26.5486 6.39008L190.646 6.39008V2.67901L26.5486 2.67901V6.39008Z" fill="white"/>
<path d="M26.5486 13.3221L190.646 13.3221V9.61108L26.5486 9.61108V13.3221Z" fill="white"/>
<path d="M26.5486 20.2538L190.646 20.2538V16.5428L26.5486 16.5428V20.2538Z" fill="white"/>
<path d="M26.5486 27.1855L190.646 27.1855V23.4744L26.5486 23.4744V27.1855Z" fill="white"/>
<path d="M26.5486 34.1168L190.646 34.1168V30.4057L26.5486 30.4057V34.1168Z" fill="white"/>
<path d="M43.9776 38.3025H46.4368L46.4368 -7.62939e-06H43.9776L43.9776 38.3025Z" fill="white"/>
<path d="M44.9988 43.8033C46.8647 43.8033 48.3774 42.4039 48.3774 40.6777C48.3774 38.9515 46.8647 37.5521 44.9988 37.5521C43.1329 37.5521 41.6202 38.9515 41.6202 40.6777C41.6202 42.4039 43.1329 43.8033 44.9988 43.8033Z" fill="white"/>
<path d="M27.9811 358.713L27.0765 358.552L41.2154 228.573L42.12 228.734L27.9811 358.713Z" fill="#494949"/>
<path d="M80.6279 358.713L79.7233 358.552L93.8617 228.573L94.7663 228.734L80.6279 358.713Z" fill="#494949"/>
<path d="M197 358.713L197.905 358.552L183.766 228.573L182.861 228.734L197 358.713Z" fill="#494949"/>
<path d="M144.353 358.713L145.258 358.552L131.119 228.573L130.215 228.734L144.353 358.713Z" fill="#494949"/>
<path d="M125.603 171.369L124.69 171.481L132.95 228.711L133.863 228.598L125.603 171.369Z" fill="#494949"/>
<path d="M30.7984 171.368L29.8853 171.481L38.1449 228.71L39.0581 228.597L30.7984 171.368Z" fill="#494949"/>
<path d="M133.783 224.463H41.0532C38.5513 224.463 36.5231 226.339 36.5231 228.653V228.654C36.5231 230.968 38.5513 232.845 41.0532 232.845H133.783C136.285 232.845 138.313 230.968 138.313 228.654V228.653C138.313 226.339 136.285 224.463 133.783 224.463Z" fill="#292A2E"/>
<path opacity="0.8" d="M133.783 224.463H41.0532C38.5513 224.463 36.5231 226.339 36.5231 228.653V228.654C36.5231 230.968 38.5513 232.845 41.0532 232.845H133.783C136.285 232.845 138.313 230.968 138.313 228.654V228.653C138.313 226.339 136.285 224.463 133.783 224.463Z" fill="white"/>
<path d="M133.783 233.27H41.0537C40.3983 233.27 39.7493 233.151 39.1438 232.919C38.5383 232.687 37.9881 232.347 37.5247 231.918C37.0613 231.489 36.6937 230.98 36.4429 230.42C36.192 229.86 36.063 229.26 36.063 228.653C36.063 228.047 36.192 227.447 36.4429 226.887C36.6937 226.326 37.0613 225.817 37.5247 225.389C37.9881 224.96 38.5383 224.62 39.1438 224.388C39.7493 224.156 40.3983 224.036 41.0537 224.036H133.783C134.439 224.036 135.088 224.156 135.693 224.388C136.299 224.62 136.849 224.96 137.312 225.389C137.776 225.817 138.143 226.326 138.394 226.887C138.645 227.447 138.774 228.047 138.774 228.653C138.774 229.26 138.645 229.86 138.394 230.42C138.143 230.98 137.776 231.489 137.312 231.918C136.849 232.347 136.299 232.687 135.693 232.919C135.088 233.151 134.439 233.27 133.783 233.27V233.27ZM41.0537 224.889C40.5193 224.889 39.9901 224.986 39.4963 225.175C39.0026 225.364 38.554 225.642 38.1761 225.991C37.7982 226.341 37.4985 226.756 37.2939 227.213C37.0894 227.669 36.9842 228.159 36.9842 228.653C36.9842 229.148 37.0894 229.637 37.2939 230.094C37.4985 230.551 37.7982 230.966 38.1761 231.316C38.554 231.665 39.0026 231.942 39.4963 232.132C39.9901 232.321 40.5193 232.418 41.0537 232.418H133.783C134.318 232.418 134.847 232.321 135.34 232.132C135.834 231.942 136.283 231.665 136.661 231.316C137.039 230.966 137.338 230.551 137.543 230.094C137.747 229.637 137.853 229.148 137.853 228.653C137.853 228.159 137.747 227.669 137.543 227.213C137.338 226.756 137.039 226.341 136.661 225.991C136.283 225.642 135.834 225.364 135.34 225.175C134.847 224.986 134.318 224.889 133.783 224.889H41.0537Z" fill="#292A2E"/>
<path d="M184.679 224.463H91.9488C89.4469 224.463 87.4187 226.339 87.4187 228.653V228.654C87.4187 230.968 89.4469 232.845 91.9488 232.845H184.679C187.181 232.845 189.209 230.968 189.209 228.654V228.653C189.209 226.339 187.181 224.463 184.679 224.463Z" fill="white"/>
<path d="M184.679 233.27H91.9488C91.2934 233.27 90.6444 233.151 90.0389 232.919C89.4334 232.687 88.8832 232.347 88.4198 231.918C87.9564 231.489 87.5888 230.98 87.338 230.42C87.0872 229.86 86.9581 229.26 86.9581 228.653C86.9581 228.047 87.0872 227.447 87.338 226.887C87.5888 226.326 87.9564 225.817 88.4198 225.389C88.8832 224.96 89.4334 224.62 90.0389 224.388C90.6444 224.156 91.2934 224.036 91.9488 224.036H184.679C185.334 224.036 185.983 224.156 186.589 224.388C187.194 224.62 187.744 224.96 188.208 225.389C188.671 225.817 189.039 226.326 189.29 226.887C189.54 227.447 189.669 228.047 189.669 228.653C189.669 229.26 189.54 229.86 189.29 230.42C189.039 230.98 188.671 231.489 188.208 231.918C187.744 232.347 187.194 232.687 186.589 232.919C185.983 233.151 185.334 233.27 184.679 233.27V233.27ZM91.9488 224.889C91.4144 224.889 90.8852 224.986 90.3915 225.175C89.8977 225.364 89.4491 225.642 89.0712 225.991C88.6933 226.341 88.3936 226.756 88.1891 227.213C87.9845 227.669 87.8793 228.159 87.8793 228.653C87.8793 229.148 87.9845 229.637 88.1891 230.094C88.3936 230.551 88.6933 230.966 89.0712 231.316C89.4491 231.665 89.8977 231.942 90.3915 232.132C90.8852 232.321 91.4144 232.418 91.9488 232.418H184.679C185.213 232.418 185.742 232.321 186.236 232.132C186.73 231.942 187.178 231.665 187.556 231.316C187.934 230.966 188.234 230.551 188.438 230.094C188.643 229.637 188.748 229.148 188.748 228.653C188.748 228.159 188.643 227.669 188.438 227.213C188.234 226.756 187.934 226.341 187.556 225.991C187.178 225.642 186.73 225.364 186.236 225.175C185.742 224.986 185.213 224.889 184.679 224.889H91.9488Z" fill="#292A2E"/>
<path d="M120.523 171.424H30.5905C29.1201 171.424 27.6999 170.929 26.5951 170.031C25.4903 169.134 24.7763 167.895 24.5864 166.546L18.6376 124.284C18.5265 123.494 18.5987 122.691 18.8497 121.929C19.1006 121.167 19.5243 120.463 20.0927 119.864C20.661 119.266 21.3609 118.786 22.1455 118.458C22.9301 118.129 23.7814 117.959 24.6426 117.959H114.574C116.045 117.959 117.465 118.454 118.57 119.352C119.674 120.25 120.388 121.488 120.578 122.837L126.527 165.1C126.638 165.89 126.566 166.692 126.315 167.454C126.064 168.217 125.641 168.92 125.072 169.519C124.504 170.118 123.804 170.597 123.02 170.926C122.235 171.254 121.384 171.424 120.523 171.424V171.424Z" fill="#292A2E"/>
<path opacity="0.8" d="M120.523 171.424H30.5905C29.1201 171.424 27.6999 170.929 26.5951 170.031C25.4903 169.134 24.7763 167.895 24.5864 166.546L18.6376 124.284C18.5265 123.494 18.5987 122.691 18.8497 121.929C19.1006 121.167 19.5243 120.463 20.0927 119.864C20.661 119.266 21.3609 118.786 22.1455 118.458C22.9301 118.129 23.7814 117.959 24.6426 117.959H114.574C116.045 117.959 117.465 118.454 118.57 119.352C119.674 120.25 120.388 121.488 120.578 122.837L126.527 165.1C126.638 165.89 126.566 166.692 126.315 167.454C126.064 168.217 125.641 168.92 125.072 169.519C124.504 170.118 123.804 170.597 123.02 170.926C122.235 171.254 121.384 171.424 120.523 171.424V171.424Z" fill="white"/>
<path d="M120.523 171.85H30.5905C29.0092 171.847 27.4828 171.313 26.2947 170.348C25.1065 169.382 24.3372 168.051 24.1295 166.601L18.1812 124.339C18.0614 123.489 18.1391 122.625 18.409 121.804C18.6789 120.984 19.1349 120.227 19.7465 119.583C20.358 118.938 21.1111 118.422 21.9554 118.069C22.7997 117.715 23.7159 117.533 24.6426 117.533H114.574C116.156 117.536 117.682 118.07 118.87 119.035C120.058 120.001 120.827 121.332 121.035 122.782L126.984 165.045C127.103 165.895 127.026 166.759 126.756 167.579C126.486 168.399 126.03 169.156 125.418 169.8C124.807 170.444 124.054 170.96 123.21 171.314C122.366 171.667 121.45 171.85 120.523 171.85V171.85ZM24.6426 118.385C23.847 118.385 23.0606 118.542 22.3358 118.846C21.611 119.149 20.9645 119.592 20.4395 120.145C19.9145 120.698 19.5231 121.349 19.2913 122.053C19.0595 122.757 18.9928 123.499 19.0955 124.228L25.0443 166.491C25.2225 167.736 25.8829 168.879 26.903 169.708C27.9232 170.537 29.2337 170.995 30.5914 170.998H120.523C121.319 170.998 122.105 170.841 122.83 170.537C123.554 170.233 124.2 169.79 124.725 169.237C125.25 168.684 125.642 168.034 125.873 167.33C126.105 166.626 126.172 165.884 126.069 165.155L120.121 122.893C119.943 121.647 119.283 120.504 118.263 119.676C117.243 118.847 115.932 118.388 114.574 118.386L24.6426 118.385Z" fill="#292A2E"/>
<path d="M125.608 171.424H35.6756C34.2053 171.424 32.7852 170.929 31.6805 170.031C30.5757 169.134 29.8618 167.895 29.672 166.546L23.7214 124.284C23.6102 123.494 23.6825 122.691 23.9333 121.929C24.1842 121.167 24.6079 120.463 25.1761 119.864C25.7444 119.266 26.4441 118.786 27.2286 118.458C28.0131 118.129 28.8643 117.959 29.7254 117.959H119.66C121.13 117.959 122.55 118.454 123.655 119.352C124.76 120.249 125.474 121.488 125.664 122.837L131.612 165.1C131.723 165.89 131.651 166.692 131.4 167.454C131.15 168.217 130.726 168.92 130.158 169.519C129.589 170.117 128.89 170.597 128.105 170.926C127.321 171.254 126.469 171.424 125.608 171.424V171.424Z" fill="white"/>
<path d="M125.608 171.85H35.6756C34.0944 171.847 32.5681 171.313 31.38 170.348C30.1919 169.382 29.4227 168.051 29.2151 166.601L23.2663 124.339C23.1467 123.489 23.2245 122.625 23.4944 121.805C23.7644 120.985 24.2203 120.227 24.8318 119.583C25.4433 118.939 26.1962 118.423 27.0404 118.069C27.8846 117.716 28.8006 117.533 29.7273 117.533H119.66C121.241 117.536 122.767 118.07 123.955 119.035C125.143 120.001 125.913 121.332 126.12 122.782L132.069 165.045C132.189 165.895 132.111 166.759 131.841 167.579C131.571 168.399 131.115 169.156 130.504 169.8C129.892 170.444 129.139 170.96 128.295 171.314C127.451 171.667 126.535 171.85 125.608 171.85V171.85ZM29.7273 118.385C28.9318 118.385 28.1456 118.543 27.421 118.846C26.6964 119.15 26.0502 119.593 25.5254 120.146C25.0006 120.699 24.6093 121.349 24.3777 122.053C24.146 122.757 24.0793 123.499 24.182 124.229L30.1285 166.491C30.3069 167.736 30.9674 168.879 31.9875 169.708C33.0075 170.537 34.318 170.995 35.6756 170.998H125.608C126.404 170.998 127.19 170.841 127.915 170.537C128.64 170.234 129.286 169.791 129.811 169.238C130.336 168.685 130.728 168.034 130.96 167.33C131.191 166.626 131.258 165.884 131.155 165.155L125.207 122.893C125.028 121.647 124.368 120.504 123.348 119.675C122.328 118.847 121.017 118.388 119.66 118.386L29.7273 118.385Z" fill="#292A2E"/>
<path d="M195.516 181.073L194.599 181.159L214.017 358.999L214.934 358.914L195.516 181.073Z" fill="#494949"/>
<path d="M115.917 53.0786C115.917 53.0786 121.893 48.9056 123.373 39.3001C124.52 31.863 117.104 36.6812 117.104 36.6812C117.104 36.6812 117.873 31.3185 113.649 31.8507C109.426 32.3829 107.063 38.0162 107.063 38.0162" fill="#0C0C0C"/>
<path d="M91.8216 32.4783C91.8216 32.4783 70.8662 34.5582 78.4418 60.8259L80.2962 60.9409L84.0603 61.1744" fill="#0C0C0C"/>
<path d="M112.407 88.2602C112.315 88.2491 111.292 103.941 91.5844 102.575C77.9411 101.629 73.0766 88.238 72.7639 88.238C74.2351 87.9491 76.0526 87.5098 76.7753 87.3594C78.3498 87.0212 79.7757 86.2476 80.8632 85.1415C81.9508 84.0353 82.6486 82.649 82.8637 81.167C83.263 78.9427 82.5873 67.5619 82.7941 65.3112L103.737 69.6354C103.444 74.3892 101.396 85.409 108.573 87.3594C109.769 87.6819 111.056 87.9785 112.407 88.2602Z" fill="#E98862"/>
<path opacity="0.52" d="M104.031 82.8558C103.703 81.8777 103.492 80.8693 103.401 79.8487C103.171 77.5197 103.217 75.1744 103.539 72.8548C99.2825 72.3234 95.2724 70.6981 91.9644 68.1636C91.5757 69.4923 89.437 75.2977 90.0299 76.5603C91.1468 78.9474 96.4056 82.8558 104.031 82.8558Z" fill="#0C0C0C"/>
<path d="M99.7086 79.7498C91.4462 79.0642 81.5574 74.235 81.415 63.8594L81.2861 54.4976C81.1437 44.1225 86.9184 35.6423 97.4783 35.5178C108.038 35.3938 116.046 43.7117 116.189 54.0872L116.246 58.2317C116.239 59.6551 116.126 61.0763 115.91 62.4856C115.368 66.2141 114.528 71.8828 111.794 75.7174C109.211 79.3377 104.987 80.1874 99.7086 79.7498Z" fill="#E98862"/>
<path d="M103.542 70.2669C105.247 70.3384 106.946 70.0382 108.503 69.3904C108.535 69.3777 108.564 69.3593 108.588 69.3361C108.613 69.313 108.632 69.2856 108.645 69.2556C108.658 69.2256 108.665 69.1935 108.664 69.1611C108.664 69.1287 108.657 69.0967 108.643 69.067C108.629 69.0372 108.609 69.0102 108.584 68.9876C108.559 68.9649 108.53 68.9471 108.497 68.935C108.465 68.9229 108.43 68.9169 108.395 68.9173C108.36 68.9176 108.326 68.9243 108.293 68.937C104.94 70.2601 101.895 70.0662 99.488 68.3767C99.4395 68.341 99.3889 68.3079 99.3365 68.2774C99.276 68.2515 99.2072 68.2474 99.1436 68.2661C99.0801 68.2848 99.0264 68.3248 98.9931 68.3783C98.9599 68.4317 98.9495 68.4948 98.964 68.555C98.9786 68.6152 99.0169 68.6682 99.0716 68.7035C99.091 68.7146 99.1218 68.7372 99.1637 68.7683C100.429 69.6598 101.954 70.1816 103.542 70.2669V70.2669Z" fill="#0C0C0C"/>
<path d="M103.462 72.6034C103.77 72.6209 104.079 72.6141 104.386 72.5829C104.456 72.576 104.521 72.5436 104.565 72.4928C104.61 72.4419 104.63 72.3769 104.623 72.3119C104.615 72.2469 104.58 72.1873 104.525 72.1463C104.471 72.1052 104.4 72.086 104.33 72.0929C102.484 72.2744 101.604 71.4921 101.566 71.4584C101.516 71.4121 101.449 71.3861 101.378 71.386C101.307 71.3859 101.24 71.4118 101.19 71.458C101.139 71.5041 101.111 71.5668 101.111 71.6322C101.111 71.6975 101.139 71.7602 101.189 71.8065C101.824 72.3071 102.628 72.5887 103.462 72.6034V72.6034Z" fill="#0C0C0C"/>
<path d="M112.702 60.2267C113.42 60.2267 114.002 59.688 114.002 59.0234C114.002 58.3588 113.42 57.82 112.702 57.82C111.983 57.82 111.401 58.3588 111.401 59.0234C111.401 59.688 111.983 60.2267 112.702 60.2267Z" fill="#0C0C0C"/>
<path d="M99.9942 59.4891C100.713 59.4891 101.295 58.9504 101.295 58.2858C101.295 57.6212 100.713 57.0824 99.9942 57.0824C99.2758 57.0824 98.6935 57.6212 98.6935 58.2858C98.6935 58.9504 99.2758 59.4891 99.9942 59.4891Z" fill="#0C0C0C"/>
<path d="M82.1143 67.0127C78.9052 67.0506 76.2604 63.905 76.2185 60.9362C76.1765 57.9675 78.7564 56.2996 81.9655 56.2621L83.6462 58.2317L84.8724 66.9803L82.1143 67.0127Z" fill="#E98862"/>
<path d="M85.3049 62.2423C85.3049 62.2423 86.3887 47.5612 91.2007 46.6544C94.4056 46.0506 102.177 50.2564 109.376 48.9862C112.526 48.4322 115.515 49.1515 115.819 50.5279C115.94 51.0729 117.902 43.2412 112.97 37.2994C109.043 32.5674 96.1933 31.2315 90.3472 32.7826C74.16 37.0787 81.3031 56.9081 81.3031 56.9081L82.0249 61.9696L85.3049 62.2423Z" fill="#0C0C0C"/>
<path d="M105.48 66.8013H105.5C106.534 66.7915 108.268 66.6688 108.261 65.9529C108.254 65.3598 106.43 58.9753 106.221 58.2492C106.201 58.1889 106.157 58.1381 106.097 58.1074C106.038 58.0768 105.968 58.0687 105.902 58.0849C105.836 58.101 105.779 58.1402 105.744 58.1941C105.709 58.248 105.697 58.3125 105.712 58.374C106.522 61.2017 107.729 65.5549 107.734 65.9589C107.634 66.1294 106.566 66.3049 105.495 66.3151C105.428 66.3165 105.363 66.3418 105.315 66.3858C105.267 66.4298 105.24 66.4891 105.238 66.5516C105.236 66.614 105.26 66.6748 105.305 66.7214C105.35 66.7679 105.412 66.7967 105.48 66.8018V66.8013Z" fill="#0C0C0C"/>
<path d="M109.01 52.4978C110.097 52.221 111.244 52.221 112.331 52.4978C112.865 52.6305 113.374 52.8368 113.842 53.1097C114.304 53.3768 114.728 53.697 115.103 54.0625C115.175 54.127 115.217 54.215 115.22 54.3076C115.222 54.4003 115.186 54.4902 115.118 54.5582C115.049 54.6261 114.955 54.6667 114.855 54.6712C114.755 54.6758 114.657 54.6439 114.582 54.5824L114.559 54.5636C114.211 54.2659 113.824 54.0098 113.407 53.8013C112.998 53.594 112.558 53.4452 112.1 53.3598C111.2 53.1852 110.267 53.2336 109.393 53.5L109.357 53.5119C109.212 53.5591 109.054 53.5513 108.916 53.4904C108.778 53.4294 108.672 53.3203 108.621 53.187C108.57 53.0537 108.579 52.9072 108.645 52.7796C108.71 52.652 108.828 52.5539 108.972 52.5067L109.01 52.4978Z" fill="#0C0C0C"/>
<path d="M101.314 53.1024C100.487 52.7307 99.5685 52.5676 98.6515 52.6299C98.1861 52.6579 97.728 52.751 97.2927 52.906C96.8502 53.0614 96.4306 53.2676 96.0435 53.5196L96.0187 53.535C95.9356 53.5842 95.8352 53.602 95.7383 53.5845C95.6414 53.5671 95.5556 53.5158 95.4985 53.4413C95.4415 53.3668 95.4176 53.2748 95.432 53.1845C95.4463 53.0942 95.4978 53.0125 95.5756 52.9563C96.0004 52.6402 96.4667 52.3751 96.9634 52.1671C97.4662 51.9547 98.0006 51.8131 98.5488 51.747C99.6658 51.606 100.803 51.7471 101.841 52.1552C101.981 52.2117 102.092 52.3175 102.148 52.4494C102.204 52.5812 102.201 52.7283 102.14 52.8583C102.079 52.9882 101.965 53.0904 101.822 53.1424C101.68 53.1943 101.521 53.1918 101.38 53.1353L101.348 53.1212L101.314 53.1024Z" fill="#0C0C0C"/>
<path d="M107.463 42.392C109.838 41.9329 111.172 38.9388 110.441 35.7045C109.711 32.4701 107.193 30.2204 104.818 30.6795C102.442 31.1386 101.109 34.1327 101.839 37.3671C102.57 40.6014 105.088 42.8511 107.463 42.392Z" fill="#0C0C0C"/>
<path d="M239.941 336.522C239.941 336.522 242.411 348.365 254.397 349.025C266.383 349.685 263.784 358.519 263.784 358.519H217.979V337.348L239.941 336.522Z" fill="#367CFF"/>
<path d="M152.799 329.045C152.799 329.045 149.365 340.68 159.805 346.167C170.246 351.654 163.698 358.519 163.698 358.519L122.597 339.813L132.699 320.816L152.799 329.045Z" fill="#367CFF"/>
<path d="M127.343 325.758L162.003 224.602H99.1762C86.5555 224.602 81.2944 214.701 81.2944 203.026C81.2944 191.351 93.7014 181.117 106.321 181.117H191.115C198.812 181.117 207.443 185.472 211.668 191.425C215.892 197.378 214.75 206.602 211.689 213.136L156.186 337.846" fill="#262626"/>
<path opacity="0.8" d="M127.343 325.758L162.003 224.602H99.1762C86.5555 224.602 81.2944 214.701 81.2944 203.026C81.2944 191.351 93.7014 181.117 106.321 181.117H191.115C198.812 181.117 207.443 185.472 211.668 191.425C215.892 197.378 214.75 206.602 211.689 213.136L156.186 337.846" fill="#0A0A0A"/>
<path d="M215.345 347.521L157.39 224.602L81.2934 224.597C63.4628 223.304 55.2966 214.264 55.5564 202.592C55.8125 191.067 62.1201 179.684 74.5211 179.684H177.086C186.261 179.859 193.48 189.239 196.884 197.123L245.064 339.996" fill="#262626"/>
<path d="M50.3663 179.825C50.3663 179.825 46.9868 200.213 52.3437 211.549C59.0313 225.7 84.1013 224.597 84.1013 224.597L82.6886 179.684L50.3663 179.825Z" fill="#262626"/>
<path d="M199.064 179.424L145.311 169.12C143.071 168.691 140.985 167.746 139.244 166.372C137.504 164.999 136.166 163.242 135.355 161.263L114.213 109.723C113.569 108.176 113.262 106.527 113.309 104.87C113.356 103.213 113.757 101.581 114.488 100.068C115.219 98.5545 116.266 97.1898 117.569 96.052C118.872 94.9142 120.405 94.0257 122.08 93.4376C123.755 92.8495 125.539 92.5734 127.33 92.6251C129.121 92.6768 130.883 93.0553 132.515 93.7389C134.147 94.4224 135.617 95.3976 136.841 96.6084C138.065 97.8191 139.018 99.2416 139.645 100.794L158.14 145.877L204.585 154.781C204.585 154.781 199.997 179.603 199.064 179.424Z" fill="#367CFF"/>
<path d="M136.893 122.811C136.273 129.558 131.873 171.649 131.274 179.959H50.4017C49.937 172.464 48.4285 140.642 46.6662 125.986C44.9845 112 44.3742 104.019 46.3115 99.6729C49.7283 92.007 58.2786 89.2488 65.6438 88.3262C70.1407 87.7633 76.9048 87.3594 76.9048 87.3594C76.9048 87.3594 77.4778 98.0775 91.1339 98.6741C109.724 99.4837 108.482 87.3594 108.574 87.3594C111.586 87.3594 127.979 89.3856 132.078 91.8571C137.868 95.3482 139.579 100.105 139.646 104.476C139.724 109.509 137.597 115.16 136.893 122.811Z" fill="#367CFF"/>
<path d="M133.715 157.204H133.696C133.665 157.202 133.636 157.194 133.609 157.181C133.582 157.168 133.558 157.151 133.539 157.129C133.519 157.108 133.504 157.083 133.495 157.057C133.486 157.03 133.483 157.002 133.485 156.974L135.585 133.642C135.586 133.614 135.594 133.587 135.608 133.561C135.621 133.536 135.64 133.514 135.664 133.496C135.687 133.477 135.714 133.464 135.743 133.455C135.772 133.447 135.803 133.444 135.833 133.448C135.863 133.45 135.892 133.458 135.919 133.47C135.946 133.483 135.97 133.501 135.99 133.522C136.009 133.544 136.024 133.568 136.033 133.595C136.042 133.622 136.046 133.65 136.043 133.678L133.944 157.009C133.939 157.062 133.913 157.112 133.87 157.148C133.828 157.184 133.773 157.204 133.715 157.204Z" fill="#0C0C0C"/>
<path d="M172.231 171.207L189.975 120.744C190.287 119.858 190.894 119.085 191.71 118.537C192.525 117.989 193.507 117.694 194.515 117.694H271.415C272.169 117.694 272.912 117.859 273.583 118.175C274.255 118.492 274.836 118.951 275.278 119.515C275.721 120.079 276.013 120.732 276.131 121.421C276.249 122.11 276.189 122.814 275.955 123.477L253.605 173.942C253.293 174.828 252.686 175.601 251.87 176.149C251.055 176.697 250.073 176.992 249.065 176.992H176.771C176.017 176.992 175.274 176.827 174.602 176.511C173.931 176.194 173.35 175.735 172.907 175.17C172.464 174.606 172.172 173.953 172.054 173.264C171.937 172.575 171.997 171.87 172.231 171.207Z" fill="#292A2E"/>
<path d="M172.231 171.207L189.975 120.744C190.287 119.858 190.894 119.085 191.71 118.537C192.525 117.989 193.507 117.694 194.515 117.694H271.415C272.169 117.694 272.912 117.859 273.583 118.175C274.255 118.492 274.836 118.951 275.278 119.515C275.721 120.079 276.013 120.732 276.131 121.421C276.249 122.11 276.189 122.814 275.955 123.477L253.605 173.942C253.293 174.828 252.686 175.601 251.87 176.149C251.055 176.697 250.073 176.992 249.065 176.992H176.771C176.017 176.992 175.274 176.827 174.602 176.511C173.931 176.194 173.35 175.735 172.907 175.17C172.464 174.606 172.172 173.953 172.054 173.264C171.937 172.575 171.997 171.87 172.231 171.207Z" fill="#292A2E"/>
<path d="M186.706 172.898H138.312C137.107 172.898 136.129 173.803 136.129 174.918V174.97C136.129 176.086 137.107 176.99 138.312 176.99H186.706C187.912 176.99 188.889 176.086 188.889 174.97V174.918C188.889 173.803 187.912 172.898 186.706 172.898Z" fill="#292A2E"/>
<path d="M186.706 172.898H138.312C137.107 172.898 136.129 173.803 136.129 174.918V174.97C136.129 176.086 137.107 176.99 138.312 176.99H186.706C187.912 176.99 188.889 176.086 188.889 174.97V174.918C188.889 173.803 187.912 172.898 186.706 172.898Z" fill="#292A2E"/>
<path d="M221.79 156.818C225.977 156.818 229.372 153.678 229.372 149.804C229.372 145.93 225.977 142.79 221.79 142.79C217.603 142.79 214.208 145.93 214.208 149.804C214.208 153.678 217.603 156.818 221.79 156.818Z" fill="white"/>
<path d="M168.186 159.386L156.108 155.47L157.842 155.359C158.401 155.313 158.92 155.072 159.295 154.686C159.669 154.299 159.871 153.795 159.859 153.276C159.843 153.008 159.768 152.747 159.639 152.507C159.51 152.267 159.33 152.053 159.109 151.88C158.888 151.707 158.631 151.577 158.354 151.498C158.077 151.42 157.785 151.395 157.497 151.424L136.129 153.524L136.682 159.877C136.854 161.85 137.66 163.731 138.995 165.277C140.33 166.824 142.134 167.967 144.176 168.559L153.43 171.225C153.907 171.373 154.426 171.363 154.896 171.197C155.367 171.031 155.762 170.72 156.013 170.317C156.232 169.947 156.317 169.523 156.257 169.106C156.196 168.689 155.993 168.301 155.678 167.998C155.698 167.985 155.716 167.967 155.729 167.948C155.742 167.928 155.75 167.906 155.754 167.883C155.757 167.86 155.755 167.836 155.749 167.814C155.742 167.792 155.731 167.771 155.715 167.753L157.419 168.247C157.951 168.413 158.531 168.385 159.042 168.17C159.552 167.955 159.956 167.568 160.17 167.088C160.345 166.653 160.349 166.175 160.181 165.737C160.012 165.3 159.682 164.932 159.249 164.697C159.269 164.687 159.287 164.674 159.301 164.658L160.002 164.861C160.48 165.009 160.999 164.999 161.469 164.833C161.94 164.667 162.335 164.356 162.586 163.952C162.851 163.504 162.918 162.979 162.774 162.487C162.63 161.994 162.285 161.573 161.812 161.31C161.816 161.297 161.818 161.284 161.819 161.27L166.848 162.901C167.099 162.985 167.364 163.022 167.63 163.01C167.895 162.998 168.156 162.937 168.396 162.832C168.636 162.726 168.851 162.578 169.029 162.395C169.207 162.212 169.344 161.998 169.432 161.766C169.52 161.534 169.557 161.288 169.542 161.042C169.526 160.797 169.458 160.556 169.342 160.335C169.225 160.114 169.063 159.917 168.863 159.754C168.663 159.591 168.431 159.467 168.179 159.388L168.186 159.386Z" fill="#E98862"/>
<path opacity="0.2" d="M161.628 161.45C161.605 161.45 161.581 161.446 161.559 161.439L156.694 159.802C156.644 159.786 156.604 159.751 156.581 159.706C156.559 159.662 156.557 159.611 156.575 159.564C156.593 159.518 156.631 159.48 156.679 159.46C156.727 159.439 156.783 159.437 156.833 159.454L161.698 161.091C161.742 161.105 161.78 161.134 161.803 161.172C161.827 161.21 161.835 161.254 161.827 161.297C161.819 161.34 161.795 161.379 161.758 161.407C161.722 161.435 161.676 161.45 161.629 161.45H161.628Z" fill="#0A0A0A"/>
<path opacity="0.2" d="M159.168 164.722C159.145 164.722 159.122 164.719 159.101 164.712L155.266 163.453C155.241 163.445 155.217 163.433 155.197 163.417C155.177 163.401 155.16 163.381 155.149 163.359C155.137 163.337 155.13 163.312 155.128 163.288C155.127 163.263 155.131 163.238 155.14 163.215C155.148 163.192 155.162 163.17 155.18 163.152C155.198 163.134 155.22 163.119 155.244 163.109C155.268 163.098 155.295 163.093 155.321 163.092C155.348 163.091 155.375 163.095 155.4 163.104L159.235 164.362C159.279 164.377 159.317 164.406 159.341 164.443C159.364 164.481 159.373 164.525 159.365 164.568C159.357 164.612 159.333 164.651 159.297 164.679C159.261 164.707 159.215 164.722 159.168 164.722V164.722Z" fill="#0A0A0A"/>
<path opacity="0.2" d="M155.557 168.043C155.532 168.043 155.508 168.039 155.485 168.031L153.689 167.397C153.639 167.38 153.599 167.345 153.577 167.3C153.556 167.255 153.554 167.204 153.573 167.158C153.592 167.112 153.63 167.075 153.679 167.055C153.727 167.035 153.782 167.033 153.832 167.051L155.628 167.684C155.672 167.7 155.709 167.729 155.732 167.767C155.755 167.805 155.763 167.849 155.755 167.891C155.746 167.934 155.722 167.973 155.686 168C155.65 168.028 155.604 168.043 155.557 168.043H155.557Z" fill="#0A0A0A"/>
<path d="M145.587 149.765L94.9197 149.733L75.7519 106.477L47.1581 117.599L71.0721 168.937L71.3056 169.449C72.4756 171.944 74.4464 174.046 76.951 175.471C79.4557 176.896 82.3731 177.574 85.3081 177.413L146.352 174.077L145.587 149.765Z" fill="#367CFF"/>
<path d="M84.4694 177.649C81.6289 177.644 78.8514 176.874 76.4763 175.433C74.1013 173.992 72.2315 171.941 71.0956 169.533L70.8616 169.022L50.4828 125.279L50.9057 125.108L71.5179 169.365C72.6746 171.817 74.6149 173.882 77.0778 175.282C79.5408 176.683 82.4083 177.352 85.2948 177.2L146.115 173.877L145.362 149.979L94.7645 149.947L80.0249 116.687L80.4515 116.526L95.0726 149.521L145.809 149.553L146.589 174.278L146.365 174.29L85.3233 177.625C85.0382 177.641 84.7522 177.649 84.4694 177.649Z" fill="#0C0C0C"/>
<path d="M28.1135 181.076L8.68198 358.915L9.59853 359.001L29.03 181.162L28.1135 181.076Z" fill="#494949"/>
<path d="M108.397 181.076L88.9654 358.915L89.882 359.001L109.313 181.162L108.397 181.076Z" fill="#494949"/>
<path d="M275.799 181.073L274.882 181.159L294.3 358.999L295.217 358.914L275.799 181.073Z" fill="#494949"/>
<path d="M293.309 177.625H11.875C9.79052 177.625 8.10074 179.188 8.10074 181.117C8.10074 183.045 9.79052 184.608 11.875 184.608H293.309C295.393 184.608 297.083 183.045 297.083 181.117C297.083 179.188 295.393 177.625 293.309 177.625Z" fill="#292A2E"/>
<path opacity="0.8" d="M293.309 177.625H11.875C9.79052 177.625 8.10074 179.188 8.10074 181.117C8.10074 183.045 9.79052 184.608 11.875 184.608H293.309C295.393 184.608 297.083 183.045 297.083 181.117C297.083 179.188 295.393 177.625 293.309 177.625Z" fill="white"/>
<path d="M293.309 185.034H11.8768C11.317 185.04 10.7616 184.942 10.2427 184.748C9.72381 184.553 9.25175 184.266 8.85382 183.901C8.45589 183.537 8.14 183.103 7.92441 182.625C7.70882 182.147 7.59781 181.635 7.59781 181.117C7.59781 180.599 7.70882 180.086 7.92441 179.608C8.14 179.13 8.45589 178.696 8.85382 178.332C9.25175 177.968 9.72381 177.68 10.2427 177.486C10.7616 177.291 11.317 177.194 11.8768 177.199H293.309C293.869 177.194 294.425 177.291 294.944 177.486C295.462 177.68 295.934 177.968 296.332 178.332C296.73 178.696 297.046 179.13 297.262 179.608C297.477 180.086 297.588 180.599 297.588 181.117C297.588 181.635 297.477 182.147 297.262 182.625C297.046 183.103 296.73 183.537 296.332 183.901C295.934 184.266 295.462 184.553 294.944 184.748C294.425 184.942 293.869 185.04 293.309 185.034ZM11.8768 178.051C11.4384 178.047 11.0033 178.122 10.5968 178.274C10.1903 178.426 9.82036 178.651 9.50852 178.936C9.19667 179.221 8.94909 179.561 8.78011 179.935C8.61114 180.31 8.52413 180.711 8.52413 181.117C8.52413 181.522 8.61114 181.924 8.78011 182.298C8.94909 182.672 9.19667 183.012 9.50852 183.297C9.82036 183.582 10.1903 183.807 10.5968 183.959C11.0033 184.111 11.4384 184.187 11.8768 184.182H293.309C293.748 184.187 294.183 184.111 294.589 183.959C294.996 183.807 295.366 183.582 295.678 183.297C295.99 183.012 296.237 182.672 296.406 182.298C296.575 181.924 296.662 181.522 296.662 181.117C296.662 180.711 296.575 180.31 296.406 179.935C296.237 179.561 295.99 179.221 295.678 178.936C295.366 178.651 294.996 178.426 294.589 178.274C294.183 178.122 293.748 178.047 293.309 178.051H11.8768Z" fill="#292A2E"/>
<path d="M293.309 177.625H95.2274C93.1429 177.625 91.4531 179.188 91.4531 181.117C91.4531 183.045 93.1429 184.608 95.2274 184.608H293.309C295.393 184.608 297.083 183.045 297.083 181.117C297.083 179.188 295.393 177.625 293.309 177.625Z" fill="white"/>
<path d="M293.309 185.034H95.2274C94.1119 185.023 93.0461 184.606 92.2615 183.872C91.4768 183.139 91.0367 182.149 91.0367 181.117C91.0367 180.085 91.4768 179.094 92.2615 178.361C93.0461 177.627 94.1119 177.21 95.2274 177.199H293.309C293.869 177.194 294.425 177.291 294.943 177.486C295.462 177.68 295.934 177.968 296.332 178.332C296.73 178.696 297.046 179.13 297.262 179.608C297.477 180.086 297.588 180.599 297.588 181.117C297.588 181.635 297.477 182.147 297.262 182.625C297.046 183.103 296.73 183.537 296.332 183.901C295.934 184.266 295.462 184.553 294.943 184.748C294.425 184.942 293.869 185.04 293.309 185.034ZM95.2274 178.051C94.3554 178.061 93.5226 178.388 92.9096 178.962C92.2966 179.536 91.9528 180.31 91.9528 181.117C91.9528 181.923 92.2966 182.698 92.9096 183.272C93.5226 183.845 94.3554 184.172 95.2274 184.182H293.309C293.748 184.187 294.183 184.111 294.589 183.959C294.996 183.807 295.366 183.582 295.678 183.297C295.99 183.012 296.237 182.672 296.406 182.298C296.575 181.924 296.662 181.522 296.662 181.117C296.662 180.711 296.575 180.31 296.406 179.935C296.237 179.561 295.99 179.221 295.678 178.936C295.366 178.651 294.996 178.426 294.589 178.274C294.183 178.122 293.748 178.047 293.309 178.051H95.2274Z" fill="#292A2E"/>
<path d="M300.9 302.305C300.84 302.306 300.78 302.295 300.724 302.273C300.668 302.252 300.617 302.22 300.575 302.181C299.926 301.581 298.868 290.565 296.018 257.769C294.852 244.35 293.751 231.675 292.947 223.972C292.89 223.421 292.659 223.358 292.584 223.337C291.484 223.029 288.138 225.47 286.27 227.607C286.194 227.695 286.082 227.751 285.961 227.763C285.839 227.775 285.717 227.742 285.622 227.671C285.527 227.6 285.467 227.497 285.454 227.384C285.441 227.272 285.477 227.159 285.554 227.071C286.789 225.658 290.815 221.954 292.849 222.52C293.259 222.634 293.77 222.964 293.864 223.89C294.669 231.6 295.77 244.278 296.937 257.701C298.668 277.631 300.629 300.209 301.274 301.631C301.324 301.694 301.353 301.77 301.359 301.848C301.366 301.926 301.349 302.004 301.31 302.074C301.271 302.143 301.213 302.202 301.14 302.243C301.068 302.284 300.985 302.305 300.9 302.305V302.305Z" fill="#494949"/>
<path d="M291.764 238.107C299.407 232.439 301.94 223.617 297.422 218.402C292.904 213.187 283.045 213.555 275.402 219.223C267.758 224.891 265.225 233.713 269.743 238.927C274.262 244.142 284.121 243.775 291.764 238.107Z" fill="#0CBC8B"/>
<path opacity="0.2" d="M291.764 238.107C299.407 232.439 301.94 223.617 297.422 218.402C292.904 213.187 283.045 213.555 275.402 219.223C267.758 224.891 265.225 233.713 269.743 238.927C274.262 244.142 284.121 243.775 291.764 238.107Z" fill="white"/>
<path d="M271.886 240.254C271.843 240.254 271.8 240.242 271.763 240.22C271.726 240.199 271.697 240.168 271.678 240.131C271.659 240.095 271.652 240.054 271.658 240.014C271.663 239.974 271.681 239.936 271.709 239.905L293.492 215.604C293.531 215.56 293.587 215.533 293.648 215.527C293.709 215.522 293.769 215.54 293.816 215.576C293.863 215.612 293.893 215.664 293.899 215.72C293.904 215.776 293.885 215.832 293.846 215.876L272.064 240.177C272.042 240.201 272.015 240.22 271.984 240.234C271.954 240.247 271.92 240.254 271.886 240.254V240.254Z" fill="white"/>
<path d="M305.651 297.096C305.577 297.096 305.505 297.08 305.44 297.049C305.374 297.017 305.318 296.972 305.276 296.917C305.233 296.861 305.205 296.797 305.195 296.73C305.185 296.663 305.192 296.594 305.216 296.53L313.399 274.761C313.64 274.122 314.05 273.548 314.593 273.093C315.135 272.639 315.793 272.317 316.504 272.158C317.216 271.999 317.959 272.008 318.666 272.184C319.373 272.359 320.021 272.697 320.551 273.164L324.877 276.987C324.966 277.065 325.017 277.172 325.02 277.285C325.022 277.398 324.977 277.508 324.892 277.589C324.808 277.671 324.692 277.719 324.57 277.721C324.447 277.724 324.329 277.681 324.241 277.603L319.915 273.78C319.497 273.411 318.985 273.145 318.427 273.006C317.869 272.868 317.282 272.861 316.72 272.986C316.158 273.111 315.639 273.365 315.211 273.724C314.783 274.083 314.459 274.536 314.269 275.041L306.087 296.81C306.055 296.894 305.996 296.966 305.918 297.018C305.84 297.069 305.747 297.096 305.651 297.096Z" fill="#494949"/>
<path d="M336.962 289.039C342.626 284.891 342.29 275.768 336.21 268.663C330.131 261.557 320.61 259.16 314.946 263.307C309.281 267.455 309.618 276.578 315.698 283.684C321.777 290.789 331.298 293.187 336.962 289.039Z" fill="#0CBC8B"/>
<path d="M297.185 300.917C297.082 300.917 296.982 300.885 296.9 300.825C296.819 300.766 296.762 300.683 296.738 300.59L283.004 247.477C282.91 247.115 282.71 246.784 282.426 246.52C282.142 246.257 281.785 246.07 281.394 245.982C281.003 245.894 280.594 245.908 280.21 246.021C279.827 246.134 279.485 246.343 279.222 246.624L274.989 251.15C274.949 251.193 274.901 251.228 274.847 251.254C274.793 251.279 274.733 251.295 274.673 251.299C274.612 251.303 274.551 251.296 274.493 251.279C274.435 251.261 274.382 251.233 274.336 251.196C274.29 251.159 274.252 251.114 274.225 251.064C274.198 251.014 274.182 250.959 274.178 250.903C274.174 250.846 274.182 250.79 274.201 250.737C274.221 250.683 274.252 250.634 274.292 250.592L278.525 246.067C278.899 245.667 279.385 245.37 279.93 245.209C280.475 245.048 281.058 245.029 281.613 245.155C282.169 245.28 282.677 245.545 283.08 245.92C283.484 246.295 283.768 246.766 283.901 247.281L297.631 300.394C297.659 300.503 297.639 300.619 297.575 300.715C297.511 300.81 297.409 300.879 297.29 300.905C297.256 300.913 297.221 300.917 297.185 300.917V300.917Z" fill="#494949"/>
<path d="M292.119 262.949C293.788 254.019 289.37 245.857 282.252 244.719C275.133 243.58 268.01 249.895 266.34 258.825C264.671 267.755 269.089 275.917 276.207 277.056C283.326 278.194 290.449 271.879 292.119 262.949Z" fill="#0CBC8B"/>
<path d="M300.901 302.305C300.882 302.305 300.863 302.304 300.844 302.302C300.784 302.296 300.726 302.278 300.673 302.25C300.621 302.223 300.574 302.186 300.537 302.142C300.5 302.098 300.472 302.047 300.456 301.993C300.44 301.939 300.435 301.883 300.443 301.827L309.211 235.968C309.307 235.25 309.624 234.574 310.125 234.019C310.627 233.465 311.29 233.056 312.037 232.842C312.783 232.628 313.58 232.618 314.333 232.813C315.085 233.008 315.76 233.401 316.278 233.942L326.3 244.443C326.381 244.528 326.422 244.639 326.414 244.752C326.406 244.865 326.351 244.97 326.259 245.045C326.168 245.12 326.047 245.158 325.926 245.151C325.804 245.144 325.69 245.092 325.609 245.007L315.587 234.507C315.187 234.088 314.665 233.785 314.084 233.634C313.502 233.483 312.886 233.49 312.309 233.656C311.732 233.821 311.219 234.137 310.832 234.566C310.444 234.994 310.199 235.517 310.125 236.072L301.358 301.931C301.344 302.034 301.29 302.129 301.206 302.198C301.122 302.267 301.013 302.305 300.901 302.305V302.305Z" fill="#494949"/>
<path d="M336.579 250.279C340.075 244.431 335.961 236.134 327.389 231.748C318.818 227.361 309.034 228.546 305.538 234.394C302.041 240.242 306.155 248.539 314.727 252.926C323.299 257.312 333.082 256.127 336.579 250.279Z" fill="#0CBC8B"/>
<path opacity="0.2" d="M336.962 289.039C342.626 284.891 342.29 275.768 336.21 268.663C330.131 261.557 320.61 259.16 314.946 263.307C309.281 267.455 309.618 276.578 315.698 283.684C321.777 290.789 331.298 293.187 336.962 289.039Z" fill="white"/>
<path opacity="0.5" d="M292.119 262.949C293.788 254.019 289.37 245.857 282.252 244.719C275.133 243.58 268.01 249.895 266.34 258.825C264.671 267.755 269.089 275.917 276.207 277.056C283.326 278.194 290.449 271.879 292.119 262.949Z" fill="white"/>
<path opacity="0.5" d="M336.579 250.279C340.075 244.431 335.961 236.134 327.389 231.748C318.818 227.361 309.034 228.546 305.538 234.394C302.041 240.242 306.155 248.539 314.727 252.926C323.299 257.312 333.082 256.127 336.579 250.279Z" fill="white"/>
<path d="M312.115 358.187H289.685L285.968 291.796H315.832L312.115 358.187Z" fill="#292A2E"/>
<path opacity="0.3" d="M312.115 358.187H289.685L285.968 291.796H315.832L312.115 358.187Z" fill="white"/>
<path d="M336.963 289.249C336.928 289.249 336.894 289.242 336.862 289.228C336.831 289.214 336.804 289.193 336.782 289.168L314.765 263.437C314.727 263.392 314.71 263.336 314.717 263.28C314.724 263.224 314.755 263.172 314.803 263.137C314.85 263.102 314.911 263.086 314.972 263.093C315.033 263.099 315.088 263.128 315.126 263.172L337.143 288.903C337.17 288.935 337.187 288.973 337.192 289.013C337.197 289.052 337.189 289.093 337.17 289.129C337.151 289.165 337.122 289.195 337.085 289.217C337.048 289.238 337.006 289.249 336.963 289.249V289.249Z" fill="white"/>
<path d="M335.114 252.34C335.065 252.34 335.018 252.325 334.978 252.298L306.805 233.267C306.755 233.233 306.722 233.183 306.713 233.127C306.704 233.071 306.719 233.014 306.755 232.969C306.791 232.923 306.845 232.892 306.905 232.884C306.966 232.875 307.027 232.889 307.077 232.922L335.25 251.954C335.289 251.981 335.317 252.018 335.332 252.061C335.346 252.104 335.346 252.149 335.331 252.192C335.315 252.234 335.286 252.271 335.247 252.297C335.207 252.323 335.16 252.337 335.112 252.337L335.114 252.34Z" fill="white"/>
<path d="M275.062 276.778C275.042 276.778 275.022 276.775 275.003 276.77C274.944 276.756 274.894 276.72 274.863 276.671C274.833 276.622 274.824 276.564 274.84 276.51L283.808 245.423C283.825 245.37 283.864 245.325 283.916 245.298C283.969 245.271 284.03 245.264 284.088 245.278C284.146 245.292 284.196 245.327 284.227 245.374C284.258 245.422 284.267 245.479 284.253 245.533L275.285 276.619C275.272 276.665 275.243 276.705 275.203 276.734C275.162 276.762 275.113 276.778 275.062 276.778V276.778Z" fill="white"/>
<path d="M322.944 358.786H0.322427C0.236914 358.786 0.154903 358.754 0.0944366 358.698C0.0339699 358.642 0 358.566 0 358.487C0 358.408 0.0339699 358.332 0.0944366 358.276C0.154903 358.221 0.236914 358.189 0.322427 358.189H322.943C323.028 358.189 323.11 358.221 323.171 358.276C323.231 358.332 323.265 358.408 323.265 358.487C323.265 358.566 323.231 358.642 323.171 358.698C323.11 358.754 323.028 358.786 322.943 358.786H322.944Z" fill="#292A2E"/>
<g opacity="0.65">
<path d="M322.944 358.786H0.322427C0.236914 358.786 0.154903 358.754 0.0944366 358.698C0.0339699 358.642 0 358.566 0 358.487C0 358.408 0.0339699 358.332 0.0944366 358.276C0.154903 358.221 0.236914 358.189 0.322427 358.189H322.943C323.028 358.189 323.11 358.221 323.171 358.276C323.231 358.332 323.265 358.408 323.265 358.487C323.265 358.566 323.231 358.642 323.171 358.698C323.11 358.754 323.028 358.786 322.943 358.786H322.944Z" fill="#292A2E"/>
</g>
</svg>
