<svg width="649" height="655" viewBox="0 0 849 855" fill="none" xmlns="http://www.w3.org/2000/svg">
<g id="Layer 8">
<g id="Group">
<path id="Vector" d="M558.33 644.651H758.9L789.3 667.42V571.02C789.3 566.177 787.376 561.532 783.951 558.108C780.527 554.683 775.882 552.759 771.039 552.759H558.33C553.487 552.759 548.842 554.683 545.417 558.108C541.993 561.532 540.069 566.177 540.069 571.02V626.386C540.068 628.784 540.54 631.159 541.458 633.375C542.376 635.591 543.721 637.605 545.416 639.301C547.112 640.997 549.125 642.342 551.341 643.26C553.557 644.178 555.932 644.651 558.33 644.651Z" fill="#F4F4F4"/>
<path id="Vector_2" d="M767.839 578.35H561.527C561.33 578.343 561.143 578.26 561.006 578.118C560.869 577.976 560.792 577.786 560.792 577.589C560.792 577.391 560.869 577.202 561.006 577.06C561.143 576.918 561.33 576.834 561.527 576.827H767.839C768.036 576.834 768.223 576.918 768.36 577.06C768.497 577.202 768.573 577.391 768.573 577.589C768.573 577.786 768.497 577.976 768.36 578.118C768.223 578.26 768.036 578.343 767.839 578.35V578.35Z" fill="white"/>
<path id="Vector_3" d="M767.839 601.2H561.527C561.33 601.193 561.143 601.109 561.006 600.967C560.869 600.825 560.792 600.636 560.792 600.438C560.792 600.241 560.869 600.052 561.006 599.91C561.143 599.768 561.33 599.684 561.527 599.677H767.839C768.036 599.684 768.223 599.768 768.36 599.91C768.497 600.052 768.573 600.241 768.573 600.438C768.573 600.636 768.497 600.825 768.36 600.967C768.223 601.109 768.036 601.193 767.839 601.2V601.2Z" fill="white"/>
<path id="Vector_4" d="M767.839 624.05H645.31C645.108 624.05 644.914 623.97 644.771 623.827C644.628 623.684 644.548 623.49 644.548 623.288C644.548 623.086 644.628 622.892 644.771 622.749C644.914 622.606 645.108 622.526 645.31 622.526H767.839C768.041 622.526 768.235 622.606 768.378 622.749C768.521 622.892 768.601 623.086 768.601 623.288C768.601 623.49 768.521 623.684 768.378 623.827C768.235 623.97 768.041 624.05 767.839 624.05Z" fill="white"/>
</g>
<g id="Group_2">
<path id="Vector_5" d="M666.855 600.924L664.681 601.162L691.524 846.467L693.698 846.229L666.855 600.924Z" fill="#292A2E"/>
<path id="Vector_6" d="M736.382 708.013L723.176 838.658L725.351 838.878L738.557 708.233L736.382 708.013Z" fill="#292A2E"/>
<path id="Vector_7" d="M759.089 822.867H661.1V854.667H759.089V822.867Z" fill="#292A2E"/>
<path id="Vector_8" opacity="0.2" d="M759.089 822.867H661.1V854.667H759.089V822.867Z" fill="white"/>
<path id="Vector_9" d="M818.16 764.313C836.723 739.642 827.874 701.662 798.395 679.482C768.916 657.302 729.971 659.321 711.409 683.992C692.846 708.663 701.695 746.643 731.174 768.823C760.653 791.003 799.598 788.984 818.16 764.313Z" fill="#0CBC8B"/>
<path id="Vector_10" opacity="0.2" d="M818.16 764.313C836.723 739.642 827.874 701.662 798.395 679.482C768.916 657.302 729.971 659.321 711.409 683.992C692.846 708.663 701.695 746.643 731.174 768.823C760.653 791.003 799.598 788.984 818.16 764.313Z" fill="white"/>
<path id="Vector_11" opacity="0.5" d="M818.158 764.317C816.911 765.981 815.551 767.557 814.087 769.034C793.653 782.089 763.493 780.034 739.565 762.027C710.089 739.852 701.243 701.872 719.807 677.201C721.056 675.541 722.413 673.965 723.868 672.484C744.312 659.419 774.463 661.484 798.4 679.484C827.875 701.666 836.722 739.646 818.158 764.317Z" fill="white"/>
<path id="Vector_12" d="M681.411 670.713C710.614 648.171 718.551 609.511 699.139 584.363C679.727 559.215 640.317 557.103 611.114 579.645C581.912 602.187 573.975 640.847 593.386 665.995C612.798 691.143 652.208 693.255 681.411 670.713Z" fill="#0CBC8B"/>
<path id="Vector_13" opacity="0.2" d="M672.159 664.244C649.543 681.712 620.801 684.374 599.966 673.003C597.556 670.879 595.354 668.529 593.39 665.986C573.974 640.845 581.911 602.18 611.112 579.643C633.728 562.184 662.47 559.513 683.295 570.875C685.712 572.999 687.917 575.352 689.881 577.901C709.3 603.042 701.36 641.707 672.159 664.244Z" fill="white"/>
</g>
<g id="Group_3">
<path id="Vector_14" d="M829.92 301.659H571.913L539.222 326.144V196.536C539.222 191.693 541.146 187.048 544.571 183.623C547.996 180.199 552.641 178.275 557.484 178.275H829.92C834.763 178.275 839.408 180.199 842.832 183.624C846.257 187.048 848.181 191.693 848.181 196.536V283.4C848.18 288.243 846.256 292.887 842.831 296.311C839.407 299.735 834.763 301.659 829.92 301.659Z" fill="#F4F4F4"/>
<path id="Vector_15" d="M825.106 205.734H562.3C562.198 205.738 562.096 205.721 562 205.684C561.904 205.648 561.817 205.592 561.743 205.521C561.67 205.45 561.611 205.365 561.571 205.271C561.531 205.176 561.51 205.075 561.51 204.973C561.51 204.87 561.531 204.769 561.571 204.675C561.611 204.58 561.67 204.495 561.743 204.424C561.817 204.353 561.904 204.298 562 204.261C562.096 204.224 562.198 204.207 562.3 204.211H825.106C825.303 204.218 825.49 204.302 825.627 204.444C825.764 204.586 825.84 204.775 825.84 204.973C825.84 205.17 825.764 205.36 825.627 205.502C825.49 205.644 825.303 205.727 825.106 205.734V205.734Z" fill="white"/>
<path id="Vector_16" d="M825.106 230.305H562.3C562.198 230.309 562.096 230.292 562 230.255C561.904 230.219 561.817 230.163 561.743 230.092C561.67 230.021 561.611 229.936 561.571 229.841C561.531 229.747 561.51 229.646 561.51 229.543C561.51 229.441 561.531 229.34 561.571 229.246C561.611 229.151 561.67 229.066 561.743 228.995C561.817 228.924 561.904 228.868 562 228.832C562.096 228.795 562.198 228.778 562.3 228.782H825.106C825.303 228.789 825.49 228.872 825.627 229.015C825.764 229.157 825.84 229.346 825.84 229.543C825.84 229.741 825.764 229.93 825.627 230.072C825.49 230.214 825.303 230.298 825.106 230.305V230.305Z" fill="white"/>
<path id="Vector_17" d="M825.106 254.877H562.3C562.098 254.877 561.904 254.797 561.761 254.654C561.618 254.511 561.538 254.317 561.538 254.115C561.538 253.913 561.618 253.719 561.761 253.576C561.904 253.433 562.098 253.353 562.3 253.353H825.106C825.308 253.353 825.502 253.433 825.645 253.576C825.788 253.719 825.868 253.913 825.868 254.115C825.868 254.317 825.788 254.511 825.645 254.654C825.502 254.797 825.308 254.877 825.106 254.877Z" fill="white"/>
<path id="Vector_18" d="M779.408 279.448H562.3C562.198 279.452 562.096 279.435 562 279.398C561.904 279.362 561.817 279.306 561.743 279.235C561.67 279.164 561.611 279.079 561.571 278.985C561.531 278.89 561.51 278.789 561.51 278.687C561.51 278.584 561.531 278.483 561.571 278.389C561.611 278.294 561.67 278.209 561.743 278.138C561.817 278.067 561.904 278.012 562 277.975C562.096 277.938 562.198 277.921 562.3 277.925H779.41C779.512 277.921 779.614 277.938 779.71 277.975C779.805 278.012 779.893 278.067 779.966 278.138C780.04 278.209 780.099 278.294 780.139 278.389C780.179 278.483 780.199 278.584 780.199 278.687C780.199 278.789 780.179 278.89 780.139 278.985C780.099 279.079 780.04 279.164 779.966 279.235C779.893 279.306 779.805 279.362 779.71 279.398C779.614 279.435 779.512 279.452 779.41 279.448H779.408Z" fill="white"/>
</g>
<g id="Group_4">
<path id="Vector_19" d="M31.34 555.375H231.907L262.307 578.145V481.745C262.307 476.902 260.383 472.257 256.959 468.832C253.534 465.407 248.889 463.483 244.046 463.483H31.34C26.4966 463.483 21.8516 465.407 18.4268 468.832C15.002 472.257 13.078 476.902 13.078 481.745V537.111C13.0777 539.509 13.5499 541.884 14.4675 544.1C15.3852 546.316 16.7303 548.329 18.4261 550.025C20.1219 551.721 22.1352 553.067 24.351 553.985C26.5668 554.903 28.9416 555.375 31.34 555.375V555.375Z" fill="#F4F4F4"/>
<path id="Vector_20" d="M240.848 489.075H34.537C34.3349 489.075 34.1411 488.995 33.9982 488.852C33.8553 488.709 33.775 488.515 33.775 488.313C33.775 488.111 33.8553 487.917 33.9982 487.774C34.1411 487.631 34.3349 487.551 34.537 487.551H240.848C241.05 487.551 241.244 487.631 241.387 487.774C241.53 487.917 241.61 488.111 241.61 488.313C241.61 488.515 241.53 488.709 241.387 488.852C241.244 488.995 241.05 489.075 240.848 489.075V489.075Z" fill="white"/>
<path id="Vector_21" d="M240.848 511.924H34.537C34.3398 511.917 34.1531 511.834 34.0161 511.691C33.8792 511.549 33.8026 511.36 33.8026 511.162C33.8026 510.965 33.8792 510.776 34.0161 510.634C34.1531 510.492 34.3398 510.408 34.537 510.401H240.848C240.95 510.397 241.052 510.414 241.148 510.451C241.244 510.487 241.331 510.543 241.405 510.614C241.478 510.685 241.537 510.77 241.577 510.865C241.617 510.959 241.638 511.06 241.638 511.162C241.638 511.265 241.617 511.366 241.577 511.46C241.537 511.555 241.478 511.64 241.405 511.711C241.331 511.782 241.244 511.838 241.148 511.874C241.052 511.911 240.95 511.928 240.848 511.924V511.924Z" fill="white"/>
<path id="Vector_22" d="M240.848 534.774H118.32C118.218 534.778 118.116 534.761 118.02 534.724C117.924 534.688 117.837 534.632 117.763 534.561C117.69 534.49 117.631 534.405 117.591 534.31C117.551 534.216 117.53 534.115 117.53 534.013C117.53 533.91 117.551 533.809 117.591 533.715C117.631 533.62 117.69 533.535 117.763 533.464C117.837 533.393 117.924 533.337 118.02 533.301C118.116 533.264 118.218 533.247 118.32 533.251H240.848C240.95 533.247 241.052 533.264 241.148 533.301C241.244 533.337 241.331 533.393 241.405 533.464C241.478 533.535 241.537 533.62 241.577 533.715C241.617 533.809 241.638 533.91 241.638 534.013C241.638 534.115 241.617 534.216 241.577 534.31C241.537 534.405 241.478 534.49 241.405 534.561C241.331 534.632 241.244 534.688 241.148 534.724C241.052 534.761 240.95 534.778 240.848 534.774V534.774Z" fill="white"/>
</g>
<g id="Group_5">
<path id="Vector_23" d="M360.754 110.361H40.1L0 140.4V-22.739C0 -27.5821 1.92392 -32.2269 5.34852 -35.6515C8.77312 -39.0761 13.4179 -41 18.261 -41H360.754C365.597 -41 370.242 -39.0761 373.666 -35.6515C377.091 -32.2269 379.015 -27.5821 379.015 -22.739V92.1C379.015 96.943 377.091 101.588 373.666 105.012C370.242 108.437 365.597 110.361 360.754 110.361V110.361Z" fill="#F4F4F4"/>
<path id="Vector_24" d="M350.707 22.655H28.308C28.2057 22.6587 28.1037 22.6417 28.0081 22.6051C27.9124 22.5685 27.8252 22.513 27.7515 22.442C27.6778 22.3709 27.6191 22.2857 27.5791 22.1914C27.5391 22.0972 27.5184 21.9959 27.5184 21.8935C27.5184 21.7911 27.5391 21.6897 27.5791 21.5955C27.6191 21.5013 27.6778 21.4161 27.7515 21.345C27.8252 21.2739 27.9124 21.2184 28.0081 21.1818C28.1037 21.1452 28.2057 21.1283 28.308 21.132H350.708C350.81 21.1283 350.912 21.1452 351.008 21.1818C351.104 21.2184 351.191 21.2739 351.265 21.345C351.338 21.4161 351.397 21.5013 351.437 21.5955C351.477 21.6897 351.498 21.7911 351.498 21.8935C351.498 21.9959 351.477 22.0972 351.437 22.1914C351.397 22.2857 351.338 22.3709 351.265 22.442C351.191 22.513 351.104 22.5685 351.008 22.6051C350.912 22.6417 350.81 22.6587 350.708 22.655H350.707Z" fill="white"/>
<path id="Vector_25" d="M350.707 52.8H28.308C28.2057 52.8037 28.1037 52.7867 28.0081 52.7501C27.9124 52.7136 27.8252 52.6581 27.7515 52.587C27.6778 52.5159 27.6191 52.4307 27.5791 52.3365C27.5391 52.2422 27.5184 52.1409 27.5184 52.0385C27.5184 51.9361 27.5391 51.8348 27.5791 51.7405C27.6191 51.6463 27.6778 51.5611 27.7515 51.49C27.8252 51.4189 27.9124 51.3634 28.0081 51.3268C28.1037 51.2902 28.2057 51.2733 28.308 51.277H350.708C350.81 51.2733 350.912 51.2902 351.008 51.3268C351.104 51.3634 351.191 51.4189 351.265 51.49C351.338 51.5611 351.397 51.6463 351.437 51.7405C351.477 51.8348 351.498 51.9361 351.498 52.0385C351.498 52.1409 351.477 52.2422 351.437 52.3365C351.397 52.4307 351.338 52.5159 351.265 52.587C351.191 52.6581 351.104 52.7136 351.008 52.7501C350.912 52.7867 350.81 52.8037 350.708 52.8H350.707Z" fill="white"/>
<path id="Vector_26" d="M189.945 82.941H28.308C28.2057 82.9447 28.1037 82.9277 28.0081 82.8911C27.9124 82.8545 27.8252 82.799 27.7515 82.728C27.6778 82.6569 27.6191 82.5717 27.5791 82.4775C27.5391 82.3832 27.5184 82.2819 27.5184 82.1795C27.5184 82.0771 27.5391 81.9757 27.5791 81.8815C27.6191 81.7873 27.6778 81.7021 27.7515 81.631C27.8252 81.5599 27.9124 81.5044 28.0081 81.4678C28.1037 81.4312 28.2057 81.4143 28.308 81.418H189.945C190.142 81.4251 190.329 81.5085 190.466 81.6505C190.603 81.7925 190.679 81.9822 190.679 82.1795C190.679 82.3768 190.603 82.5664 190.466 82.7084C190.329 82.8505 190.142 82.9338 189.945 82.941V82.941Z" fill="white"/>
</g>
<g id="Group_6">
<g id="Group_7">
<path id="Vector_27" d="M158.65 79.725C158.65 79.725 147.523 70.093 145.983 49.535C144.791 33.617 158.65 44.806 158.65 44.806C158.65 44.806 157.904 33.337 166.108 35.02C174.312 36.703 178.153 48.956 178.153 48.956" fill="#0C0C0C"/>
<path id="Vector_28" d="M208.832 39.219C208.832 39.219 249.632 46.379 231.047 101.074H219.979" fill="#0C0C0C"/>
<g id="Group_8">
<path id="sk" d="M162.879 157.936C163.06 157.913 165.07 191.258 203.807 188.351C230.625 186.342 240.187 157.889 240.807 157.889C237.915 157.275 234.342 156.342 232.922 156.022C229.827 155.304 227.024 153.66 224.886 151.31C222.748 148.96 221.376 146.014 220.953 142.865C220.169 138.139 221.499 113.958 221.09 109.176L179.925 118.364C180.5 128.464 184.525 151.878 170.416 156.022C168.063 156.707 165.534 157.338 162.879 157.936Z" fill="#E98862"/>
<path id="sh" opacity="0.52" d="M179.343 146.453C179.988 144.375 180.403 142.232 180.581 140.064C181.034 135.116 180.943 130.133 180.312 125.204C188.679 124.075 196.561 120.621 203.063 115.236C203.828 118.059 208.031 130.394 206.868 133.077C204.667 138.149 194.329 146.453 179.343 146.453Z" fill="#0C0C0C"/>
<path id="Vector_29" d="M186.649 138.4C202.949 138.032 223.03 129.094 224.784 107.117L226.366 87.287C228.12 65.308 218 46.571 197.307 44.92C176.615 43.269 159.727 59.85 157.973 81.827L157.273 90.606C157.085 93.6244 157.103 96.6521 157.327 99.668C157.86 107.643 158.701 119.768 163.521 128.26C168.071 136.275 176.235 138.631 186.649 138.4Z" fill="#E98862"/>
<path id="Vector_30" opacity="0.52" d="M180.478 117.788C177.124 117.715 173.834 116.855 170.873 115.277C170.752 115.213 170.66 115.103 170.619 114.972C170.577 114.841 170.589 114.699 170.651 114.577C170.714 114.454 170.822 114.361 170.952 114.317C171.082 114.274 171.224 114.283 171.348 114.343C177.737 117.589 183.736 117.579 188.698 114.313C188.798 114.244 188.901 114.18 189.008 114.122C189.07 114.092 189.137 114.074 189.206 114.07C189.274 114.066 189.343 114.075 189.408 114.097C189.473 114.12 189.534 114.155 189.585 114.2C189.637 114.246 189.679 114.301 189.709 114.363C189.739 114.425 189.757 114.492 189.761 114.561C189.765 114.629 189.756 114.698 189.734 114.763C189.711 114.829 189.676 114.889 189.631 114.94C189.585 114.992 189.53 115.034 189.468 115.064C189.428 115.086 189.368 115.129 189.274 115.189C186.666 116.912 183.603 117.817 180.478 117.788V117.788Z" fill="#0C0C0C"/>
<path id="Vector_31" opacity="0.52" d="M180.3 122.753C179.694 122.75 179.088 122.695 178.491 122.589C178.422 122.579 178.355 122.555 178.295 122.519C178.235 122.482 178.183 122.435 178.142 122.378C178.101 122.321 178.072 122.257 178.056 122.188C178.04 122.12 178.038 122.049 178.05 121.98C178.062 121.911 178.088 121.845 178.126 121.787C178.164 121.728 178.213 121.677 178.271 121.638C178.329 121.598 178.394 121.571 178.463 121.557C178.532 121.543 178.602 121.543 178.671 121.557C182.265 122.184 184.103 120.641 184.18 120.575C184.285 120.483 184.421 120.437 184.56 120.446C184.699 120.455 184.828 120.519 184.92 120.623C185.011 120.728 185.058 120.865 185.048 121.003C185.039 121.142 184.976 121.271 184.871 121.363C183.554 122.34 181.939 122.832 180.3 122.753V122.753Z" fill="#0C0C0C"/>
<path id="Vector_32" d="M164.111 92.08C165.523 92.08 166.667 90.9357 166.667 89.524C166.667 88.1124 165.523 86.968 164.111 86.968C162.699 86.968 161.555 88.1124 161.555 89.524C161.555 90.9357 162.699 92.08 164.111 92.08Z" fill="#0C0C0C"/>
<path id="Vector_33" d="M187.806 92.241C189.218 92.241 190.362 91.0967 190.362 89.685C190.362 88.2734 189.218 87.129 187.806 87.129C186.394 87.129 185.25 88.2734 185.25 89.685C185.25 91.0967 186.394 92.241 187.806 92.241Z" fill="#0C0C0C"/>
<path id="Vector_34" d="M222.965 113.707C229.253 114.207 234.887 107.888 235.389 101.6C235.891 95.3119 231.07 91.4369 224.782 90.9349L221.205 94.8899L217.558 113.275L222.965 113.707Z" fill="#E98862"/>
</g>
<g id="Group_9">
<path id="Vector_35" d="M217.381 103.174C217.381 103.174 217.341 71.9079 208.033 69.3539C201.833 67.6539 185.993 75.5469 172.055 71.9079C165.955 70.3159 159.992 71.4519 159.2 74.3299C158.886 75.4689 156.151 58.6109 166.667 46.6599C175.04 37.1449 200.432 36.0009 211.677 40.0599C242.814 51.2949 225.988 92.3939 225.988 92.3939L223.853 103.029L217.381 103.174Z" fill="#0C0C0C"/>
<g id="Group_10" opacity="0.52">
<path id="Vector_36" d="M177.166 110.188H177.126C175.099 110.032 171.717 109.544 171.832 108.027C171.932 106.771 176.415 93.4749 176.926 91.9629C176.973 91.8361 177.067 91.7325 177.189 91.6742C177.31 91.616 177.45 91.6076 177.578 91.6509C177.706 91.6942 177.812 91.7857 177.874 91.906C177.935 92.0264 177.947 92.1659 177.907 92.2949C175.916 98.1829 172.931 107.253 172.864 108.107C173.036 108.48 175.106 108.994 177.204 109.156C177.336 109.167 177.459 109.229 177.547 109.329C177.635 109.429 177.682 109.558 177.677 109.691C177.672 109.824 177.616 109.95 177.521 110.042C177.426 110.135 177.299 110.188 177.166 110.19V110.188Z" fill="#0C0C0C"/>
</g>
<path id="Vector_37" d="M171.3 81.675C169.664 81.0002 167.879 80.7681 166.125 81.002C165.231 81.1137 164.36 81.3606 163.54 81.734C162.703 82.1105 161.917 82.5906 161.199 83.163L161.143 83.205C160.957 83.3252 160.733 83.3724 160.514 83.3376C160.295 83.3028 160.096 83.1883 159.956 83.0161C159.817 82.844 159.745 82.6263 159.756 82.4048C159.767 82.1833 159.859 81.9736 160.015 81.816C160.81 81.0775 161.695 80.4421 162.649 79.925C163.617 79.3962 164.658 79.0153 165.738 78.795C166.82 78.5632 167.929 78.4808 169.033 78.55C170.17 78.6095 171.293 78.8311 172.367 79.208C172.7 79.3297 172.971 79.5775 173.122 79.8978C173.273 80.2181 173.292 80.585 173.174 80.919C173.056 81.253 172.812 81.5272 172.493 81.6822C172.175 81.8371 171.808 81.8604 171.473 81.747C171.44 81.736 171.409 81.723 171.378 81.71L171.3 81.675Z" fill="#0C0C0C"/>
<path id="Vector_38" d="M186.3 79.4209C188.432 78.6882 190.723 78.5462 192.929 79.0099C194.009 79.2303 195.051 79.6112 196.018 80.1399C196.972 80.6571 197.857 81.2928 198.651 82.0319C198.823 82.1847 198.93 82.3982 198.949 82.6279C198.968 82.8576 198.898 83.0857 198.753 83.2649C198.608 83.444 198.4 83.5603 198.171 83.5896C197.942 83.6188 197.711 83.5588 197.526 83.4219L197.467 83.3779C196.75 82.8055 195.964 82.3254 195.127 81.9489C194.307 81.5753 193.435 81.3281 192.541 81.2159C191.652 81.0924 190.751 81.0924 189.862 81.2159C189.002 81.3261 188.161 81.5518 187.362 81.8869L187.287 81.9199C187.125 81.9915 186.951 82.0305 186.774 82.0348C186.598 82.039 186.422 82.0084 186.257 81.9447C186.092 81.881 185.941 81.7855 185.813 81.6635C185.685 81.5415 185.583 81.3956 185.511 81.2339C185.439 81.0723 185.4 80.8981 185.396 80.7213C185.392 80.5446 185.422 80.3688 185.486 80.2038C185.55 80.0389 185.645 79.8882 185.767 79.7602C185.889 79.6322 186.035 79.5295 186.197 79.4579C186.237 79.4459 186.271 79.4329 186.3 79.4209Z" fill="#0C0C0C"/>
</g>
<path id="Vector_39" d="M188.49 48.2657C190.382 41.5049 188.192 34.9821 183.599 33.6966C179.006 32.4112 173.749 36.8499 171.857 43.6108C169.965 50.3716 172.154 56.8945 176.747 58.1799C181.34 59.4653 186.598 55.0266 188.49 48.2657Z" fill="#0C0C0C"/>
</g>
<g id="Group_11">
<path id="Vector_40" d="M228.443 721.261C228.443 721.261 255.043 735.986 249.701 758.977C244.359 781.968 263.808 782.393 263.808 782.393L289.354 696.058L246.22 683.294L228.443 721.261Z" fill="#367CFF"/>
<path id="Vector_41" d="M126.322 352.77C126.322 352.77 76.908 548.67 90.502 577.67C103.866 606.177 242.257 732.842 242.257 732.842L267.188 686.509L161.217 558.571C161.217 558.571 191.328 489.271 208.687 435.987C219.152 403.867 230.507 375.058 232.179 341.318L126.322 352.77Z" fill="#262626"/>
<path id="Vector_42" d="M199.202 603.455L184.936 587.208L188.649 682.577L204.55 697.691L199.202 603.455Z" fill="#0A0A0A"/>
<path id="Vector_43" d="M197.127 469.744C197.127 469.744 199.727 416.506 194.776 426.719C185.844 445.157 183.51 504.6 183.51 504.6L197.127 469.744Z" fill="#0A0A0A"/>
<path id="Vector_44" d="M215.792 806.832C215.792 806.832 210.937 832 187.376 833.4C163.815 834.8 168.925 853.571 168.925 853.571H258.96V808.587L215.792 806.832Z" fill="#367CFF"/>
<path id="Vector_45" d="M287.066 347.8C287.066 347.8 287.466 345.946 287.702 356.788C289.097 420.778 262.934 822.888 262.934 822.888L203.771 822.388L187.932 345.2L287.066 347.8Z" fill="#262626"/>
</g>
<path id="Vector_46" d="M114.75 231.348C115.97 245.682 124.906 335.114 126.079 352.77H287.758C288.671 336.846 289.772 267.212 293.236 236.07C296.542 206.354 303.028 190.401 298.274 181.616C290.504 167.257 269.274 160.036 254.798 158.076C245.958 156.876 232.662 156.021 232.662 156.021C232.662 156.021 231.536 178.794 204.693 180.062C168.153 181.786 170.593 156.021 170.412 156.021C157.145 156.021 132.037 159.195 122.401 165.747C100.735 180.482 112.16 200.97 114.75 231.348Z" fill="#367CFF"/>
<path id="Vector_47" d="M124.327 175.479L86.678 214.429L52.392 200.572L16.052 290.486L15.827 291.023C13.3325 297.233 13.1053 304.123 15.1853 310.484C17.2652 316.845 21.5194 322.27 27.2009 325.807C32.8824 329.344 39.6282 330.766 46.2539 329.824C52.8797 328.882 58.962 325.637 63.433 320.657L162.133 210.698L124.327 175.479Z" fill="#367CFF"/>
<g id="Group_12">
<path id="Vector_48" d="M157.476 163.623C157.182 163.157 156.797 162.756 156.343 162.444C155.889 162.132 155.377 161.916 154.837 161.808C154.297 161.701 153.74 161.705 153.202 161.82C152.663 161.934 152.153 162.158 151.704 162.476C150.856 163.122 150.284 164.066 150.105 165.118C149.926 166.169 150.153 167.249 150.74 168.14L152.612 170.861L132.032 157.9C131.607 157.632 131.134 157.451 130.639 157.366C130.144 157.282 129.637 157.296 129.148 157.407C128.658 157.518 128.195 157.724 127.786 158.015C127.376 158.305 127.027 158.673 126.76 159.097C126.492 159.522 126.311 159.996 126.226 160.491C126.141 160.985 126.155 161.492 126.266 161.982C126.378 162.471 126.584 162.934 126.874 163.344C127.164 163.754 127.532 164.102 127.957 164.37L136.527 169.77C136.505 169.789 136.485 169.81 136.468 169.833C135.487 169.464 134.4 169.49 133.438 169.905C132.475 170.32 131.71 171.092 131.304 172.059C130.952 172.949 130.918 173.934 131.208 174.846C131.498 175.758 132.095 176.542 132.897 177.065L134.038 177.838C134.03 177.884 134.03 177.931 134.038 177.977C133.15 177.635 132.17 177.617 131.27 177.926C130.37 178.235 129.608 178.85 129.116 179.665C128.598 180.597 128.454 181.691 128.712 182.726C128.97 183.761 129.611 184.659 130.506 185.239L133.319 187.145C133.257 187.147 133.196 187.165 133.143 187.196C133.089 187.228 133.044 187.272 133.012 187.325C132.978 187.386 132.962 187.455 132.966 187.525C132.107 187.44 131.244 187.633 130.502 188.074C129.76 188.515 129.179 189.182 128.843 189.977C128.491 190.867 128.457 191.852 128.747 192.764C129.037 193.676 129.634 194.46 130.436 194.983L145.667 205.341C149.033 207.621 153.004 208.844 157.07 208.854C161.136 208.863 165.112 207.657 168.489 205.392L179.361 198.098L157.476 163.623Z" fill="#E98862"/>
<g id="Group_13" opacity="0.2">
<path id="Vector_49" d="M145.077 175.577C145.033 175.568 144.991 175.551 144.953 175.528L136.567 170.382C136.524 170.356 136.487 170.321 136.458 170.281C136.429 170.24 136.408 170.194 136.396 170.145C136.373 170.047 136.39 169.944 136.443 169.857C136.496 169.771 136.581 169.71 136.679 169.687C136.777 169.663 136.881 169.68 136.967 169.733L145.352 174.879C145.43 174.925 145.488 174.997 145.517 175.083C145.547 175.168 145.545 175.261 145.512 175.345C145.479 175.429 145.417 175.499 145.338 175.542C145.258 175.584 145.166 175.598 145.078 175.579L145.077 175.577Z" fill="#0C0C0C"/>
<path id="Vector_50" d="M140.9 182.369C140.855 182.36 140.812 182.342 140.773 182.318L134.214 178.218C134.136 178.161 134.083 178.078 134.065 177.983C134.046 177.889 134.064 177.791 134.115 177.71C134.165 177.628 134.245 177.568 134.337 177.543C134.43 177.517 134.529 177.528 134.614 177.572L141.173 181.672C141.251 181.718 141.311 181.791 141.34 181.877C141.37 181.962 141.367 182.056 141.334 182.14C141.301 182.225 141.238 182.295 141.158 182.337C141.078 182.38 140.985 182.392 140.896 182.372L140.9 182.369Z" fill="#0C0C0C"/>
<path id="Vector_51" d="M136.412 189.751C136.37 189.742 136.33 189.727 136.293 189.705L133.15 187.843C133.105 187.819 133.065 187.785 133.033 187.745C133.001 187.705 132.977 187.659 132.963 187.61C132.949 187.56 132.946 187.508 132.952 187.457C132.959 187.406 132.976 187.357 133.002 187.313C133.028 187.269 133.063 187.23 133.105 187.2C133.146 187.169 133.193 187.148 133.243 187.136C133.294 187.124 133.345 187.123 133.396 187.132C133.447 187.141 133.495 187.16 133.538 187.188L136.68 189.05C136.756 189.096 136.814 189.168 136.843 189.252C136.871 189.337 136.87 189.428 136.838 189.512C136.806 189.595 136.746 189.664 136.668 189.708C136.59 189.751 136.5 189.766 136.412 189.75V189.751Z" fill="#0C0C0C"/>
</g>
</g>
<g id="Group_14">
<path id="Vector_52" d="M90.459 214.378H122.417C123.242 214.378 124.057 214.195 124.803 213.842C125.548 213.49 126.207 212.976 126.73 212.338C127.253 211.7 127.629 210.955 127.829 210.154C128.03 209.354 128.05 208.519 127.889 207.71L115.245 144.169C114.991 142.895 114.301 141.75 113.294 140.93C112.286 140.111 111.025 139.668 109.726 139.679L78.582 139.941C77.7669 139.948 76.9633 140.134 76.2277 140.485C75.4921 140.836 74.8423 141.344 74.3241 141.973C73.8058 142.602 73.4317 143.337 73.228 144.126C73.0243 144.915 72.9959 145.74 73.145 146.541L84.975 209.819C85.2129 211.1 85.8916 212.257 86.8932 213.089C87.8949 213.922 89.1564 214.378 90.459 214.378V214.378Z" fill="#262626"/>
<path id="Vector_53" d="M115.075 178.992C114.586 178.257 113.873 177.7 113.043 177.4C112.213 177.101 111.308 177.077 110.463 177.331C110.462 177.279 110.449 177.229 110.424 177.184C110.399 177.138 110.364 177.1 110.321 177.072C110.277 177.043 110.228 177.026 110.177 177.021C110.125 177.016 110.074 177.024 110.026 177.044L112.507 174.569C113.291 173.818 113.761 172.797 113.822 171.713C113.882 170.628 113.529 169.562 112.833 168.728C112.185 168.006 111.304 167.535 110.343 167.399C109.383 167.262 108.405 167.468 107.582 167.981C107.582 167.94 107.55 167.906 107.537 167.866L108.559 166.848C109.261 166.172 109.708 165.273 109.824 164.305C109.94 163.338 109.718 162.359 109.196 161.536C108.858 161.027 108.411 160.599 107.887 160.283C107.364 159.967 106.777 159.771 106.168 159.71C105.56 159.649 104.946 159.723 104.37 159.928C103.794 160.132 103.27 160.462 102.837 160.894L100.48 163.245C100.47 163.231 100.474 163.211 100.462 163.198C100.45 163.185 100.419 163.184 100.401 163.171C100.901 162.381 101.118 161.444 101.016 160.515C100.914 159.585 100.5 158.718 99.84 158.055C98.247 156.233 95.405 157.124 93.881 158.644L79.5 172.728L79.939 172.071L81.974 166.882C82.3911 165.879 82.412 164.756 82.0324 163.738C81.6527 162.721 80.901 161.885 79.929 161.401C79.4187 161.169 78.8663 161.042 78.3057 161.031C77.745 161.019 77.1878 161.121 76.668 161.331C76.1483 161.542 75.6768 161.856 75.2824 162.255C74.888 162.653 74.5789 163.128 74.374 163.65L62.474 193.088C62.474 193.088 87.484 211.188 93.482 205.205L114.44 184.305C115.142 183.628 115.589 182.73 115.705 181.762C115.821 180.793 115.598 179.815 115.075 178.992V178.992Z" fill="#E98862"/>
<g id="Group_15" opacity="0.2">
<path id="Vector_54" d="M86.6791 176.52C86.7502 176.589 86.8457 176.628 86.9451 176.628C87.0444 176.628 87.1399 176.589 87.2111 176.52L100.452 163.734C100.49 163.7 100.52 163.658 100.542 163.612C100.563 163.566 100.575 163.516 100.576 163.465C100.578 163.414 100.569 163.363 100.551 163.315C100.533 163.268 100.505 163.224 100.47 163.188C100.434 163.151 100.392 163.122 100.345 163.102C100.298 163.082 100.248 163.071 100.197 163.071C100.146 163.071 100.095 163.081 100.048 163.101C100.001 163.121 99.9587 163.15 99.923 163.186L86.6821 175.975C86.646 176.01 86.6173 176.051 86.5973 176.097C86.5774 176.143 86.5667 176.193 86.5658 176.243C86.565 176.293 86.574 176.342 86.5924 176.389C86.6108 176.436 86.6382 176.478 86.673 176.514L86.6791 176.52Z" fill="#0C0C0C"/>
<path id="Vector_55" d="M92.157 182.515C92.2282 182.584 92.3236 182.623 92.423 182.623C92.5224 182.623 92.6179 182.584 92.689 182.515L107.466 168.246C107.502 168.211 107.531 168.17 107.551 168.124C107.571 168.078 107.582 168.029 107.583 167.979C107.584 167.929 107.575 167.879 107.556 167.832C107.538 167.786 107.511 167.743 107.476 167.707C107.404 167.637 107.308 167.598 107.208 167.596C107.108 167.594 107.011 167.631 106.937 167.698L92.16 181.97C92.0876 182.04 92.0459 182.137 92.0442 182.238C92.0426 182.339 92.081 182.436 92.151 182.509L92.157 182.515Z" fill="#0C0C0C"/>
<path id="Vector_56" d="M98.0531 189.043C98.1242 189.112 98.2197 189.151 98.3191 189.151C98.4184 189.151 98.5139 189.112 98.5851 189.043L110.373 177.66C110.411 177.626 110.441 177.584 110.462 177.538C110.484 177.491 110.496 177.441 110.497 177.39C110.499 177.339 110.49 177.289 110.472 177.241C110.453 177.193 110.425 177.15 110.39 177.113C110.354 177.077 110.312 177.048 110.265 177.028C110.218 177.008 110.168 176.998 110.117 176.998C110.066 176.998 110.015 177.008 109.968 177.028C109.921 177.047 109.879 177.077 109.843 177.113L98.0561 188.5C97.9835 188.57 97.9416 188.667 97.9398 188.768C97.9379 188.869 97.9761 188.966 98.0461 189.039L98.0531 189.043Z" fill="#0C0C0C"/>
</g>
</g>
<path id="Vector_57" d="M58.393 185.251L104.214 203.133L69.357 303.772L15.71 289.764L58.393 185.251Z" fill="#367CFF"/>
<path id="Vector_58" d="M213.236 321.605C208.19 321.605 203.234 320.268 198.873 317.73C194.511 315.193 190.9 311.545 188.406 307.158L136.618 210.648L179.749 183.081L212.71 238.891L248.337 177.332L294.6 211.274L238.317 306.71C235.881 311.178 232.296 314.915 227.931 317.532C223.567 320.15 218.583 321.555 213.494 321.6L213.236 321.605Z" fill="#367CFF"/>
<path id="Vector_59" d="M213.236 321.985C208.124 321.979 203.104 320.622 198.686 318.051C194.267 315.48 190.606 311.787 188.075 307.346L136.282 210.827C136.237 210.742 136.225 210.644 136.249 210.551C136.274 210.459 136.332 210.378 136.413 210.327L179.544 182.76C179.587 182.732 179.635 182.713 179.686 182.705C179.736 182.696 179.788 182.698 179.838 182.711C179.888 182.723 179.934 182.745 179.975 182.775C180.016 182.805 180.051 182.843 180.077 182.887L212.708 238.14L237.147 196.351C237.198 196.264 237.282 196.2 237.379 196.175C237.477 196.149 237.581 196.163 237.668 196.214C237.756 196.266 237.819 196.349 237.845 196.447C237.87 196.545 237.856 196.649 237.805 196.736L213.038 239.084C213.004 239.141 212.957 239.189 212.899 239.222C212.841 239.255 212.776 239.272 212.71 239.272V239.272C212.644 239.272 212.579 239.255 212.521 239.222C212.464 239.189 212.416 239.142 212.382 239.085L179.622 183.614L137.122 210.778L188.744 306.978C191.209 311.301 194.773 314.895 199.074 317.397C203.376 319.898 208.262 321.219 213.238 321.224H213.493C218.514 321.177 223.431 319.79 227.736 317.206C232.042 314.623 235.58 310.937 237.984 306.529L288.389 220.592C288.44 220.505 288.524 220.441 288.621 220.416C288.719 220.39 288.823 220.404 288.91 220.456C288.998 220.507 289.061 220.59 289.087 220.688C289.112 220.786 289.098 220.89 289.047 220.977L238.647 306.903C236.177 311.428 232.544 315.211 228.123 317.862C223.703 320.513 218.654 321.936 213.5 321.984L213.236 321.985Z" fill="#0C0C0C"/>
<path id="Vector_60" d="M224.933 260.9C224.866 260.9 224.799 260.882 224.741 260.848C224.683 260.814 224.635 260.765 224.602 260.706L212.378 239.075C212.332 238.987 212.321 238.885 212.349 238.79C212.377 238.695 212.441 238.614 212.527 238.565C212.614 238.516 212.716 238.503 212.811 238.528C212.907 238.553 212.99 238.615 213.041 238.7L225.265 260.331C225.315 260.419 225.328 260.523 225.301 260.621C225.274 260.718 225.209 260.801 225.121 260.851C225.064 260.883 224.999 260.9 224.933 260.9V260.9Z" fill="#0C0C0C"/>
<path id="Vector_61" d="M79.079 278.671C79.0187 278.671 78.9592 278.657 78.9054 278.63C78.8516 278.603 78.8052 278.563 78.77 278.514C78.7347 278.465 78.7117 278.408 78.7028 278.349C78.694 278.289 78.6995 278.228 78.719 278.171L104.649 203.305C104.665 203.258 104.691 203.214 104.724 203.177C104.757 203.139 104.798 203.109 104.843 203.087C104.888 203.065 104.937 203.053 104.987 203.05C105.037 203.047 105.087 203.054 105.134 203.07C105.181 203.086 105.225 203.112 105.262 203.145C105.3 203.179 105.33 203.219 105.352 203.264C105.374 203.309 105.386 203.358 105.389 203.408C105.392 203.458 105.385 203.508 105.369 203.555L79.439 278.42C79.4122 278.494 79.3632 278.558 79.2987 278.603C79.2343 278.648 79.1575 278.671 79.079 278.671V278.671Z" fill="#0C0C0C"/>
<path id="Vector_62" d="M116.625 261.9C116.529 261.9 116.437 261.863 116.366 261.798C116.296 261.732 116.253 261.643 116.246 261.547L114.746 241.014C114.739 240.913 114.772 240.814 114.838 240.738C114.904 240.661 114.997 240.614 115.098 240.607C115.198 240.601 115.297 240.635 115.373 240.701C115.449 240.766 115.497 240.859 115.506 240.959L117.006 261.491C117.013 261.592 116.98 261.692 116.914 261.768C116.848 261.845 116.754 261.892 116.653 261.899L116.625 261.9Z" fill="#0C0C0C"/>
</g>
<path id="Vector_63" d="M826.493 854.636H63.627C63.5247 854.64 63.4227 854.623 63.327 854.586C63.2314 854.55 63.1441 854.494 63.0704 854.423C62.9967 854.352 62.9381 854.267 62.8981 854.173C62.858 854.078 62.8374 853.977 62.8374 853.875C62.8374 853.772 62.858 853.671 62.8981 853.577C62.9381 853.482 62.9967 853.397 63.0704 853.326C63.1441 853.255 63.2314 853.2 63.327 853.163C63.4227 853.126 63.5247 853.109 63.627 853.113H826.493C826.595 853.109 826.697 853.126 826.793 853.163C826.889 853.2 826.976 853.255 827.05 853.326C827.123 853.397 827.182 853.482 827.222 853.577C827.262 853.671 827.283 853.772 827.283 853.875C827.283 853.977 827.262 854.078 827.222 854.173C827.182 854.267 827.123 854.352 827.05 854.423C826.976 854.494 826.889 854.55 826.793 854.586C826.697 854.623 826.595 854.64 826.493 854.636V854.636Z" fill="#292A2E"/>
<g id="Group_16">
<g id="Group_17">
<path id="Vector_64" d="M625.568 20.871H332.299C308.038 20.871 288.371 40.5382 288.371 64.799V754.207C288.371 778.468 308.038 798.135 332.299 798.135H625.568C649.829 798.135 669.496 778.468 669.496 754.207V64.799C669.496 40.5382 649.829 20.871 625.568 20.871Z" fill="#292A2E"/>
<path id="Vector_65" d="M625.431 34.589H332.438C315.779 34.589 302.274 48.0939 302.274 64.753V753.23C302.274 769.889 315.779 783.394 332.438 783.394H625.431C642.09 783.394 655.595 769.889 655.595 753.23V64.753C655.595 48.0939 642.09 34.589 625.431 34.589Z" fill="white"/>
<path id="Vector_66" d="M406.572 28.917H551.3V43.892C551.3 46.0191 550.881 48.1254 550.067 50.0906C549.253 52.0557 548.059 53.8412 546.555 55.345C545.05 56.8488 543.264 58.0415 541.299 58.855C539.334 59.6685 537.227 60.0868 535.1 60.086H422.766C418.471 60.086 414.352 58.3798 411.315 55.3429C408.278 52.3059 406.572 48.1869 406.572 43.892V28.917Z" fill="#292A2E"/>
</g>
<g id="Group_18">
<path id="Vector_67" d="M568.071 202.1H347.161L319.109 223.111V112.378C319.109 110.256 319.527 108.156 320.339 106.196C321.151 104.235 322.341 102.454 323.841 100.954C325.341 99.4542 327.122 98.2643 329.082 97.4525C331.043 96.6406 333.143 96.2229 335.265 96.223H568.071C570.193 96.2229 572.293 96.6406 574.254 97.4525C576.214 98.2643 577.995 99.4542 579.495 100.954C580.995 102.454 582.185 104.235 582.997 106.196C583.809 108.156 584.227 110.256 584.227 112.378V185.943C584.227 188.065 583.81 190.166 582.998 192.126C582.186 194.086 580.996 195.868 579.496 197.368C577.995 198.868 576.214 200.058 574.254 200.87C572.294 201.682 570.193 202.1 568.071 202.1V202.1Z" fill="#367CFF"/>
<path id="Vector_68" opacity="0.49" d="M584.227 202.098H347.161L319.109 223.109V96.223H584.227V202.098Z" fill="white"/>
<path id="Vector_69" d="M564.426 119.834H338.91C338.724 119.834 338.545 119.76 338.413 119.628C338.282 119.496 338.208 119.318 338.208 119.131C338.208 118.945 338.282 118.766 338.413 118.635C338.545 118.503 338.724 118.429 338.91 118.429H564.426C564.612 118.429 564.791 118.503 564.923 118.635C565.055 118.766 565.129 118.945 565.129 119.131C565.129 119.318 565.055 119.496 564.923 119.628C564.791 119.76 564.612 119.834 564.426 119.834V119.834Z" fill="white"/>
<path id="Vector_70" d="M564.426 140.919H338.91C338.724 140.919 338.545 140.845 338.413 140.713C338.282 140.582 338.208 140.403 338.208 140.217C338.208 140.03 338.282 139.852 338.413 139.72C338.545 139.588 338.724 139.514 338.91 139.514H564.426C564.612 139.514 564.791 139.588 564.923 139.72C565.055 139.852 565.129 140.03 565.129 140.217C565.129 140.403 565.055 140.582 564.923 140.713C564.791 140.845 564.612 140.919 564.426 140.919V140.919Z" fill="white"/>
<path id="Vector_71" d="M564.426 162H338.91C338.724 162 338.545 161.926 338.413 161.794C338.281 161.662 338.207 161.483 338.207 161.297C338.207 161.111 338.281 160.932 338.413 160.8C338.545 160.668 338.724 160.594 338.91 160.594H564.426C564.613 160.594 564.791 160.668 564.923 160.8C565.055 160.932 565.129 161.111 565.129 161.297C565.129 161.483 565.055 161.662 564.923 161.794C564.791 161.926 564.613 162 564.426 162Z" fill="white"/>
<path id="Vector_72" d="M451.974 183.089H338.91C338.724 183.089 338.545 183.015 338.413 182.883C338.281 182.751 338.207 182.572 338.207 182.386C338.207 182.2 338.281 182.021 338.413 181.889C338.545 181.757 338.724 181.683 338.91 181.683H451.974C452.16 181.683 452.339 181.757 452.471 181.889C452.603 182.021 452.677 182.2 452.677 182.386C452.677 182.572 452.603 182.751 452.471 182.883C452.339 183.015 452.16 183.089 451.974 183.089Z" fill="white"/>
</g>
<g id="Group_19">
<path id="Vector_73" d="M422.018 653.09H607.787L635.839 674.1V584.455C635.839 580.17 634.136 576.061 631.107 573.032C628.077 570.002 623.968 568.3 619.683 568.3H422.018C417.733 568.3 413.624 570.002 410.594 573.032C407.564 576.062 405.862 580.171 405.862 584.456V636.935C405.862 641.22 407.564 645.329 410.594 648.358C413.624 651.388 417.733 653.09 422.018 653.09V653.09Z" fill="#367CFF"/>
<path id="Vector_74" opacity="0.11" d="M422.018 653.09H607.787L635.839 674.1V584.455C635.839 580.17 634.136 576.061 631.107 573.032C628.077 570.002 623.968 568.3 619.683 568.3H422.018C417.733 568.3 413.624 570.002 410.594 573.032C407.564 576.062 405.862 580.171 405.862 584.456V636.935C405.862 641.22 407.564 645.329 410.594 648.358C413.624 651.388 417.733 653.09 422.018 653.09V653.09Z" fill="white"/>
<path id="Vector_75" d="M616.038 591.911H425.663C425.477 591.911 425.299 591.837 425.168 591.706C425.037 591.575 424.963 591.397 424.963 591.211C424.963 591.025 425.037 590.847 425.168 590.716C425.299 590.585 425.477 590.511 425.663 590.511H616.038C616.224 590.511 616.402 590.585 616.533 590.716C616.664 590.847 616.738 591.025 616.738 591.211C616.738 591.397 616.664 591.575 616.533 591.706C616.402 591.837 616.224 591.911 616.038 591.911V591.911Z" fill="white"/>
<path id="Vector_76" d="M616.038 613H425.663C425.477 613 425.298 612.926 425.166 612.794C425.034 612.662 424.96 612.483 424.96 612.297C424.96 612.111 425.034 611.932 425.166 611.8C425.298 611.668 425.477 611.594 425.663 611.594H616.038C616.224 611.594 616.403 611.668 616.535 611.8C616.667 611.932 616.741 612.111 616.741 612.297C616.741 612.483 616.667 612.662 616.535 612.794C616.403 612.926 616.224 613 616.038 613Z" fill="white"/>
<path id="Vector_77" d="M616.038 634.081H502.974C502.788 634.081 502.609 634.007 502.477 633.875C502.345 633.743 502.271 633.564 502.271 633.378C502.271 633.192 502.345 633.013 502.477 632.881C502.609 632.749 502.788 632.675 502.974 632.675H616.038C616.224 632.675 616.403 632.749 616.535 632.881C616.667 633.013 616.741 633.192 616.741 633.378C616.741 633.564 616.667 633.743 616.535 633.875C616.403 634.007 616.224 634.081 616.038 634.081V634.081Z" fill="white"/>
</g>
<g id="Group_20">
<path id="Vector_78" d="M422.018 363.966H607.787L635.839 384.977V275.331C635.839 271.046 634.137 266.937 631.107 263.907C628.077 260.877 623.968 259.175 619.683 259.175H422.018C417.733 259.175 413.624 260.877 410.594 263.907C407.564 266.937 405.862 271.046 405.862 275.331V347.81C405.862 352.095 407.564 356.204 410.594 359.234C413.624 362.264 417.733 363.966 422.018 363.966V363.966Z" fill="#367CFF"/>
<path id="Vector_79" opacity="0.11" d="M422.018 363.966H607.787L635.839 384.977V275.331C635.839 271.046 634.137 266.937 631.107 263.907C628.077 260.877 623.968 259.175 619.683 259.175H422.018C417.733 259.175 413.624 260.877 410.594 263.907C407.564 266.937 405.862 271.046 405.862 275.331V347.81C405.862 352.095 407.564 356.204 410.594 359.234C413.624 362.264 417.733 363.966 422.018 363.966V363.966Z" fill="white"/>
<path id="Vector_80" d="M616.038 302.787H425.663C425.477 302.787 425.299 302.713 425.168 302.582C425.037 302.451 424.963 302.273 424.963 302.087C424.963 301.901 425.037 301.723 425.168 301.592C425.299 301.461 425.477 301.387 425.663 301.387H616.038C616.13 301.387 616.221 301.405 616.306 301.44C616.391 301.475 616.468 301.527 616.533 301.592C616.598 301.657 616.649 301.734 616.685 301.819C616.72 301.904 616.738 301.995 616.738 302.087C616.738 302.179 616.72 302.27 616.685 302.355C616.649 302.44 616.598 302.517 616.533 302.582C616.468 302.647 616.391 302.698 616.306 302.734C616.221 302.769 616.13 302.787 616.038 302.787V302.787Z" fill="white"/>
<path id="Vector_81" d="M616.038 282.787H425.663C425.477 282.787 425.299 282.713 425.168 282.582C425.037 282.451 424.963 282.273 424.963 282.087C424.963 281.901 425.037 281.723 425.168 281.592C425.299 281.461 425.477 281.387 425.663 281.387H616.038C616.224 281.387 616.402 281.461 616.533 281.592C616.664 281.723 616.738 281.901 616.738 282.087C616.738 282.273 616.664 282.451 616.533 282.582C616.402 282.713 616.224 282.787 616.038 282.787V282.787Z" fill="white"/>
<path id="Vector_82" d="M616.038 323.872H425.663C425.477 323.872 425.298 323.798 425.166 323.666C425.034 323.534 424.96 323.355 424.96 323.169C424.96 322.982 425.034 322.804 425.166 322.672C425.298 322.54 425.477 322.466 425.663 322.466H616.038C616.224 322.466 616.403 322.54 616.535 322.672C616.667 322.804 616.741 322.982 616.741 323.169C616.741 323.355 616.667 323.534 616.535 323.666C616.403 323.798 616.224 323.872 616.038 323.872V323.872Z" fill="white"/>
<path id="Vector_83" d="M616.038 344.957H502.974C502.788 344.957 502.609 344.883 502.477 344.751C502.345 344.619 502.271 344.44 502.271 344.254C502.271 344.067 502.345 343.889 502.477 343.757C502.609 343.625 502.788 343.551 502.974 343.551H616.038C616.224 343.551 616.403 343.625 616.535 343.757C616.667 343.889 616.741 344.067 616.741 344.254C616.741 344.44 616.667 344.619 616.535 344.751C616.403 344.883 616.224 344.957 616.038 344.957V344.957Z" fill="white"/>
</g>
<g id="Group_21">
<path id="Vector_84" d="M568.071 511.645H347.161L319.109 532.656V440.9C319.109 436.615 320.811 432.506 323.841 429.476C326.871 426.446 330.98 424.744 335.265 424.744H568.071C572.356 424.744 576.465 426.446 579.495 429.476C582.525 432.506 584.227 436.615 584.227 440.9V495.49C584.227 497.611 583.809 499.712 582.997 501.672C582.185 503.632 580.995 505.413 579.495 506.914C577.995 508.414 576.214 509.604 574.254 510.415C572.293 511.227 570.193 511.645 568.071 511.645V511.645Z" fill="#367CFF"/>
<path id="Vector_85" opacity="0.49" d="M584.227 511.645H347.161L319.109 532.656V424.746H584.227V511.645Z" fill="white"/>
<path id="Vector_86" d="M564.426 448.358H338.91C338.724 448.358 338.545 448.284 338.413 448.152C338.281 448.02 338.207 447.841 338.207 447.655C338.207 447.468 338.281 447.29 338.413 447.158C338.545 447.026 338.724 446.952 338.91 446.952H564.426C564.613 446.952 564.791 447.026 564.923 447.158C565.055 447.29 565.129 447.468 565.129 447.655C565.129 447.841 565.055 448.02 564.923 448.152C564.791 448.284 564.613 448.358 564.426 448.358Z" fill="white"/>
<path id="Vector_87" d="M564.426 469.443H338.91C338.724 469.443 338.545 469.369 338.413 469.237C338.281 469.105 338.207 468.926 338.207 468.74C338.207 468.553 338.281 468.375 338.413 468.243C338.545 468.111 338.724 468.037 338.91 468.037H564.426C564.613 468.037 564.791 468.111 564.923 468.243C565.055 468.375 565.129 468.553 565.129 468.74C565.129 468.926 565.055 469.105 564.923 469.237C564.791 469.369 564.613 469.443 564.426 469.443V469.443Z" fill="white"/>
<path id="Vector_88" d="M451.974 490.933H338.91C338.724 490.933 338.546 490.859 338.415 490.728C338.284 490.597 338.21 490.419 338.21 490.233C338.21 490.047 338.284 489.869 338.415 489.738C338.546 489.607 338.724 489.533 338.91 489.533H451.974C452.16 489.533 452.338 489.607 452.469 489.738C452.6 489.869 452.674 490.047 452.674 490.233C452.674 490.419 452.6 490.597 452.469 490.728C452.338 490.859 452.16 490.933 451.974 490.933V490.933Z" fill="white"/>
</g>
<path id="Vector_89" d="M626.447 751.168H329.91C325.77 751.167 321.799 749.522 318.872 746.595C315.945 743.667 314.3 739.696 314.3 735.556V719.905C314.3 715.764 315.945 711.793 318.873 708.866C321.8 705.938 325.771 704.293 329.912 704.293H626.447C630.588 704.293 634.558 705.938 637.486 708.866C640.414 711.793 642.059 715.764 642.059 719.905V735.556C642.059 739.697 640.414 743.667 637.486 746.595C634.558 749.523 630.588 751.168 626.447 751.168V751.168ZM329.91 705.7C328.044 705.7 326.197 706.067 324.473 706.78C322.749 707.494 321.182 708.54 319.863 709.859C318.543 711.178 317.497 712.744 316.782 714.468C316.068 716.192 315.7 718.039 315.7 719.905V735.556C315.7 739.324 317.197 742.937 319.861 745.601C322.526 748.265 326.139 749.762 329.907 749.762H626.447C630.215 749.762 633.828 748.265 636.492 745.601C639.156 742.937 640.653 739.324 640.653 735.556V719.905C640.653 716.137 639.156 712.524 636.492 709.86C633.828 707.196 630.214 705.7 626.447 705.7H329.91Z" fill="#367CFF"/>
<path id="Vector_90" d="M601.279 717.635L606.727 726.732L627.822 717.57L608.807 730.206L615.301 741.049L631.801 715.679L601.279 717.635Z" fill="#0CBC8B"/>
</g>
</g>
</svg>
