<svg width="641" height="784" viewBox="0 0 641 784" fill="none" xmlns="http://www.w3.org/2000/svg">
<rect width="641" height="784" fill="#F0F5F8"/>
<g id="Resume" clip-path="url(#clip0_0_1)">
<g id="Group">
<path id="Vector" d="M601.119 13.3841L19.1544 31.9578L42.6903 769.403L624.655 750.83L601.119 13.3841Z" fill="#292A2E"/>
<path id="Vector_2" opacity="0.58" d="M601.119 13.3841L19.1544 31.9578L42.6903 769.403L624.655 750.83L601.119 13.3841Z" fill="white"/>
<g id="Group_2">
<g id="Group_3">
<path id="Vector_3" d="M579.832 0.53845L0.539246 48.3279L61.1183 782.654L640.411 734.865L579.832 0.53845Z" fill="white"/>
<path id="Vector_4" d="M579.375 1.079L639.875 734.409L61.575 782.115L1.079 48.785L579.379 1.079M580.29 0L0 47.871L60.66 783.194L640.95 735.323L580.29 0Z" fill="black"/>
</g>
<path id="Vector_5" d="M540.426 52.2255L276.02 74.038L277.598 93.157L542.003 71.3446L540.426 52.2255Z" fill="#292A2E"/>
<g id="Group_4">
<path id="Vector_6" d="M544.917 104.271L280.409 126.026L280.491 127.023L544.999 105.268L544.917 104.271Z" fill="black"/>
</g>
<g id="Group_5">
<path id="Vector_7" d="M547.814 139.381L283.306 161.136L283.388 162.133L547.896 140.378L547.814 139.381Z" fill="black"/>
</g>
<g id="Group_6">
<path id="Vector_8" d="M550.711 174.493L286.203 196.247L286.285 197.244L550.793 175.49L550.711 174.493Z" fill="black"/>
</g>
<g id="Group_7">
<path id="Vector_9" d="M553.607 209.603L289.099 231.358L289.181 232.355L553.689 210.6L553.607 209.603Z" fill="black"/>
</g>
<g id="Group_8">
<path id="Vector_10" d="M410.792 256.718L291.997 266.489L292.079 267.486L410.874 257.715L410.792 256.718Z" fill="black"/>
</g>
<path id="Vector_11" d="M560.909 300.502L68.3648 341.135L69.9421 360.254L562.486 319.621L560.909 300.502Z" fill="#292A2E"/>
<g id="Group_9">
<g id="Group_10">
<g id="Group_11">
<path id="Vector_12" d="M321.988 580.302L120.941 596.837L121.023 597.834L322.07 581.299L321.988 580.302Z" fill="black"/>
</g>
<g id="Group_12">
<path id="Vector_13" d="M325.398 621.622L124.351 638.158L124.433 639.155L325.48 622.619L325.398 621.622Z" fill="black"/>
</g>
<g id="Group_13">
<path id="Vector_14" d="M328.807 662.943L127.76 679.478L127.842 680.475L328.889 663.94L328.807 662.943Z" fill="black"/>
</g>
<g id="Group_14">
<path id="Vector_15" d="M332.216 704.265L131.169 720.8L131.251 721.797L332.298 705.262L332.216 704.265Z" fill="black"/>
</g>
</g>
<path id="Vector_16" d="M100.007 606.667C105.847 606.667 110.582 601.932 110.582 596.092C110.582 590.252 105.847 585.517 100.007 585.517C94.1666 585.517 89.432 590.252 89.432 596.092C89.432 601.932 94.1666 606.667 100.007 606.667Z" fill="#292A2E"/>
<path id="Vector_17" d="M110.457 733.343C116.297 733.343 121.032 728.608 121.032 722.768C121.032 716.928 116.297 712.193 110.457 712.193C104.617 712.193 99.882 716.928 99.882 722.768C99.882 728.608 104.617 733.343 110.457 733.343Z" fill="#292A2E"/>
<path id="Vector_18" d="M107.05 692.037C112.89 692.037 117.625 687.302 117.625 681.462C117.625 675.622 112.89 670.887 107.05 670.887C101.21 670.887 96.475 675.622 96.475 681.462C96.475 687.302 101.21 692.037 107.05 692.037Z" fill="#292A2E"/>
<path id="Vector_19" d="M103.528 649.352C109.368 649.352 114.103 644.617 114.103 638.777C114.103 632.937 109.368 628.202 103.528 628.202C97.6876 628.202 92.953 632.937 92.953 638.777C92.953 644.617 97.6876 649.352 103.528 649.352Z" fill="#292A2E"/>
</g>
<g id="Group_15">
<g id="Group_16">
<g id="Group_17">
<path id="Vector_20" d="M582.417 558.816L381.37 575.351L381.452 576.348L582.499 559.813L582.417 558.816Z" fill="black"/>
</g>
<g id="Group_18">
<path id="Vector_21" d="M585.827 600.137L384.78 616.673L384.862 617.67L585.909 601.134L585.827 600.137Z" fill="black"/>
</g>
<g id="Group_19">
<path id="Vector_22" d="M589.235 641.458L388.188 657.994L388.27 658.991L589.317 642.455L589.235 641.458Z" fill="black"/>
</g>
<g id="Group_20">
<path id="Vector_23" d="M592.645 682.78L391.598 699.315L391.68 700.312L592.727 683.777L592.645 682.78Z" fill="black"/>
</g>
</g>
<path id="Vector_24" d="M360.34 585.19C366.18 585.19 370.915 580.455 370.915 574.615C370.915 568.775 366.18 564.04 360.34 564.04C354.5 564.04 349.765 568.775 349.765 574.615C349.765 580.455 354.5 585.19 360.34 585.19Z" fill="#292A2E"/>
<path id="Vector_25" d="M370.79 711.866C376.63 711.866 381.365 707.131 381.365 701.291C381.365 695.451 376.63 690.716 370.79 690.716C364.95 690.716 360.215 695.451 360.215 701.291C360.215 707.131 364.95 711.866 370.79 711.866Z" fill="#292A2E"/>
<path id="Vector_26" d="M367.383 670.561C373.223 670.561 377.958 665.826 377.958 659.986C377.958 654.145 373.223 649.411 367.383 649.411C361.543 649.411 356.808 654.145 356.808 659.986C356.808 665.826 361.543 670.561 367.383 670.561Z" fill="#292A2E"/>
<path id="Vector_27" d="M363.862 627.876C369.702 627.876 374.437 623.141 374.437 617.301C374.437 611.461 369.702 606.726 363.862 606.726C358.022 606.726 353.287 611.461 353.287 617.301C353.287 623.141 358.022 627.876 363.862 627.876Z" fill="#292A2E"/>
</g>
<path id="Vector_28" d="M155.428 189.099C174.652 189.099 190.237 173.514 190.237 154.29C190.237 135.065 174.652 119.481 155.428 119.481C136.204 119.481 120.619 135.065 120.619 154.29C120.619 173.514 136.204 189.099 155.428 189.099Z" fill="#367CFF"/>
<path id="Vector_29" d="M242.612 240.179C234.065 252.914 222.758 263.561 209.533 271.328C196.307 279.095 181.502 283.783 166.216 285.044C150.93 286.305 135.556 284.106 121.237 278.612C106.917 273.117 94.0188 264.467 83.5 253.305C91.7796 240.234 102.978 229.262 116.215 221.251C129.452 213.24 144.367 208.409 159.787 207.137C175.207 205.864 190.712 208.186 205.083 213.92C219.454 219.653 232.299 228.642 242.609 240.179H242.612Z" fill="#367CFF"/>
<path id="Vector_30" d="M157.936 82.121C184.029 82.1492 209.101 92.2612 227.912 110.344C246.723 128.426 257.818 153.079 258.876 179.15C259.935 205.222 250.876 230.693 233.593 250.241C216.31 269.789 192.141 281.901 166.136 284.045C163.336 284.276 160.501 284.393 157.707 284.393C131.614 284.365 106.542 274.253 87.731 256.17C68.9198 238.088 57.8254 213.435 56.7667 187.364C55.7079 161.292 64.7668 135.821 82.0498 116.273C99.3328 96.7245 123.502 84.6128 149.507 82.469C152.307 82.238 155.14 82.121 157.937 82.121M157.937 81.121C155.123 81.121 152.281 81.237 149.427 81.472C136.06 82.5737 123.041 86.2976 111.113 92.4311C99.1848 98.5646 88.5818 106.987 79.9092 117.219C71.2366 127.45 64.6642 139.29 60.5673 152.061C56.4705 164.833 54.9294 178.286 56.032 191.653V191.653C58.1375 217.18 69.7574 240.984 88.5883 258.346C107.419 275.709 132.086 285.362 157.7 285.393C160.515 285.393 163.352 285.276 166.211 285.041C179.578 283.938 192.596 280.214 204.523 274.08C216.451 267.946 227.053 259.523 235.725 249.292C244.397 239.061 250.969 227.222 255.065 214.451C259.162 201.68 260.703 188.227 259.6 174.86C257.494 149.333 245.874 125.529 227.043 108.167C208.212 90.8042 183.545 81.1511 157.931 81.121H157.937Z" fill="black"/>
<g id="Group_21">
<g id="Group_22">
<path id="Vector_31" d="M565.816 357.573L73.0804 398.099L73.1624 399.096L565.898 358.57L565.816 357.573Z" fill="black"/>
</g>
<g id="Group_23">
<path id="Vector_32" d="M568.499 392.513L75.9497 433.078L76.0317 434.073L568.581 393.509L568.499 392.513Z" fill="black"/>
</g>
<g id="Group_24">
<path id="Vector_33" d="M571.395 427.612L78.8458 468.177L78.9278 469.172L571.477 428.608L571.395 427.612Z" fill="black"/>
</g>
<g id="Group_25">
<path id="Vector_34" d="M574.291 462.71L81.7407 503.274L81.8227 504.27L574.373 463.706L574.291 462.71Z" fill="black"/>
</g>
<g id="Group_26">
<path id="Vector_35" d="M203.465 528.82L84.6702 538.59L84.7522 539.587L203.547 529.817L203.465 528.82Z" fill="black"/>
</g>
</g>
</g>
<path id="Vector_36" d="M66.245 10.23C70.0176 10.7852 73.4307 12.774 75.7737 15.7826C78.1167 18.7911 79.2089 22.5874 78.823 26.381L73.593 82.881C73.3301 85.8445 71.9014 88.5824 69.6209 90.4931C67.3405 92.4038 64.3948 93.331 61.431 93.071C58.5694 92.7526 55.9468 91.3248 54.1262 89.0943C52.3055 86.8638 51.4319 84.0084 51.693 81.141L57.072 23.049C57.2194 21.2287 58.0366 19.5277 59.3657 18.2751C60.6947 17.0225 62.4411 16.3074 64.267 16.268C65.2754 16.2652 66.2733 16.4728 67.1968 16.8777C68.1203 17.2826 68.9492 17.8759 69.6303 18.6195C70.3114 19.3631 70.8298 20.2407 71.1522 21.1961C71.4747 22.1515 71.5942 23.1638 71.503 24.168L67.728 64.946C67.6824 65.437 67.4436 65.8898 67.0643 66.2048C66.6849 66.5199 66.196 66.6714 65.705 66.626V66.626C65.4617 66.6035 65.2251 66.5331 65.009 66.419C64.7929 66.305 64.6013 66.1494 64.4454 65.9612C64.2895 65.773 64.1721 65.5559 64.1002 65.3224C64.0282 65.0888 64.003 64.8434 64.026 64.6L67.786 23.983C67.8837 23.0955 67.6503 22.2031 67.1307 21.4769C66.611 20.7508 65.8416 20.242 64.97 20.048C64.4874 19.9548 63.9906 19.9636 63.5116 20.0738C63.0326 20.184 62.582 20.3932 62.1887 20.688C61.7954 20.9828 61.4681 21.3566 61.2279 21.7855C60.9877 22.2143 60.8399 22.6887 60.794 23.178L55.415 81.272C55.2247 83.0957 55.7177 84.9251 56.7985 86.4063C57.8794 87.8874 59.4712 88.915 61.266 89.29C62.2611 89.4793 63.2848 89.4586 64.2714 89.2292C65.258 88.9999 66.1859 88.567 66.9955 87.9583C67.8051 87.3496 68.4787 86.5785 68.973 85.6943C69.4673 84.8102 69.7715 83.8326 69.866 82.824L75.13 25.968C75.4127 23.0399 74.5214 20.1192 72.652 17.8478C70.7825 15.5764 68.0879 14.1399 65.16 13.854C62.3212 13.6431 59.5129 14.5542 57.3387 16.3916C55.1644 18.2289 53.7976 20.8458 53.532 23.68L49.015 72.457C48.9925 72.7001 48.9224 72.9363 48.8086 73.1522C48.6948 73.3681 48.5396 73.5595 48.3519 73.7155C48.1641 73.8714 47.9474 73.9888 47.7143 74.0609C47.4811 74.1331 47.236 74.1586 46.993 74.136C46.7499 74.1137 46.5136 74.0437 46.2975 73.9299C46.0815 73.8162 45.89 73.661 45.734 73.4732C45.5779 73.2854 45.4605 73.0687 45.3882 72.8355C45.316 72.6023 45.2904 72.3571 45.313 72.114L49.829 23.337C50.0121 21.3849 50.5867 19.4896 51.5186 17.7645C52.4504 16.0393 53.7204 14.5196 55.2527 13.2962C56.7849 12.0729 58.548 11.1708 60.4367 10.644C62.3253 10.1172 64.3008 9.97639 66.245 10.23Z" fill="#367CFF"/>
</g>
</g>
<defs>
<clipPath id="clip0_0_1">
<rect width="640.95" height="783.194" fill="white"/>
</clipPath>
</defs>
</svg>
