<svg width="77" height="75" viewBox="0 0 77 75" fill="none" xmlns="http://www.w3.org/2000/svg">
<rect width="77" height="75" rx="37.5" fill="#0CBC8B"/>
<path d="M36.25 19.9C39.95 19.9 43.1833 20.6333 45.95 22.1C48.7167 23.5667 50.85 25.6333 52.35 28.3C53.8833 30.9333 54.65 33.9833 54.65 37.45C54.65 40.8833 53.8833 43.9333 52.35 46.6C50.85 49.2667 48.7 51.3333 45.9 52.8C43.1333 54.2667 39.9167 55 36.25 55H23.1V19.9H36.25ZM35.7 47.6C38.9333 47.6 41.45 46.7167 43.25 44.95C45.05 43.1833 45.95 40.6833 45.95 37.45C45.95 34.2167 45.05 31.7 43.25 29.9C41.45 28.1 38.9333 27.2 35.7 27.2H31.65V47.6H35.7Z" fill="#FFFFFA"/>
</svg>
