<svg width="522" height="638" viewBox="0 0 1022 638" fill="none" xmlns="http://www.w3.org/2000/svg">
<path opacity="0.1" d="M938.781 300.027C906.5 185.738 735.392 189.824 640.216 158.368C507.782 107.775 387.129 -11.5238 238.886 0.901247C-42.9995 24.5322 -43.8996 363.609 74.5104 482.019C277.71 685.219 582.568 618.389 819.956 500.119C948.419 436.114 945.876 343.183 938.781 300.027Z" fill="white"/>
<path opacity="0.1" d="M938.781 300.027C906.5 185.738 735.392 189.824 640.216 158.368C507.782 107.775 387.129 -11.5238 238.886 0.901247C-42.9995 24.5322 -43.8996 363.609 74.5104 482.019C277.71 685.219 582.568 618.389 819.956 500.119C948.419 436.114 945.876 343.183 938.781 300.027Z" fill="#367CFF"/>
<path d="M174.893 548.604L750.784 548.604C764.927 548.604 776.391 537.14 776.391 522.997V101.357C776.391 87.2149 764.927 75.7503 750.784 75.7503L174.893 75.7503C160.751 75.7503 149.286 87.2149 149.286 101.357V522.997C149.286 537.14 160.751 548.604 174.893 548.604Z" fill="white"/>
<path d="M148.431 523.001V101.356C148.441 94.3418 151.232 87.6173 156.192 82.6579C161.153 77.6984 167.878 74.9089 174.892 74.9013H750.783C757.799 74.9089 764.525 77.6991 769.485 82.6596C774.446 87.6201 777.236 94.3459 777.244 101.361V523.001C777.236 530.017 774.446 536.743 769.485 541.703C764.525 546.664 757.799 549.454 750.783 549.462H174.892C167.877 549.454 161.151 546.664 156.19 541.703C151.23 536.743 148.439 530.017 148.431 523.001V523.001ZM174.892 76.6012C168.33 76.6087 162.038 79.2189 157.398 83.8594C152.757 88.4999 150.147 94.7916 150.139 101.354V523.001C150.147 529.564 152.757 535.856 157.397 540.497C162.038 545.137 168.33 547.748 174.892 547.755H750.783C757.346 547.748 763.638 545.138 768.279 540.497C772.92 535.856 775.53 529.564 775.537 523.001V101.356C775.53 94.7931 772.92 88.5007 768.28 83.8598C763.639 79.2188 757.347 76.6084 750.783 76.6012H174.892Z" fill="#292A2E"/>
<path d="M149.286 101.353V127.12H776.386V101.353C776.386 94.562 773.689 88.0489 768.887 83.2467C764.085 78.4445 757.572 75.7465 750.78 75.7463H174.893C168.102 75.7463 161.589 78.4441 156.786 83.2464C151.984 88.0486 149.286 94.5619 149.286 101.353Z" fill="#292A2E"/>
<path d="M492.815 287.442C480.584 290.112 469.764 279.826 464.255 270C457.772 258.439 455.102 244.956 446.984 234.274C439.698 224.863 429.092 218.592 417.336 216.744C411.998 215.807 406.528 215.924 401.236 217.089C398.775 217.702 396.371 218.525 394.052 219.55C384.014 223.929 375.903 231.834 369.601 240.644C362.148 251.06 357.001 263.08 353.471 275.349C349.487 289.449 347.454 304.028 347.429 318.679C347.318 334.224 349.398 349.706 353.61 364.669C357.963 380.247 364.906 394.982 374.15 408.255C384.036 422.281 396.53 434.272 410.95 443.575C418.936 448.708 427.407 453.045 436.241 456.523C446.814 460.539 457.983 462.766 469.289 463.11C493.989 464.18 519.066 458.421 541.413 448.035C546.924 445.476 552.277 442.59 557.443 439.39C559.081 438.375 557.576 435.778 555.929 436.799C534.76 449.859 510.804 457.732 486.015 459.775C474.407 460.825 462.709 460.189 451.285 457.886C441.508 455.655 432.084 452.091 423.278 447.293C407.943 439.293 394.324 428.367 383.187 415.134C373.018 402.865 365.078 388.91 359.727 373.901C354.537 359.39 351.489 344.201 350.678 328.811C349.841 314.247 350.971 299.637 354.038 285.374C356.668 272.602 361.3 260.325 367.761 248.997C373.247 239.654 380.45 230.954 389.64 225.259C393.707 222.642 398.216 220.783 402.947 219.773C414.262 217.473 426.668 220.938 435.91 227.595C440.673 231.078 444.661 235.511 447.622 240.615C450.982 246.299 453.313 252.495 455.771 258.6C458.156 264.522 460.62 270.531 464.356 275.751C467.786 280.756 472.324 284.903 477.617 287.87C482.484 290.579 488.16 291.454 493.617 290.337C495.502 289.926 494.704 287.037 492.817 287.445L492.815 287.442Z" fill="#367CFF"/>
<path d="M790.144 393.401C790.373 393.371 792.918 435.591 841.965 431.91C875.921 429.367 888.027 393.341 888.806 393.341C885.145 392.563 878.98 391.432 877.354 390.564C872.007 387.691 865.391 384.702 863.668 374.319C862.675 368.334 864.36 337.719 863.841 331.663L811.72 343.301C812.448 356.089 817.545 385.735 799.68 390.982C796.707 391.846 793.505 392.644 790.144 393.401Z" fill="#E98862"/>
<path opacity="0.52" d="M810.989 378.862C811.806 376.231 812.332 373.519 812.557 370.773C813.131 364.508 813.016 358.199 812.216 351.958C822.81 350.529 832.791 346.156 841.023 339.337C841.991 342.912 847.314 358.529 845.84 361.926C843.054 368.348 829.964 378.862 810.989 378.862Z" fill="#0C0C0C"/>
<path d="M793.135 286.928C793.135 286.928 780.8 272.96 782.345 246.901C783.54 226.725 799.04 243.109 799.04 243.109C799.04 243.109 800.04 228.591 810.052 232.09C820.064 235.589 822.81 251.614 822.81 251.614" fill="#0C0C0C"/>
<path d="M862.953 244.586C862.953 244.586 912.942 260.47 880.369 325.958L875.786 325.34L866.486 324.087" fill="#0C0C0C"/>
<path d="M818.348 365.284C838.865 367.584 865.574 359.758 871.49 332.478L876.828 307.863C882.744 280.583 873.212 255.363 847.528 249.79C821.842 244.22 797.847 262.171 791.928 289.451L789.565 300.351C788.819 304.107 788.329 307.909 788.1 311.731C787.42 321.831 786.424 337.189 791.038 348.657C795.4 359.48 805.24 363.818 818.348 365.284Z" fill="#E98862"/>
<path d="M799.136 302.029C800.93 302.029 802.384 300.575 802.384 298.781C802.384 296.987 800.93 295.533 799.136 295.533C797.343 295.533 795.888 296.987 795.888 298.781C795.888 300.575 797.343 302.029 799.136 302.029Z" fill="#0C0C0C"/>
<path d="M830.097 307.003C831.891 307.003 833.345 305.549 833.345 303.755C833.345 301.961 831.891 300.507 830.097 300.507C828.304 300.507 826.849 301.961 826.849 303.755C826.849 305.549 828.304 307.003 830.097 307.003Z" fill="#0C0C0C"/>
<path opacity="0.5" d="M817.344 340.041C813.097 339.688 808.993 338.342 805.361 336.112C805.283 336.07 805.214 336.012 805.158 335.942C805.102 335.872 805.061 335.792 805.037 335.705C805.013 335.619 805.007 335.529 805.019 335.441C805.03 335.352 805.059 335.267 805.105 335.19C805.15 335.113 805.21 335.045 805.282 334.992C805.354 334.939 805.435 334.901 805.522 334.88C805.609 334.858 805.699 334.855 805.787 334.87C805.876 334.884 805.96 334.916 806.035 334.964C813.884 339.576 821.492 340.029 828.035 336.274C828.168 336.195 828.304 336.122 828.444 336.056C828.606 335.996 828.785 336.001 828.943 336.07C829.101 336.139 829.226 336.266 829.292 336.426C829.358 336.585 829.36 336.764 829.297 336.924C829.233 337.085 829.11 337.215 828.953 337.286C828.902 337.31 828.816 337.361 828.698 337.429C825.258 339.41 821.305 340.32 817.344 340.041V340.041Z" fill="#0C0C0C"/>
<path opacity="0.52" d="M816.736 346.324C815.967 346.273 815.204 346.155 814.454 345.974C814.283 345.933 814.134 345.826 814.042 345.675C813.95 345.525 813.921 345.344 813.962 345.173C814.003 345.001 814.11 344.853 814.261 344.76C814.411 344.668 814.592 344.639 814.763 344.68C819.271 345.754 821.722 343.941 821.825 343.863C821.965 343.755 822.142 343.707 822.317 343.73C822.492 343.752 822.651 343.843 822.759 343.983C822.867 344.122 822.915 344.299 822.892 344.474C822.87 344.649 822.779 344.808 822.639 344.916C820.893 346.053 818.808 346.55 816.736 346.324V346.324Z" fill="#0C0C0C"/>
<path d="M868.092 340.443C875.898 342.136 884.037 335.158 885.73 327.352C887.423 319.546 882.03 313.869 874.222 312.176L869.066 316.534L861.381 338.988L868.092 340.443Z" fill="#E98862"/>
<path d="M862.868 326.283C862.868 326.283 868.104 287.043 856.855 282.264C849.364 279.081 828.155 286.309 811.279 279.386C803.897 276.358 796.218 276.774 794.738 280.251C794.152 281.628 793.57 260.011 808.787 246.793C820.902 236.269 852.957 239.128 866.381 246.12C903.553 265.483 875.49 314.21 875.49 314.21L871.013 327.194L862.868 326.283Z" fill="#0C0C0C"/>
<g opacity="0.52">
<path d="M810.613 328.878C810.595 328.878 810.579 328.878 810.563 328.869C808.046 328.33 803.884 327.146 804.285 325.262C804.621 323.703 812.496 307.777 813.394 305.962C813.431 305.882 813.483 305.81 813.548 305.75C813.612 305.691 813.688 305.645 813.771 305.615C813.854 305.586 813.942 305.573 814.03 305.578C814.118 305.584 814.204 305.606 814.283 305.645C814.362 305.684 814.432 305.739 814.489 305.806C814.547 305.873 814.59 305.95 814.617 306.034C814.643 306.118 814.653 306.206 814.645 306.294C814.637 306.382 814.611 306.467 814.569 306.544C811.075 313.596 805.796 324.472 805.569 325.532C805.722 326.032 808.233 327.024 810.838 327.582C811.002 327.62 811.145 327.718 811.238 327.858C811.331 327.998 811.367 328.168 811.339 328.333C811.31 328.499 811.219 328.647 811.085 328.747C810.95 328.848 810.782 328.893 810.615 328.873L810.613 328.878Z" fill="#0C0C0C"/>
</g>
<path d="M810.2 288.985C807.731 287.726 804.967 287.156 802.2 287.336C800.841 287.416 799.501 287.699 798.225 288.176C796.964 288.643 795.767 289.268 794.661 290.034C794.48 290.152 794.352 290.336 794.304 290.547C794.257 290.758 794.293 290.98 794.406 291.164C794.518 291.349 794.698 291.483 794.908 291.537C795.117 291.591 795.339 291.561 795.527 291.454L795.585 291.422C796.599 290.799 797.686 290.306 798.822 289.954C799.942 289.602 801.109 289.421 802.283 289.418C804.604 289.394 806.891 289.984 808.91 291.127L808.986 291.172C809.272 291.341 809.613 291.39 809.934 291.308C810.256 291.225 810.531 291.019 810.7 290.733C810.87 290.448 810.918 290.107 810.836 289.785C810.754 289.464 810.547 289.188 810.261 289.019L810.2 288.985Z" fill="#0C0C0C"/>
<path d="M828.685 294.065C830.936 293.496 833.297 293.533 835.528 294.172C836.66 294.486 837.737 294.97 838.723 295.606C839.726 296.246 840.644 297.009 841.456 297.878L841.501 297.923C841.655 298.074 841.861 298.16 842.076 298.162C842.291 298.165 842.499 298.084 842.656 297.937C842.813 297.79 842.906 297.588 842.918 297.373C842.929 297.158 842.856 296.947 842.715 296.784C841.852 295.752 840.862 294.834 839.769 294.049C838.666 293.251 837.449 292.623 836.159 292.186C833.539 291.282 830.724 291.099 828.008 291.658C827.69 291.733 827.413 291.93 827.238 292.207C827.063 292.484 827.003 292.818 827.072 293.138C827.14 293.458 827.332 293.739 827.605 293.919C827.878 294.1 828.211 294.166 828.532 294.104L828.595 294.089L828.685 294.065Z" fill="#0C0C0C"/>
<path d="M835.897 252.497C839.414 244.334 837.769 235.779 832.223 233.389C826.676 230.999 819.329 235.68 815.811 243.844C812.294 252.007 813.939 260.562 819.485 262.952C825.032 265.341 832.379 260.661 835.897 252.497Z" fill="#0C0C0C"/>
<path d="M842.939 421.383C877.031 419.776 878.466 390.839 878.466 390.839C878.466 390.839 895.358 391.931 906.587 393.451C924.972 395.938 937.1 402.172 946.751 411.823C955.729 420.801 961.195 430.515 955.411 492.534C951.223 537.434 954.171 636.213 954.171 636.213H748.42C748.42 636.213 736.082 506.748 734.362 486.534C731.08 447.944 728.415 414.327 736.426 406.316C752.897 389.845 785.226 390.839 799.384 390.842C799.615 390.842 796.512 423.571 842.939 421.383Z" fill="#367CFF"/>
<path d="M786.572 560.821L756.643 544.168C755.986 543.802 755.259 543.577 754.51 543.508C753.76 543.438 753.005 543.525 752.291 543.764C751.577 544.002 750.921 544.387 750.364 544.893C749.807 545.399 749.361 546.016 749.055 546.703C748.53 547.99 748.501 549.426 748.975 550.733C749.449 552.04 750.391 553.125 751.618 553.776L758.036 557.346L732.7 555.381C729.887 555.113 726.264 556.581 726.172 559.759C726.057 560.979 726.358 562.201 727.027 563.228C727.696 564.254 728.693 565.023 729.855 565.41C729.846 565.436 729.84 565.463 729.836 565.49C729.837 565.511 729.84 565.532 729.843 565.552L725.505 565.139C724.702 565.064 723.892 565.168 723.134 565.445C722.376 565.722 721.69 566.165 721.124 566.741C720.559 567.317 720.13 568.012 719.867 568.774C719.604 569.537 719.515 570.349 719.605 571.151C719.774 572.412 720.369 573.576 721.293 574.45C722.217 575.324 723.414 575.854 724.681 575.951L726.527 576.127C726.547 576.183 726.576 576.235 726.613 576.28C725.338 576.45 724.165 577.068 723.304 578.024C722.443 578.979 721.95 580.21 721.913 581.496C721.915 582.904 722.447 584.26 723.404 585.292C724.36 586.325 725.672 586.959 727.075 587.067L731.66 587.503C731.591 587.543 731.532 587.598 731.489 587.665C731.445 587.732 731.418 587.808 731.41 587.887C731.405 587.982 731.428 588.076 731.475 588.157C730.382 588.625 729.473 589.438 728.888 590.473C728.302 591.507 728.073 592.706 728.234 593.883C728.43 595.117 729.036 596.248 729.954 597.094C730.872 597.941 732.049 598.452 733.294 598.546L771.98 602.226C777.392 602.74 782.834 601.627 787.609 599.028C792.384 596.43 796.274 592.465 798.78 587.641V587.641C800.942 583.482 801.397 578.643 800.047 574.154C798.698 569.665 795.652 565.878 791.555 563.599L786.572 560.821Z" fill="#E98862"/>
<g opacity="0.2">
<path d="M754.924 567.48C754.91 567.61 754.847 567.73 754.746 567.814C754.646 567.897 754.517 567.939 754.387 567.928L730.295 566.028C730.229 566.023 730.165 566.005 730.106 565.975C730.048 565.945 729.995 565.904 729.953 565.854C729.91 565.804 729.877 565.746 729.857 565.683C729.837 565.62 729.829 565.554 729.834 565.489C729.839 565.423 729.857 565.359 729.887 565.3C729.917 565.242 729.958 565.189 730.008 565.147C730.059 565.104 730.117 565.071 730.179 565.051C730.242 565.031 730.308 565.023 730.374 565.028L754.466 566.928C754.531 566.933 754.595 566.951 754.653 566.981C754.712 567.011 754.764 567.052 754.807 567.102C754.849 567.152 754.882 567.21 754.902 567.272C754.922 567.335 754.93 567.401 754.925 567.466L754.924 567.48Z" fill="#0C0C0C"/>
<path d="M754.378 578.129C754.365 578.259 754.301 578.379 754.201 578.462C754.101 578.546 753.972 578.587 753.841 578.576L726.954 576.456C726.889 576.451 726.825 576.433 726.767 576.403C726.708 576.373 726.656 576.332 726.614 576.282C726.571 576.232 726.539 576.174 726.518 576.112C726.498 576.05 726.49 575.984 726.495 575.918C726.51 575.788 726.573 575.667 726.673 575.582C726.773 575.497 726.902 575.453 727.033 575.459L753.92 577.579C753.986 577.584 754.05 577.602 754.108 577.632C754.167 577.662 754.219 577.703 754.261 577.753C754.304 577.803 754.336 577.861 754.357 577.923C754.377 577.986 754.385 578.052 754.379 578.117L754.378 578.129Z" fill="#0C0C0C"/>
<path d="M753.855 589.665C753.841 589.795 753.778 589.915 753.677 589.999C753.577 590.082 753.448 590.124 753.318 590.113L731.871 588.422C731.738 588.412 731.615 588.349 731.529 588.248C731.442 588.147 731.4 588.015 731.41 587.883C731.42 587.75 731.483 587.627 731.584 587.541C731.686 587.454 731.817 587.412 731.949 587.422L753.397 589.113C753.462 589.118 753.526 589.136 753.584 589.166C753.643 589.196 753.695 589.237 753.737 589.287C753.78 589.337 753.812 589.395 753.833 589.457C753.853 589.52 753.861 589.586 753.856 589.651L753.855 589.665Z" fill="#0C0C0C"/>
</g>
<path d="M769.576 614.518L956.414 635.493C962.174 636.12 968.001 635.404 973.438 633.4C978.875 631.397 983.773 628.161 987.749 623.947C991.725 619.732 994.67 614.654 996.354 609.11C998.037 603.566 998.414 597.707 997.452 591.993L957.61 432.393C956.793 427.537 955.028 422.889 952.415 418.715C949.801 414.541 946.391 410.923 942.38 408.066C934.278 402.298 924.216 399.984 914.408 401.634C904.601 403.284 895.85 408.763 890.081 416.865C884.313 424.967 881.999 435.028 883.649 444.836L914.205 561.071L778.441 547.522L769.576 614.518Z" fill="#367CFF"/>
<path d="M938.559 564.559C938.692 564.569 938.823 564.526 938.924 564.439C939.025 564.352 939.087 564.229 939.096 564.096C939.106 563.964 939.063 563.832 938.976 563.732C938.889 563.631 938.766 563.569 938.633 563.559L915.345 560.072C915.28 560.062 915.214 560.064 915.15 560.08C915.086 560.095 915.025 560.123 914.972 560.162C914.919 560.201 914.875 560.251 914.841 560.307C914.807 560.364 914.785 560.427 914.776 560.492C914.757 560.623 914.79 560.757 914.869 560.863C914.948 560.97 915.065 561.04 915.196 561.06L938.485 564.548C938.51 564.554 938.535 564.557 938.559 564.559V564.559Z" fill="#0C0C0C"/>
<path d="M951.213 636.213C951.346 636.222 951.476 636.177 951.576 636.089C951.676 636.002 951.737 635.878 951.745 635.745C951.754 635.613 951.709 635.482 951.621 635.382C951.534 635.283 951.41 635.222 951.277 635.213L770.623 614.139L779.38 548.139L914.205 561.067C914.283 561.077 914.361 561.069 914.435 561.043C914.509 561.017 914.576 560.975 914.63 560.919C914.685 560.863 914.725 560.795 914.749 560.72C914.772 560.645 914.777 560.566 914.764 560.488L900.174 492.547C900.164 492.482 900.141 492.419 900.107 492.363C900.072 492.307 900.027 492.258 899.973 492.22C899.919 492.182 899.859 492.155 899.794 492.141C899.73 492.126 899.663 492.125 899.598 492.137C899.468 492.159 899.351 492.232 899.274 492.34C899.197 492.448 899.166 492.583 899.188 492.713L913.665 559.986L779 547.079C778.934 547.07 778.867 547.075 778.802 547.093C778.738 547.11 778.678 547.141 778.625 547.182C778.573 547.223 778.529 547.275 778.497 547.333C778.465 547.392 778.444 547.456 778.437 547.522L769.572 614.522C769.558 614.652 769.595 614.783 769.676 614.885C769.757 614.988 769.875 615.055 770.004 615.072L951.143 636.213C951.167 636.215 951.19 636.215 951.213 636.213Z" fill="#0C0C0C"/>
<path d="M567.167 291.568C566.934 290.87 566.561 290.227 566.07 289.677C565.58 289.128 564.983 288.685 564.316 288.374C563.648 288.063 562.925 287.891 562.189 287.869C561.453 287.847 560.72 287.976 560.035 288.246C558.728 288.816 557.686 289.86 557.12 291.169C556.554 292.477 556.505 293.952 556.984 295.294L559.304 302.235L541.929 283.691C540.029 281.591 536.366 280.236 534.156 282.518C533.25 283.341 532.648 284.446 532.45 285.654C532.253 286.862 532.47 288.102 533.067 289.17C533.041 289.184 533.017 289.2 532.994 289.219C532.981 289.235 532.969 289.252 532.958 289.27L532.863 289.161C532.325 288.566 531.661 288.098 530.919 287.791C530.177 287.484 529.377 287.345 528.575 287.384C527.774 287.424 526.991 287.641 526.283 288.019C525.575 288.398 524.96 288.929 524.482 289.574C523.742 290.618 523.386 291.886 523.473 293.163C523.56 294.44 524.086 295.648 524.961 296.581L525.917 297.669C525.893 297.725 525.879 297.785 525.876 297.845C524.847 297.164 523.604 296.881 522.381 297.049C521.158 297.217 520.038 297.825 519.23 298.759C518.261 299.805 517.726 301.18 517.732 302.606C517.738 304.032 518.285 305.402 519.263 306.439C519.111 306.408 519.176 306.698 519.049 306.812C518.982 306.878 518.935 306.963 518.915 307.056C517.824 306.674 516.638 306.651 515.533 306.991C514.427 307.331 513.459 308.015 512.77 308.944C512.03 309.988 511.673 311.256 511.76 312.533C511.848 313.81 512.373 315.017 513.248 315.951L539.32 344.768C542.968 348.8 547.736 351.65 553.014 352.954C558.292 354.258 563.838 353.956 568.943 352.086L585.38 346.067L567.167 291.568Z" fill="#E98862"/>
<path opacity="0.2" d="M520.905 324.676C521.869 325.705 523.177 326.345 524.58 326.476C524.761 326.494 524.944 326.503 525.128 326.503C526.021 326.515 526.904 326.316 527.707 325.924C528.509 325.532 529.207 324.957 529.747 324.245C530.286 323.533 530.65 322.704 530.81 321.826C530.97 320.947 530.922 320.044 530.668 319.187C531.484 319.741 532.425 320.082 533.405 320.179C533.592 320.196 533.781 320.205 533.971 320.206C534.901 320.218 535.821 320.008 536.654 319.595C537.487 319.182 538.21 318.577 538.764 317.829C539.317 317.082 539.685 316.214 539.838 315.296C539.991 314.379 539.923 313.438 539.641 312.552C540.417 313.044 541.296 313.348 542.209 313.441C542.396 313.459 542.585 313.468 542.775 313.468C543.592 313.473 544.401 313.31 545.152 312.99C545.903 312.669 546.58 312.197 547.141 311.603C548.184 310.425 548.744 308.896 548.708 307.323C548.672 305.75 548.044 304.248 546.948 303.118L535.39 290.676C535.346 290.627 535.292 290.586 535.232 290.558C535.172 290.529 535.107 290.513 535.041 290.51C534.974 290.507 534.908 290.517 534.845 290.54C534.783 290.563 534.726 290.598 534.677 290.643C534.628 290.689 534.589 290.743 534.562 290.804C534.534 290.864 534.519 290.93 534.518 290.996C534.516 291.063 534.527 291.129 534.552 291.191C534.576 291.253 534.612 291.309 534.658 291.357L546.218 303.803C547.141 304.745 547.675 306.001 547.712 307.32C547.749 308.638 547.287 309.922 546.418 310.914C545.95 311.407 545.385 311.799 544.76 312.066C544.135 312.333 543.462 312.471 542.782 312.469C542.102 312.468 541.429 312.328 540.805 312.058C540.181 311.788 539.618 311.394 539.151 310.899C539.066 310.809 538.412 310.142 538.151 309.865L526.887 297.55C526.799 297.451 526.675 297.391 526.543 297.384C526.41 297.376 526.28 297.421 526.181 297.509C526.082 297.597 526.022 297.721 526.015 297.854C526.007 297.986 526.052 298.116 526.14 298.215L537.414 310.541C538.337 311.483 538.871 312.739 538.908 314.058C538.945 315.376 538.483 316.66 537.614 317.652C537.146 318.144 536.582 318.536 535.957 318.803C535.333 319.071 534.66 319.208 533.981 319.207C533.301 319.206 532.629 319.067 532.005 318.798C531.381 318.529 530.818 318.136 530.351 317.642L519.892 306.548C519.802 306.454 519.679 306.399 519.549 306.395C519.419 306.391 519.292 306.437 519.196 306.525C519.099 306.612 519.041 306.734 519.033 306.864C519.025 306.994 519.068 307.121 519.152 307.22L528.452 317.141C529.343 318.05 529.858 319.263 529.894 320.535C529.93 321.807 529.484 323.046 528.645 324.004C528.193 324.479 527.65 324.857 527.047 325.115C526.444 325.373 525.795 325.505 525.14 325.504C524.484 325.504 523.836 325.369 523.234 325.11C522.632 324.85 522.089 324.471 521.638 323.995L520.905 324.676Z" fill="#0C0C0C"/>
<path d="M542.73 295.139C541.562 295.141 540.439 294.686 539.6 293.872C536.472 290.843 532.788 287.756 531.716 287.265C527.209 285.249 520.38 284.253 518.129 284.039C517.535 283.991 516.957 283.825 516.428 283.551C515.899 283.277 515.429 282.901 515.046 282.444C514.664 281.987 514.376 281.459 514.199 280.89C514.022 280.321 513.96 279.722 514.016 279.129C514.072 278.536 514.246 277.96 514.527 277.434C514.807 276.909 515.19 276.444 515.651 276.067C516.113 275.691 516.645 275.409 517.216 275.24C517.788 275.07 518.387 275.016 518.979 275.08C519.37 275.117 528.624 276.022 535.393 279.05C538.572 280.473 544.21 285.807 545.862 287.408C546.506 288.032 546.948 288.833 547.133 289.71C547.318 290.587 547.237 291.499 546.901 292.329C546.565 293.159 545.988 293.87 545.245 294.371C544.502 294.872 543.626 295.139 542.73 295.139Z" fill="#E98862"/>
<path d="M491.907 294.533L493.316 281.402L592.296 290.712L590.886 303.842L491.907 294.533Z" fill="#367CFF"/>
<path opacity="0.5" d="M491.907 294.533L493.316 281.402L592.296 290.712L590.886 303.842L491.907 294.533Z" fill="white"/>
<path d="M601.774 304.979L603.183 291.849L592.296 290.712L590.886 303.842L601.774 304.979Z" fill="#262626"/>
<path d="M491.907 294.533C491.907 294.533 488.634 292.225 485.707 290.149C483.388 288.503 481.288 287.002 481.215 286.914C482.865 286.001 484.568 285.187 486.315 284.478C489.615 283.001 493.315 281.402 493.315 281.402L491.907 294.533Z" fill="#367CFF"/>
<path opacity="0.9" d="M491.907 294.533C491.907 294.533 488.634 292.225 485.707 290.149C483.388 288.503 481.288 287.002 481.215 286.914C482.865 286.001 484.568 285.187 486.315 284.478C489.615 283.001 493.315 281.402 493.315 281.402L491.907 294.533Z" fill="white"/>
<path d="M485.71 290.149C483.391 288.503 481.291 287.002 481.218 286.914C482.868 286.001 484.571 285.187 486.318 284.478L485.71 290.149Z" fill="#262626"/>
<path d="M492.374 290.447L591.331 299.519L591.269 300.118L492.312 291.047L492.374 290.447Z" fill="white"/>
<path d="M492.923 285.31L591.88 294.381L591.818 294.981L492.861 285.909L492.923 285.31Z" fill="white"/>
<path d="M560.063 304.817L556.984 295.294C556.505 293.952 556.554 292.477 557.12 291.169C557.686 289.86 558.728 288.816 560.035 288.246C560.72 287.976 561.453 287.847 562.189 287.869C562.925 287.891 563.648 288.063 564.316 288.374C564.983 288.685 565.58 289.128 566.07 289.677C566.561 290.227 566.934 290.87 567.167 291.568L572.546 307.668" fill="#E98862"/>
<path d="M630.055 508.333C623.296 508.332 616.663 506.504 610.858 503.043C605.052 499.582 600.289 494.616 597.073 488.671L522.473 346.058L584.44 312.373L648.712 426.501L758.773 394.463L776.39 468.284L640.357 506.884C637.007 507.844 633.54 508.332 630.055 508.333Z" fill="#367CFF"/>
<path d="M733.826 480.687C733.703 480.688 733.584 480.644 733.492 480.562C733.4 480.481 733.341 480.368 733.326 480.246L730.333 454.731C730.326 454.666 730.331 454.6 730.349 454.537C730.366 454.473 730.396 454.414 730.437 454.362C730.478 454.311 730.528 454.268 730.586 454.236C730.643 454.203 730.706 454.183 730.771 454.175C730.903 454.162 731.034 454.2 731.138 454.282C731.242 454.364 731.309 454.483 731.326 454.614L734.319 480.128C734.327 480.194 734.322 480.26 734.304 480.323C734.286 480.387 734.256 480.446 734.215 480.497C734.175 480.549 734.124 480.592 734.066 480.624C734.009 480.656 733.946 480.677 733.88 480.684C733.862 480.686 733.844 480.687 733.826 480.687V480.687Z" fill="#0C0C0C"/>
<path d="M270.923 153.079H187.827C181.599 153.079 176.549 158.129 176.549 164.357V505.147C176.549 511.376 181.599 516.425 187.827 516.425H270.923C277.152 516.425 282.201 511.376 282.201 505.147V164.357C282.201 158.129 277.152 153.079 270.923 153.079Z" fill="#292A2E"/>
<path d="M174.659 617.001C174.827 617.002 174.992 616.955 175.135 616.867C175.277 616.778 175.393 616.652 175.467 616.501L199.152 567.923C199.238 567.712 199.24 567.476 199.158 567.263C199.076 567.051 198.917 566.877 198.712 566.777C198.508 566.677 198.272 566.659 198.055 566.725C197.837 566.792 197.652 566.939 197.538 567.136L173.853 615.714C173.787 615.851 173.757 616.002 173.765 616.154C173.773 616.306 173.82 616.453 173.9 616.582C173.981 616.711 174.093 616.817 174.225 616.891C174.358 616.965 174.507 617.004 174.659 617.005V617.001Z" fill="#292A2E"/>
<path d="M134.623 614.184C134.822 614.184 135.015 614.118 135.172 613.997C135.329 613.876 135.442 613.706 135.492 613.514L162.9 508.88C162.943 508.656 162.898 508.425 162.777 508.232C162.655 508.04 162.464 507.901 162.244 507.843C162.024 507.785 161.79 507.813 161.589 507.921C161.388 508.029 161.236 508.209 161.163 508.425L133.754 613.059C133.72 613.192 133.717 613.331 133.744 613.465C133.772 613.6 133.83 613.726 133.914 613.834C133.997 613.943 134.105 614.031 134.228 614.092C134.351 614.152 134.486 614.184 134.623 614.184V614.184Z" fill="#292A2E"/>
<path d="M82.3433 618.815C82.4637 618.815 82.5828 618.791 82.6933 618.743C82.9121 618.65 83.085 618.473 83.1742 618.253C83.2634 618.032 83.2617 617.785 83.1693 617.566L54.8383 550.844C54.7346 550.642 54.5582 550.487 54.3446 550.409C54.131 550.332 53.896 550.338 53.6867 550.427C53.4775 550.515 53.3095 550.68 53.2165 550.887C53.1235 551.094 53.1124 551.329 53.1853 551.544L81.5163 618.267C81.5853 618.43 81.7005 618.568 81.8475 618.665C81.9945 618.763 82.167 618.815 82.3433 618.815V618.815Z" fill="#292A2E"/>
<path d="M133.607 634.275C133.681 634.276 133.755 634.267 133.826 634.248C134.057 634.19 134.255 634.043 134.378 633.839C134.5 633.634 134.537 633.39 134.479 633.159L101.559 501.459C101.49 501.241 101.34 501.057 101.14 500.945C100.94 500.833 100.705 500.801 100.483 500.857C100.26 500.913 100.067 501.051 99.9436 501.244C99.8198 501.437 99.7742 501.67 99.8163 501.895L132.737 633.595C132.786 633.789 132.898 633.961 133.056 634.084C133.213 634.208 133.407 634.275 133.607 634.275V634.275Z" fill="#292A2E"/>
<path d="M121.931 528.446C130.863 509.669 125.035 488.23 108.913 480.562C92.7915 472.893 72.4816 481.897 63.5497 500.674C54.6177 519.451 60.446 540.89 76.5676 548.558C92.6891 556.227 112.999 547.222 121.931 528.446Z" fill="#0CBC8B"/>
<path opacity="0.4" d="M121.931 528.446C130.863 509.669 125.035 488.23 108.913 480.562C92.7915 472.893 72.4816 481.897 63.5497 500.674C54.6177 519.451 60.446 540.89 76.5676 548.558C92.6891 556.227 112.999 547.222 121.931 528.446Z" fill="white"/>
<path d="M66.5234 571.797C71.1822 560.229 67.1007 547.687 57.407 543.783C47.7133 539.879 36.0783 546.091 31.4195 557.659C26.7606 569.227 30.8422 581.769 40.5358 585.673C50.2295 589.577 61.8645 583.365 66.5234 571.797Z" fill="#0CBC8B"/>
<path d="M180.752 556.953C195.151 552.586 202.479 534.719 197.119 517.047C191.759 499.375 175.74 488.589 161.341 492.956C146.942 497.324 139.614 515.19 144.974 532.863C150.335 550.535 166.353 561.321 180.752 556.953Z" fill="#0CBC8B"/>
<path d="M205.516 594.562C213.554 593.216 218.534 582.953 216.64 571.64C214.745 560.327 206.692 552.247 198.654 553.593C190.616 554.939 185.636 565.202 187.531 576.515C189.426 587.829 197.478 595.908 205.516 594.562Z" fill="#0CBC8B"/>
<path d="M55.9193 635.51H195.76V600.662H55.9193V635.51Z" fill="#292A2E"/>
<path opacity="0.3" d="M55.9193 635.51H195.76V600.662H55.9193V635.51Z" fill="white"/>
<path d="M122.198 591.904C127.881 577.792 122.858 562.474 110.978 557.689C99.0977 552.904 84.8595 560.465 79.1761 574.577C73.4926 588.689 78.516 604.007 90.3962 608.792C102.276 613.577 116.514 606.016 122.198 591.904Z" fill="#0CBC8B"/>
<path d="M153.236 605.295C165.068 605.295 174.66 595.703 174.66 583.871C174.66 572.039 165.068 562.447 153.236 562.447C141.404 562.447 131.812 572.039 131.812 583.871C131.812 595.703 141.404 605.295 153.236 605.295Z" fill="#0CBC8B"/>
<path opacity="0.68" d="M66.5234 571.797C71.1822 560.229 67.1007 547.687 57.407 543.783C47.7133 539.879 36.0783 546.091 31.4195 557.659C26.7606 569.227 30.8422 581.769 40.5358 585.673C50.2295 589.577 61.8645 583.365 66.5234 571.797Z" fill="white"/>
<path opacity="0.68" d="M180.752 556.953C195.151 552.586 202.479 534.719 197.119 517.047C191.759 499.375 175.74 488.589 161.341 492.956C146.942 497.324 139.614 515.19 144.974 532.863C150.335 550.535 166.353 561.321 180.752 556.953Z" fill="white"/>
<path opacity="0.68" d="M205.516 594.562C213.554 593.216 218.534 582.953 216.64 571.64C214.745 560.327 206.692 552.247 198.654 553.593C190.616 554.939 185.636 565.202 187.531 576.515C189.426 587.829 197.478 595.908 205.516 594.562Z" fill="white"/>
<path opacity="0.68" d="M122.198 591.904C127.881 577.792 122.858 562.474 110.978 557.689C99.0977 552.904 84.8595 560.465 79.1761 574.577C73.4926 588.689 78.516 604.007 90.3962 608.792C102.276 613.577 116.514 606.016 122.198 591.904Z" fill="white"/>
<path opacity="0.4" d="M153.236 605.295C165.068 605.295 174.66 595.703 174.66 583.871C174.66 572.039 165.068 562.447 153.236 562.447C141.404 562.447 131.812 572.039 131.812 583.871C131.812 595.703 141.404 605.295 153.236 605.295Z" fill="white"/>
<path d="M84.4224 565.835C100.683 570.378 109.241 557.089 109.241 557.089L109.232 557.071C100.558 554.485 90.9414 558.122 84.4224 565.835Z" fill="#292A2E"/>
<path d="M187.135 571.276C195.141 568.211 201.774 562.365 205.821 554.808C203.628 553.637 201.113 553.212 198.656 553.596C191.885 554.728 187.288 562.189 187.135 571.276Z" fill="#292A2E"/>
<path d="M149.414 562.791C155.65 568.41 163.442 572.007 171.763 573.108C169.547 569.303 166.214 566.271 162.216 564.425C158.217 562.58 153.748 562.009 149.414 562.791V562.791Z" fill="#292A2E"/>
<path d="M1.00049 637.213H1020.65C1020.91 637.213 1021.17 637.108 1021.35 636.92C1021.54 636.733 1021.65 636.478 1021.65 636.213C1021.65 635.948 1021.54 635.694 1021.35 635.506C1021.17 635.319 1020.91 635.213 1020.65 635.213H1.00049C0.735272 635.213 0.480918 635.319 0.293382 635.506C0.105845 635.694 0.000488281 635.948 0.000488281 636.213C0.000488281 636.478 0.105845 636.733 0.293382 636.92C0.480918 637.108 0.735272 637.213 1.00049 637.213V637.213Z" fill="#292A2E"/>
<path d="M214.112 232.875H196.21C193.738 232.875 191.734 234.879 191.734 237.351V255.253C191.734 257.725 193.738 259.729 196.21 259.729H214.112C216.584 259.729 218.588 257.725 218.588 255.253V237.351C218.588 234.879 216.584 232.875 214.112 232.875Z" fill="#292A2E"/>
<path d="M214.112 260.229H196.212C194.893 260.228 193.628 259.703 192.696 258.771C191.763 257.838 191.238 256.573 191.236 255.254V237.354C191.238 236.035 191.762 234.77 192.695 233.837C193.628 232.904 194.893 232.38 196.212 232.378H214.112C215.432 232.38 216.697 232.904 217.629 233.837C218.562 234.77 219.087 236.035 219.088 237.354V255.254C219.087 256.573 218.562 257.838 217.629 258.771C216.696 259.703 215.431 260.228 214.112 260.229V260.229ZM196.212 233.375C195.158 233.376 194.147 233.796 193.402 234.541C192.657 235.286 192.237 236.297 192.236 237.351V255.251C192.237 256.305 192.657 257.316 193.402 258.061C194.148 258.806 195.158 259.225 196.212 259.226H214.112C215.166 259.225 216.177 258.806 216.923 258.061C217.668 257.316 218.087 256.305 218.088 255.251V237.351C218.087 236.297 217.668 235.286 216.923 234.541C216.177 233.796 215.167 233.376 214.112 233.375H196.212Z" fill="white"/>
<path d="M263.09 245.814C263.09 238.399 257.079 232.387 249.663 232.387C242.248 232.387 236.236 238.399 236.236 245.814C236.236 253.23 242.248 259.241 249.663 259.241C257.079 259.241 263.09 253.23 263.09 245.814Z" fill="#292A2E"/>
<path d="M249.663 259.741C246.909 259.741 244.216 258.924 241.926 257.394C239.636 255.864 237.851 253.689 236.796 251.144C235.742 248.599 235.467 245.799 236.004 243.097C236.541 240.396 237.868 237.914 239.815 235.966C241.763 234.019 244.245 232.692 246.946 232.155C249.648 231.617 252.448 231.893 254.993 232.947C257.538 234.001 259.713 235.787 261.243 238.077C262.774 240.367 263.59 243.06 263.59 245.814C263.586 249.507 262.117 253.047 259.507 255.657C256.896 258.268 253.356 259.737 249.663 259.741V259.741ZM249.663 232.887C247.107 232.887 244.607 233.645 242.481 235.066C240.356 236.486 238.699 238.505 237.72 240.867C236.742 243.229 236.486 245.829 236.985 248.336C237.484 250.844 238.715 253.147 240.523 254.955C242.33 256.763 244.634 257.994 247.141 258.493C249.649 258.992 252.248 258.736 254.61 257.757C256.972 256.779 258.991 255.122 260.412 252.996C261.832 250.87 262.59 248.371 262.59 245.814C262.586 242.387 261.223 239.101 258.8 236.678C256.376 234.254 253.091 232.891 249.663 232.887V232.887Z" fill="white"/>
<path d="M195.123 171.239L194.721 207.296L205.731 197.184L219.9 197.437L195.123 171.239Z" fill="#292A2E"/>
<path d="M194.721 207.801C194.652 207.801 194.584 207.786 194.521 207.757C194.432 207.718 194.355 207.653 194.302 207.571C194.249 207.489 194.221 207.393 194.221 207.295L194.621 171.239C194.622 171.14 194.653 171.043 194.71 170.96C194.766 170.878 194.846 170.815 194.939 170.779C195.031 170.742 195.133 170.734 195.23 170.756C195.327 170.778 195.416 170.828 195.484 170.9L220.261 197.1C220.329 197.172 220.374 197.261 220.391 197.358C220.408 197.455 220.396 197.555 220.356 197.645C220.32 197.738 220.255 197.817 220.172 197.871C220.088 197.925 219.989 197.951 219.889 197.945L205.92 197.696L195.057 207.672C194.965 207.755 194.846 207.801 194.721 207.801ZM195.609 172.486L195.233 206.151L205.393 196.821C205.489 196.737 205.613 196.69 205.74 196.69L218.719 196.921L195.609 172.486Z" fill="white"/>
<path d="M239.935 171.239L239.533 207.296L250.544 197.184L264.712 197.437L239.935 171.239Z" fill="white"/>
<path d="M239.533 207.801C239.464 207.801 239.396 207.786 239.333 207.757C239.244 207.718 239.167 207.653 239.114 207.571C239.061 207.489 239.033 207.393 239.033 207.295L239.433 171.239C239.434 171.14 239.465 171.043 239.522 170.96C239.578 170.878 239.658 170.815 239.751 170.779C239.843 170.742 239.945 170.734 240.042 170.756C240.139 170.778 240.228 170.828 240.296 170.9L265.074 197.1C265.142 197.172 265.187 197.262 265.204 197.359C265.22 197.456 265.208 197.555 265.168 197.645C265.133 197.739 265.069 197.818 264.985 197.872C264.901 197.926 264.802 197.952 264.702 197.945L250.732 197.696L239.87 207.672C239.778 207.755 239.658 207.801 239.533 207.801V207.801ZM240.421 172.486L240.046 206.151L250.205 196.821C250.302 196.738 250.425 196.692 250.552 196.69L263.531 196.921L240.421 172.486Z" fill="#292A2E"/>
<path d="M195.675 285.214L193.654 311.469L199.98 315.036L213.817 309.553L214.494 302.178L195.675 285.214Z" fill="#292A2E"/>
<path d="M199.98 315.536C199.893 315.536 199.809 315.514 199.734 315.471L193.408 311.905C193.325 311.859 193.257 311.789 193.212 311.705C193.167 311.621 193.147 311.526 193.155 311.431L195.177 285.175C195.184 285.082 195.217 284.993 195.272 284.918C195.328 284.843 195.403 284.784 195.489 284.75C195.576 284.715 195.671 284.705 195.763 284.722C195.855 284.738 195.94 284.78 196.01 284.842L214.829 301.806C214.886 301.858 214.931 301.923 214.96 301.996C214.988 302.069 214.999 302.147 214.992 302.224L214.316 309.599C214.307 309.691 214.273 309.779 214.218 309.853C214.162 309.927 214.088 309.984 214.002 310.018L200.164 315.501C200.105 315.524 200.043 315.536 199.98 315.536V315.536ZM194.18 311.19L200.02 314.483L213.351 309.201L213.976 302.381L196.101 286.266L194.18 311.19Z" fill="white"/>
<path d="M201.716 300.983C201.616 300.983 201.518 300.953 201.435 300.897C201.352 300.84 201.288 300.76 201.251 300.667L195.21 285.401C195.183 285.34 195.169 285.273 195.168 285.206C195.167 285.139 195.18 285.072 195.205 285.01C195.231 284.947 195.268 284.891 195.316 284.843C195.364 284.796 195.421 284.759 195.484 284.734C195.546 284.709 195.613 284.697 195.68 284.699C195.748 284.701 195.814 284.716 195.875 284.744C195.936 284.772 195.991 284.812 196.037 284.862C196.082 284.911 196.117 284.97 196.139 285.033L202.181 300.302C202.211 300.378 202.222 300.46 202.214 300.541C202.205 300.622 202.176 300.7 202.13 300.767C202.084 300.835 202.023 300.89 201.95 300.928C201.878 300.966 201.798 300.986 201.716 300.986V300.983Z" fill="white"/>
<path d="M202.64 306.152C204.496 306.152 206.002 304.647 206.002 302.79C206.002 300.933 204.496 299.428 202.64 299.428C200.783 299.428 199.278 300.933 199.278 302.79C199.278 304.647 200.783 306.152 202.64 306.152Z" fill="#292A2E"/>
<path d="M202.64 306.652C201.876 306.652 201.129 306.426 200.494 306.002C199.858 305.578 199.363 304.975 199.071 304.269C198.778 303.563 198.702 302.787 198.851 302.037C199 301.288 199.367 300.6 199.907 300.06C200.447 299.52 201.136 299.152 201.885 299.003C202.634 298.853 203.411 298.93 204.116 299.222C204.822 299.514 205.425 300.009 205.85 300.645C206.274 301.28 206.501 302.026 206.501 302.79C206.5 303.814 206.092 304.796 205.369 305.52C204.645 306.244 203.663 306.651 202.64 306.652V306.652ZM202.64 299.929C202.073 299.929 201.52 300.097 201.049 300.411C200.578 300.726 200.211 301.173 199.995 301.696C199.778 302.219 199.721 302.794 199.832 303.349C199.942 303.905 200.215 304.415 200.615 304.815C201.015 305.215 201.525 305.488 202.081 305.598C202.636 305.709 203.211 305.652 203.734 305.435C204.257 305.218 204.704 304.851 205.019 304.381C205.333 303.91 205.501 303.356 205.501 302.79C205.5 302.032 205.198 301.305 204.661 300.768C204.125 300.232 203.398 299.93 202.64 299.929V299.929Z" fill="white"/>
<path d="M196.707 315.961L216.507 308.115C216.853 307.978 217.24 307.981 217.584 308.124C217.928 308.268 218.203 308.54 218.35 308.882L219.789 312.239C219.864 312.416 219.904 312.606 219.904 312.799C219.905 312.991 219.866 313.182 219.792 313.359C219.717 313.536 219.608 313.697 219.47 313.831C219.332 313.965 219.168 314.07 218.989 314.139L199.121 321.865C198.774 322 198.388 321.995 198.045 321.85C197.702 321.705 197.429 321.432 197.284 321.089L195.914 317.851C195.839 317.675 195.8 317.486 195.8 317.295C195.8 317.104 195.838 316.915 195.911 316.739C195.985 316.563 196.094 316.403 196.23 316.27C196.367 316.136 196.529 316.031 196.707 315.961V315.961Z" fill="white"/>
<path d="M243.219 289.15L241.312 313.914L247.279 317.278L260.331 312.106L260.969 305.151L243.219 289.15Z" fill="#292A2E"/>
<path d="M247.278 317.778C247.192 317.778 247.108 317.756 247.032 317.713L241.066 314.35C240.984 314.304 240.916 314.234 240.871 314.15C240.826 314.066 240.806 313.971 240.813 313.876L242.719 289.111C242.727 289.018 242.76 288.929 242.815 288.853C242.87 288.778 242.946 288.719 243.033 288.685C243.12 288.65 243.214 288.64 243.306 288.657C243.399 288.673 243.484 288.716 243.553 288.778L261.303 304.778C261.361 304.83 261.406 304.895 261.434 304.968C261.463 305.04 261.474 305.118 261.466 305.195L260.828 312.151C260.82 312.243 260.786 312.331 260.731 312.405C260.675 312.479 260.6 312.536 260.514 312.57L247.462 317.742C247.404 317.766 247.342 317.778 247.278 317.778V317.778ZM241.834 313.635L247.316 316.725L259.86 311.755L260.447 305.355L243.638 290.201L241.834 313.635Z" fill="white"/>
<path d="M248.916 304.052C248.816 304.052 248.718 304.022 248.635 303.966C248.552 303.909 248.488 303.829 248.451 303.736L242.751 289.336C242.703 289.213 242.705 289.075 242.757 288.954C242.81 288.832 242.909 288.736 243.032 288.687C243.156 288.638 243.293 288.641 243.415 288.693C243.537 288.746 243.633 288.845 243.681 288.968L249.381 303.368C249.406 303.429 249.417 303.495 249.416 303.56C249.415 303.626 249.401 303.691 249.375 303.751C249.349 303.811 249.312 303.866 249.264 303.911C249.217 303.957 249.161 303.993 249.1 304.017C249.042 304.041 248.979 304.052 248.916 304.052Z" fill="white"/>
<path d="M249.787 308.899C251.539 308.899 252.958 307.48 252.958 305.728C252.958 303.977 251.539 302.557 249.787 302.557C248.036 302.557 246.616 303.977 246.616 305.728C246.616 307.48 248.036 308.899 249.787 308.899Z" fill="#292A2E"/>
<path d="M249.787 309.401C249.061 309.401 248.352 309.186 247.748 308.783C247.144 308.379 246.674 307.806 246.396 307.135C246.118 306.464 246.045 305.726 246.187 305.014C246.329 304.302 246.678 303.648 247.192 303.134C247.705 302.621 248.359 302.271 249.071 302.13C249.783 301.988 250.522 302.061 251.192 302.339C251.863 302.617 252.436 303.087 252.84 303.691C253.243 304.294 253.458 305.004 253.458 305.73C253.457 306.704 253.07 307.637 252.382 308.325C251.694 309.013 250.761 309.4 249.787 309.401V309.401ZM249.787 303.059C249.259 303.059 248.743 303.216 248.304 303.509C247.864 303.803 247.522 304.22 247.32 304.708C247.118 305.196 247.065 305.733 247.168 306.251C247.271 306.769 247.525 307.245 247.899 307.619C248.272 307.992 248.748 308.247 249.266 308.35C249.784 308.453 250.322 308.4 250.81 308.198C251.298 307.996 251.715 307.653 252.008 307.214C252.302 306.775 252.458 306.259 252.458 305.73C252.458 305.022 252.177 304.342 251.676 303.841C251.175 303.34 250.496 303.058 249.787 303.057V303.059Z" fill="white"/>
<path d="M244.191 318.151L262.865 310.751C263.192 310.622 263.557 310.625 263.882 310.76C264.207 310.895 264.466 311.152 264.604 311.475L265.961 314.642C266.033 314.809 266.07 314.988 266.07 315.169C266.071 315.35 266.035 315.529 265.965 315.696C265.895 315.863 265.792 316.014 265.662 316.141C265.532 316.267 265.378 316.366 265.209 316.431L246.47 323.719C246.143 323.847 245.779 323.841 245.455 323.705C245.132 323.568 244.874 323.311 244.737 322.987L243.445 319.933C243.375 319.768 243.339 319.589 243.338 319.409C243.338 319.229 243.374 319.051 243.443 318.885C243.513 318.719 243.615 318.569 243.743 318.443C243.872 318.317 244.024 318.218 244.191 318.151V318.151Z" fill="white"/>
<path d="M256.125 291.559C255.993 291.559 255.866 291.507 255.772 291.413C255.678 291.319 255.625 291.192 255.625 291.059V281.411C255.625 281.279 255.678 281.151 255.772 281.058C255.866 280.964 255.993 280.911 256.125 280.911C256.258 280.911 256.385 280.964 256.479 281.058C256.573 281.151 256.625 281.279 256.625 281.411V291.059C256.625 291.192 256.573 291.319 256.479 291.413C256.385 291.507 256.258 291.559 256.125 291.559Z" fill="white"/>
<path d="M260.95 286.735H251.301C251.168 286.735 251.041 286.683 250.947 286.589C250.853 286.495 250.801 286.368 250.801 286.235C250.801 286.103 250.853 285.975 250.947 285.882C251.041 285.788 251.168 285.735 251.301 285.735H260.949C261.081 285.735 261.208 285.788 261.302 285.882C261.396 285.975 261.449 286.103 261.449 286.235C261.449 286.368 261.396 286.495 261.302 286.589C261.208 286.683 261.081 286.735 260.949 286.735H260.95Z" fill="white"/>
<path d="M196.038 375.936C195.38 375.937 194.733 375.765 194.163 375.436V375.436C193.296 374.937 192.663 374.114 192.402 373.148C192.142 372.182 192.276 371.152 192.775 370.284L202.9 352.695C202.966 352.58 203.075 352.496 203.203 352.462C203.331 352.427 203.467 352.444 203.582 352.51L209.255 355.775C209.369 355.841 209.453 355.949 209.488 356.075C209.523 356.203 209.505 356.34 209.438 356.454L199.315 374.042C198.984 374.619 198.507 375.097 197.932 375.43C197.356 375.763 196.703 375.937 196.038 375.936ZM194.662 374.567C195.3 374.933 196.056 375.031 196.766 374.84C197.475 374.649 198.08 374.184 198.447 373.547L208.321 356.393L203.516 353.627L193.642 370.781C193.276 371.419 193.177 372.176 193.368 372.886C193.56 373.596 194.025 374.201 194.662 374.568V374.567Z" fill="white"/>
<path d="M212.29 353.271L204.225 348.629C203.019 347.935 201.48 348.35 200.786 349.555L200.786 349.556C200.092 350.761 200.507 352.301 201.712 352.994L209.777 357.636C210.983 358.33 212.522 357.915 213.216 356.71L213.216 356.709C213.91 355.504 213.495 353.965 212.29 353.271Z" fill="white"/>
<path d="M211.58 345.179C212.217 345.546 212.683 346.151 212.874 346.861C213.066 347.572 212.967 348.329 212.6 348.967L209.408 354.514L204.598 351.746L207.791 346.199C207.973 345.883 208.215 345.606 208.504 345.384C208.792 345.162 209.122 344.999 209.474 344.904C209.826 344.809 210.193 344.785 210.554 344.832C210.915 344.879 211.264 344.997 211.58 345.179Z" fill="white"/>
<path d="M250.992 374.056C249.096 374.061 247.217 373.691 245.464 372.967C243.711 372.242 242.119 371.179 240.779 369.836C240.688 369.742 240.638 369.616 240.639 369.485C240.64 369.354 240.692 369.228 240.785 369.135C240.877 369.042 241.002 368.99 241.134 368.988C241.265 368.987 241.391 369.037 241.485 369.128C243.373 371.009 245.776 372.288 248.391 372.803C251.005 373.318 253.714 373.046 256.174 372.022C258.634 370.998 260.735 369.267 262.211 367.049C263.688 364.83 264.473 362.224 264.468 359.559C264.463 356.894 263.668 354.291 262.183 352.078C260.698 349.865 258.591 348.142 256.127 347.127C253.663 346.112 250.953 345.85 248.341 346.375C245.728 346.9 243.33 348.188 241.449 350.076C241.355 350.167 241.229 350.218 241.098 350.217C240.967 350.216 240.841 350.164 240.749 350.071C240.656 349.979 240.603 349.853 240.602 349.722C240.6 349.591 240.65 349.465 240.741 349.37C242.421 347.684 244.491 346.438 246.767 345.743C249.043 345.048 251.455 344.925 253.79 345.385C256.126 345.845 258.311 346.874 260.154 348.38C261.996 349.886 263.439 351.824 264.354 354.021C265.269 356.218 265.628 358.607 265.399 360.975C265.17 363.344 264.361 365.62 263.042 367.602C261.724 369.583 259.937 371.209 257.84 372.334C255.743 373.46 253.401 374.052 251.021 374.056H250.992Z" fill="white"/>
<path d="M246.58 351.501C246.551 351.501 246.521 351.498 246.491 351.493L240.466 350.412C240.401 350.4 240.338 350.375 240.283 350.339C240.227 350.302 240.179 350.255 240.142 350.2C240.104 350.145 240.079 350.083 240.066 350.017C240.053 349.952 240.053 349.885 240.066 349.819L241.229 344.155C241.243 344.091 241.268 344.03 241.305 343.975C241.342 343.921 241.389 343.874 241.444 343.838C241.498 343.802 241.56 343.777 241.624 343.764C241.689 343.752 241.755 343.752 241.819 343.765C241.884 343.778 241.945 343.804 241.999 343.841C242.054 343.878 242.1 343.925 242.137 343.979C242.173 344.034 242.198 344.096 242.21 344.16C242.223 344.225 242.223 344.291 242.209 344.355L241.149 349.517L246.669 350.508C246.792 350.53 246.902 350.598 246.978 350.697C247.054 350.796 247.089 350.92 247.078 351.044C247.067 351.169 247.01 351.284 246.918 351.369C246.826 351.453 246.706 351.5 246.581 351.5L246.58 351.501Z" fill="white"/>
<path d="M260.193 423.746H236.118C235.986 423.746 235.859 423.694 235.765 423.6C235.671 423.506 235.618 423.379 235.618 423.246V399.172C235.618 399.04 235.671 398.912 235.765 398.819C235.859 398.725 235.986 398.672 236.118 398.672H260.193C260.326 398.672 260.453 398.725 260.547 398.819C260.641 398.912 260.693 399.04 260.693 399.172V423.246C260.693 423.379 260.641 423.506 260.547 423.6C260.453 423.694 260.326 423.746 260.193 423.746ZM236.618 422.746H259.693V399.672H236.618V422.746Z" fill="white"/>
<path d="M261.821 407.832H248.855C245.835 407.832 243.386 410.281 243.386 413.301V426.267C243.386 429.288 245.835 431.736 248.855 431.736H261.821C264.842 431.736 267.29 429.288 267.29 426.267V413.301C267.29 410.281 264.842 407.832 261.821 407.832Z" fill="#292A2E"/>
<path d="M261.822 432.235H248.855C247.273 432.234 245.756 431.604 244.637 430.486C243.518 429.367 242.888 427.85 242.886 426.267V413.301C242.888 411.719 243.518 410.202 244.637 409.083C245.756 407.964 247.273 407.334 248.855 407.332H261.822C263.405 407.334 264.922 407.964 266.041 409.083C267.16 410.202 267.789 411.719 267.79 413.301V426.267C267.789 427.85 267.16 429.367 266.041 430.486C264.922 431.604 263.405 432.234 261.822 432.235V432.235ZM248.855 408.335C247.538 408.337 246.275 408.861 245.343 409.792C244.412 410.724 243.888 411.987 243.886 413.304V426.27C243.888 427.588 244.412 428.85 245.344 429.782C246.275 430.713 247.538 431.237 248.855 431.238H261.822C263.14 431.237 264.403 430.713 265.334 429.782C266.265 428.85 266.789 427.587 266.79 426.27V413.301C266.789 411.984 266.266 410.721 265.334 409.789C264.403 408.858 263.14 408.334 261.822 408.332L248.855 408.335Z" fill="white"/>
<path d="M211.342 412.318C211.342 406.647 206.745 402.049 201.073 402.049C195.402 402.049 190.804 406.647 190.804 412.318C190.804 417.99 195.402 422.587 201.073 422.587C206.745 422.587 211.342 417.99 211.342 412.318Z" fill="#292A2E"/>
<path d="M201.073 423.087C198.944 423.087 196.861 422.456 195.091 421.272C193.32 420.089 191.939 418.407 191.124 416.439C190.309 414.472 190.096 412.306 190.511 410.217C190.927 408.128 191.953 406.209 193.459 404.703C194.965 403.197 196.884 402.172 198.973 401.756C201.062 401.341 203.227 401.554 205.195 402.369C207.162 403.184 208.844 404.564 210.028 406.335C211.211 408.106 211.842 410.188 211.842 412.318C211.839 415.173 210.703 417.91 208.684 419.929C206.666 421.948 203.929 423.084 201.073 423.087ZM201.073 402.549C199.141 402.549 197.253 403.122 195.646 404.196C194.04 405.269 192.787 406.795 192.048 408.58C191.309 410.365 191.115 412.329 191.492 414.224C191.869 416.119 192.799 417.86 194.166 419.226C195.532 420.592 197.273 421.523 199.168 421.9C201.063 422.276 203.027 422.083 204.812 421.344C206.597 420.604 208.123 419.352 209.196 417.746C210.27 416.139 210.842 414.25 210.842 412.318C210.84 409.728 209.809 407.245 207.978 405.414C206.147 403.582 203.663 402.552 201.073 402.549V402.549Z" fill="white"/>
<path d="M206.43 421.076L205.568 421.583L212.434 433.267L213.296 432.76L206.43 421.076Z" fill="white"/>
<path d="M266.445 489.328H239.616V462.501H266.445V489.328ZM240.616 488.328H265.445V463.501H240.616V488.328Z" fill="white"/>
<path d="M240.116 463.501C239.984 463.501 239.857 463.449 239.763 463.355C239.669 463.261 239.616 463.134 239.616 463.001V455.175C239.616 455.043 239.669 454.915 239.763 454.822C239.857 454.728 239.984 454.675 240.116 454.675C240.249 454.675 240.376 454.728 240.47 454.822C240.564 454.915 240.616 455.043 240.616 455.175V463.001C240.616 463.134 240.564 463.261 240.47 463.355C240.376 463.449 240.249 463.501 240.116 463.501Z" fill="white"/>
<path d="M240.032 463.501H232.206C232.073 463.501 231.946 463.449 231.852 463.355C231.758 463.261 231.706 463.134 231.706 463.001C231.706 462.869 231.758 462.742 231.852 462.648C231.946 462.554 232.073 462.501 232.206 462.501H240.032C240.164 462.501 240.291 462.554 240.385 462.648C240.479 462.742 240.532 462.869 240.532 463.001C240.532 463.134 240.479 463.261 240.385 463.355C240.291 463.449 240.164 463.501 240.032 463.501Z" fill="white"/>
<path d="M200.37 491.109H202.484L209.226 459.425H219.075L219.402 457.776H197.62L197.26 459.425H207.061L200.37 491.109Z" fill="white"/>
<path d="M671.629 620.133L630.313 493.133C629.587 490.901 628.173 488.957 626.274 487.578C624.375 486.199 622.088 485.456 619.742 485.456H451.421C449.666 485.456 447.936 485.871 446.373 486.668C444.81 487.465 443.457 488.62 442.426 490.04C441.395 491.46 440.715 493.103 440.441 494.836C440.167 496.569 440.307 498.343 440.85 500.011L482.166 627.011C482.891 629.243 484.305 631.188 486.204 632.567C488.103 633.946 490.39 634.688 492.737 634.688H661.058C662.812 634.688 664.542 634.273 666.105 633.476C667.668 632.679 669.02 631.524 670.052 630.104C671.083 628.684 671.763 627.041 672.037 625.308C672.311 623.575 672.171 621.802 671.629 620.133V620.133Z" fill="#292A2E"/>
<path d="M750.6 624.39H637.927C635.119 624.39 632.843 626.666 632.843 629.474V629.604C632.843 632.412 635.119 634.688 637.927 634.688H750.6C753.407 634.688 755.684 632.412 755.684 629.604V629.474C755.684 626.666 753.407 624.39 750.6 624.39Z" fill="#292A2E"/>
<path d="M556.238 583.921C565.988 583.921 573.893 576.017 573.893 566.267C573.893 556.517 565.988 548.613 556.238 548.613C546.488 548.613 538.584 556.517 538.584 566.267C538.584 576.017 546.488 583.921 556.238 583.921Z" fill="white"/>
</svg>
